<?xml version="1.0" encoding="utf-8"?>
<!-- Generator: Adobe Illustrator 24.1.1, SVG Export Plug-In . SVG Version: 6.00 Build 0)  -->
<svg version="1.1" id="Layer_1" xmlns="http://www.w3.org/2000/svg" xmlns:xlink="http://www.w3.org/1999/xlink" x="0px" y="0px"
	 viewBox="0 0 765.7 751.7" style="enable-background:new 0 0 765.7 751.7;" xml:space="preserve">
<style type="text/css">
	.st0{fill:#E65100;}
	.st1{fill:#1976D2;}
	.st2{fill:#704E34;}
	.st3{fill:#C29653;}
	.st4{fill:#8C6A3F;}
	.st5{fill:#1565C0;}
	.st6{fill:#43A047;}
	.st7{fill:#7CB342;}
	.st8{fill:#BBDEFB;}
	.st9{font-family:'LCDMono2Bold';}
	.st10{font-size:44.6065px;}
</style>
<g>
	<path class="st0" d="M45.8,578.3v75.6h16.4c1.2-0.1,2.3,0.2,3.3,0.9c1.3,1.2,1.3,3.2,0.1,4.5c0,0-0.1,0.1-0.1,0.1
		c-0.9,0.7-2.1,1-3.3,0.9H22.9c-1.2,0.1-2.3-0.2-3.2-0.9c-1.3-1.2-1.3-3.2-0.1-4.5c0,0,0.1-0.1,0.1-0.1c0.9-0.7,2.1-1,3.2-0.9h16.4
		v-75.6H13.5v21.9c0.1,1.2-0.2,2.3-0.9,3.3c-1.2,1.3-3.2,1.3-4.5,0.1c0,0-0.1-0.1-0.1-0.1c-0.7-1-1-2.1-0.9-3.3V572H78v28.3
		c0.1,1.2-0.2,2.4-0.9,3.3c-1.2,1.3-3.2,1.3-4.5,0.1c0,0-0.1-0.1-0.1-0.1c-0.7-1-1-2.1-0.9-3.3v-21.9H45.8z"/>
	<path class="st0" d="M114.7,617.6v36.3h48.7v-18.8c-0.1-1.2,0.2-2.3,0.9-3.2c1.2-1.3,3.2-1.3,4.5-0.1c0,0,0.1,0.1,0.1,0.1
		c0.7,0.9,1,2.1,0.9,3.2v25H99.8c-1.2,0.1-2.3-0.2-3.2-0.9c-1.3-1.2-1.3-3.2-0.1-4.5c0,0,0.1-0.1,0.1-0.1c0.9-0.7,2.1-1,3.2-0.9h8.5
		v-75.5h-8.5c-1.1,0.1-2.3-0.2-3.2-0.9c-1.3-1.2-1.3-3.2-0.1-4.5c0,0,0.1-0.1,0.1-0.1c0.9-0.7,2.1-1,3.2-0.9h66.6v21.8
		c0.1,1.1-0.2,2.3-0.9,3.2c-0.6,0.7-1.4,1-2.3,1c-0.9,0-1.7-0.3-2.3-1c-0.7-0.9-1-2.1-0.9-3.2v-15.5h-45.4v33h22.7v-7.2
		c-0.1-1.2,0.2-2.3,0.9-3.3c0.6-0.6,1.4-1,2.3-1c0.9,0,1.7,0.3,2.3,1c0.7,0.9,1,2.1,0.9,3.3v20.6c0.1,1.2-0.2,2.3-0.9,3.3
		c-0.6,0.6-1.4,1-2.3,1c-0.9,0-1.7-0.3-2.3-1c-0.7-0.9-1-2.1-0.9-3.3v-7.1H114.7z"/>
	<path class="st0" d="M255.8,580.6v-4.5c-0.1-1.2,0.2-2.3,0.9-3.2c1.2-1.3,3.2-1.3,4.5-0.1c0,0,0.1,0.1,0.1,0.1
		c0.7,0.9,1,2.1,0.9,3.2v17.6c0.1,1.2-0.2,2.3-0.9,3.3c-1.2,1.3-3.1,1.3-4.4,0.1c0,0,0,0-0.1-0.1c-0.7-0.8-1-1.9-1-2.9
		c-0.3-4.2-2.5-7.9-6.9-11.2c-5.7-4.4-12.7-6.8-19.9-6.7c-4.8,0-9.5,1.1-13.8,3.2c-2.9,1.3-5.6,3.3-7.7,5.7c-3.3,3.9-6,8.3-7.9,13
		c-1.5,3.8-2.2,7.8-2.1,11.9v11.1c-0.1,9.3,3.6,18.2,10.3,24.6c6.8,7,14.8,10.4,23.8,10.4c5.1,0.1,10.1-1.1,14.6-3.5
		c4.8-2.8,9-6.4,12.5-10.7c0.6-1,1.7-1.5,2.9-1.6c0.8,0,1.6,0.3,2.2,0.8c0.6,0.6,0.8,1.3,0.8,2.1c0,1.2-1.1,2.9-3.2,5.3
		c-3.9,4.4-8.6,8-14,10.4c-4.9,2.3-10.2,3.5-15.6,3.5c-4.8,0-9.5-0.9-14-2.6c-3.2-1.1-6.2-2.7-9-4.7c-3.2-2.7-6.2-5.8-8.7-9.2
		c-3-3.5-5.4-7.6-7.1-11.9c-1.3-3.9-1.9-7.9-1.9-12v-13c0.1-6.7,1.8-13.2,5-19.1c3.1-6.2,7.8-11.4,13.7-15
		c5.7-3.5,12.2-5.3,18.9-5.2C238.9,569.7,248.6,573.6,255.8,580.6z"/>
	<path class="st0" d="M342,617.5h-42v36.3h8.5c1.1-0.1,2.3,0.2,3.2,0.9c1.3,1.2,1.3,3.2,0.1,4.5c0,0-0.1,0.1-0.1,0.1
		c-0.9,0.7-2.1,1-3.2,0.9h-22c-1.2,0.1-2.3-0.2-3.3-0.9c-1.3-1.2-1.3-3.2-0.1-4.5c0,0,0,0,0.1-0.1c0.9-0.7,2.1-1,3.3-0.9h7.2v-75.5
		h-3.9c-1.2,0.1-2.4-0.2-3.3-0.9c-1.3-1.2-1.3-3.2-0.1-4.5c0,0,0.1-0.1,0.1-0.1c1-0.7,2.1-1,3.3-0.9h18.8c1.1-0.1,2.3,0.2,3.2,0.9
		c1.3,1.2,1.3,3.2,0.1,4.5c0,0-0.1,0.1-0.1,0.1c-0.9,0.7-2.1,1-3.2,0.9H300v32.9h42v-32.9h-8.4c-1.1,0.1-2.3-0.2-3.2-0.9
		c-0.7-0.6-1-1.4-1-2.3c0-0.9,0.3-1.7,0.9-2.3c1-0.7,2.1-1,3.3-0.9h18.8c1.2-0.1,2.3,0.2,3.3,0.9c1.3,1.2,1.3,3.2,0.1,4.5
		c0,0-0.1,0.1-0.1,0.1c-1,0.7-2.1,1-3.3,0.9h-3.9v75.6h7.2c1.2-0.1,2.3,0.2,3.3,0.9c1.3,1.2,1.3,3.2,0.1,4.5c0,0-0.1,0.1-0.1,0.1
		c-0.9,0.7-2.1,1-3.3,0.9h-22.1c-1.2,0.1-2.3-0.2-3.2-0.9c-0.6-0.6-1-1.4-1-2.3c0-0.9,0.3-1.7,0.9-2.3c1-0.7,2.1-1,3.3-0.9h8.4
		V617.5z"/>
	<path class="st1" d="M491,608.3c0-2,0.3-4,1-5.9c0.6-1.8,1.6-3.5,2.8-5c1.3-1.5,2.9-2.7,4.7-3.4c2.1-0.9,4.3-1.3,6.5-1.2
		c1.2,0,2.5,0.1,3.7,0.4c1.3,0.2,2.5,0.6,3.7,1c3.5-1.2,6.5-3.3,8.8-6.2c2.5-3,3.9-6.7,3.9-10.6c0-2.7-0.6-5.4-1.7-7.9
		c-1.2-2.5-3.1-4.6-5.5-6c-3-1.9-6.4-3.3-9.9-4c-4.9-1-9.9-1.5-14.9-1.4c-9.2-0.1-18.4,1.3-27.1,4.4c-7.4,2.6-14.3,6.5-20.3,11.4
		c-5.3,4.4-9.6,9.8-12.7,16c-2.8,5.5-4.3,11.6-4.4,17.8c0,2.2,0.3,4.5,0.9,6.6c0.5,1.9,1.4,3.8,2.6,5.4c-1.4,0.3-2.8,0.5-4.2,0.6
		c-1.4,0.1-2.8,0.2-4.1,0.2c-2.6,0-5.1-0.3-7.6-0.9c-2.2-0.6-4.3-1.6-6.1-2.9c-1.8-1.4-3.2-3.1-4.1-5.2c-1-2.4-1.5-5-1.5-7.6
		c0-7.5,2.4-15.1,7.2-22.7c5.3-8.1,12-15.1,19.9-20.7c9.2-6.5,19.4-11.6,30.2-15c12.2-3.9,24.9-5.9,37.8-5.8
		c7.7-0.1,15.5,0.6,23.1,2c5.6,1,10.9,3,15.8,5.9c3.8,2.3,6.9,5.6,8.9,9.5c1.9,4,2.9,8.3,2.8,12.7c0,6.1-2.1,12.1-6,16.7
		c-4.5,5.2-10.2,9.3-16.6,11.8c-1.2,0.4-1.9,1.1-1.9,2.2c4.2,2.5,7.6,6.1,10,10.3c2.1,4,3.1,8.4,3.1,12.8c0,4.3-1.1,8.4-3.1,12.2
		c-2.2,4.2-5.1,8-8.6,11.3c-3.9,3.6-8.1,6.8-12.7,9.4c-4.9,2.8-10.1,5-15.6,6.5c-3.4-0.1-6.9-0.3-10.3-0.7l-14-1.5
		c-5.1-0.6-10.2-1.1-15.5-1.5c-5.3-0.5-10.3-0.7-14.9-0.7c-5.4,0-10.8,0.3-16.2,1.1c-4.9,0.7-8.4,1.7-10.5,2.9
		c-0.2-0.8-0.4-1.6-0.5-2.4c-0.1-0.9-0.2-1.8-0.2-2.7c0.1-5.6,2.6-10.3,7.6-14.1c5-3.8,12.1-5.8,21.5-5.8c2.1,0,4.2,0,6.6,0.2
		c2.4,0.2,4.3,0.3,5.9,0.5c0.1-0.7-0.1-1.4-0.5-2c-1.9-2.2-3.6-4.5-5.2-7c-1.1-1.7-1.7-3.7-1.7-5.8l10.2-29.2c1.1-3.2,2-6.5,2.8-9.8
		c0.6-2.5,1-5,1-7.6c0-1.4-0.2-2.7-0.6-4c3.2-1.7,6.5-3.1,10-4.2c2.7-0.9,5.4-1.5,8.3-1.5c5.5,0,8.2,3,8.2,9.1
		c-0.1,3.6-0.6,7.3-1.6,10.8c-1.4,5.2-3.1,10.2-5.3,15.1l-16.4,37.4c2.7,0.4,5.6,0.9,8.9,1.6c3.3,0.7,6.4,1.3,9.6,1.9
		c3.1,0.6,6.1,1.1,8.8,1.5c2.1,0.4,4.3,0.6,6.4,0.6c3.7-1.4,6.9-3.9,9.2-7.1c2.4-3.4,3.7-7.4,3.6-11.6c0.1-4.8-2.2-9.4-6.2-12.2
		C504.6,611,498.7,609,491,608.3z"/>
	<path class="st1" d="M637.9,619.6c0.1,0.5,0.2,1,0.2,1.5c0.1,0.5,0.1,1,0.1,1.5c0,3.7-1.3,7.2-3.7,10c-3.5,4.6-7.2,9.1-11.3,13.2
		c-3.1,3.2-6.4,6.2-9.9,8.9c-2.5,2-5.1,3.7-7.9,5.2c-1.7,1-3.5,1.5-5.4,1.7c-2.4,0-4.8-0.7-7-1.9c-2.3-1.2-4.1-3.1-5.2-5.4
		c0-1.3,0.2-2.6,0.5-3.9c0.4-1.6,0.9-3.3,1.5-4.9c0.7-1.9,1.7-4.2,3-7c1.3-2.8,3-6.2,5-10.3c-1.2-0.2-2.4,0.3-3.2,1.2
		c-4.8,6.5-9,11.8-12.4,15.9c-3.4,4.1-6.4,7.3-8.9,9.8c-1.8,1.9-3.9,3.6-6.2,4.9c-1.3,0.8-2.8,1.2-4.3,1.3
		c-4.6-0.4-8.8-2.9-11.5-6.7c-2.9-4.3-4.3-9.4-4.1-14.6c-0.1-7.6,1.3-15.1,4.2-22.1c2.6-6.4,6.2-12.3,10.7-17.6
		c4-4.7,8.8-8.7,14.2-11.7c4.5-2.6,9.5-4.1,14.7-4.2c3.2-0.1,6.3,0.5,9.2,1.9c3,1.6,5.8,3.8,8,6.4c3.2-2.3,6.6-4.1,10.3-5.6
		c2.1-0.9,4.3-1.4,6.6-1.6c1.9,0,3.7,1,4.6,2.6c-0.5,2-1.2,4.4-2.2,7.3c-0.9,2.9-1.9,6-3,9.3c-1.1,3.3-2.2,6.5-3.3,9.8
		s-2.2,6.4-3.1,9.3c-0.9,2.9-1.7,5.4-2.4,7.6c-0.5,1.5-0.9,3.1-1.2,4.6c0,1,0.7,1.5,2,1.5c0.8-0.1,1.5-0.4,2.2-0.8
		c1.5-0.8,2.9-1.8,4.2-2.9c1.7-1.4,3.9-3.2,6.3-5.6C631.8,626.2,634.6,623.2,637.9,619.6z M602.2,602.7c-2.9-2.7-5.6-4-8.2-4
		c-2.3,0-4.8,1.2-7.6,3.5c-3,2.7-5.7,5.7-7.9,9.1c-2.5,3.8-4.6,7.9-6.2,12.1c-1.6,4-2.4,8.3-2.5,12.6c-0.1,1.2,0.2,2.4,0.9,3.3
		c0.5,0.7,1.4,1.2,2.3,1.2c0.9,0,2.5-1.1,4.7-3.2c2.7-2.7,5.2-5.6,7.5-8.6c2.8-3.5,5.7-7.6,8.7-12.1
		C597,612.1,599.7,607.5,602.2,602.7z"/>
	<path class="st1" d="M648.2,602.7c0.5-2.9,1.5-5.7,2.8-8.4c1.2-2.5,2.8-4.8,4.7-6.8c1.7-1.8,3.7-3.3,5.9-4.5c2-1.1,4.2-1.6,6.4-1.6
		c2.1-0.1,4.1,0.7,5.6,2.1c1.6,1.6,2.7,3.7,2.9,5.9c-0.8,1.6-1.8,3-2.9,4.3c-1.2,1.4-2.6,2.9-4,4.3c0.3,2.4,1,4.8,2,7
		c1.1,2.6,2.3,5.3,3.6,8.3c1.3,3,2.4,6.1,3.3,9.3c1,3.3,1.4,6.7,1.4,10.1c-0.1,3.7-1.3,7.4-3.4,10.4c-2.4,3.5-5.3,6.7-8.6,9.3
		c-3.4,2.8-7.3,5-11.3,6.7c-3.7,1.6-7.7,2.5-11.7,2.6c-3.5,0-6.9-0.4-10.3-1.4c-2.8-0.8-5.4-2-7.8-3.5c-2-1.3-3.7-3-5-4.9
		c-1.1-1.6-1.7-3.6-1.8-5.6c0-2.5,0.4-5,1.2-7.4c0.9-2.6,2.3-5,3.9-7.1c0.8-1,2.2-2.6,4-4.7c1.9-2.1,3.9-4.5,6.1-7.2
		c2.2-2.7,4.5-5.5,6.9-8.5C644.3,608.6,646.3,605.7,648.2,602.7z M651.2,615.9c-1,1.5-2.3,3.1-3.9,4.9c-1.6,1.8-3.3,3.8-5.2,5.8
		c-1.9,2-3.8,4-5.8,6.1c-2,2.1-3.9,4-5.6,5.9c2.2,3,5,5.5,8.2,7.4c2.6,1.7,5.7,2.6,8.8,2.6c2.4,0,4.7-1,6.4-2.7
		c1.8-1.8,2.7-4.5,2.7-8.1c0-1.9-0.2-3.7-0.6-5.6c-0.4-2-0.9-3.9-1.5-5.8c-0.6-1.9-1.2-3.8-1.9-5.6
		C652.2,619,651.5,617.4,651.2,615.9z"/>
	<path class="st1" d="M758.3,617.9c0.2,1.1,0.3,2.3,0.3,3.4c-0.1,2-0.6,3.9-1.3,5.8c-0.7,2-1.6,3.8-2.8,5.5
		c-7.2,9.7-14.6,17-22,21.8c-6.7,4.7-14.7,7.2-22.8,7.3c-8.4,0-14.8-2.2-19-6.5c-4.2-4.3-6.3-10.1-6.3-17.3c0-2.7,0.3-5.4,0.9-8.1
		c0.6-2.6,1.3-5.2,2.2-7.8c1.9-5.4,4.5-10.6,7.7-15.4c3-4.4,6.5-8.4,10.6-11.8c3.7-3.1,7.8-5.7,12.2-7.6c4-1.7,8.4-2.7,12.7-2.7
		c6.4,0,11.2,1.4,14.6,4.1c3.4,2.8,5.2,7,5,11.3c0,1.7-0.3,3.4-0.9,5c-0.6,1.7-1.4,3.4-2.5,4.9c-1.2,1.4-2.6,2.6-4.1,3.6
		c-2.6,1.9-5.4,3.7-8.2,5.3c-3.3,2-7.3,4-11.7,6.2c-4.7,2.3-9.6,4.3-14.6,6c-0.1,0.6-0.2,1.2-0.2,1.9c0,0.7-0.1,1.5-0.1,2.3
		c-0.1,2.5,0.9,5,2.6,6.9c1.8,1.8,4.6,2.7,8.5,2.7c4.4,0,9.9-2.1,16.5-6.2S749.7,627.6,758.3,617.9z M725.4,597
		c-1,0.2-1.9,0.6-2.6,1.3c-1.4,1.2-2.7,2.6-3.7,4.2c-1.6,2.4-3,4.8-4.2,7.4c-1.6,3.4-3,7-4,10.6c4.1-1.8,8.2-3.9,12-6.2
		c2.2-1.3,4.3-2.8,6.2-4.6c1.5-1.9,2.2-4.2,2.1-6.6C731.3,599.1,729.3,597,725.4,597z"/>
</g>
<g>
	<path class="st2" d="M203.8,29.1l8.9-8.7l366.5,372.7l-8.9,8.7L203.8,29.1z"/>
	<path class="st3" d="M208.3,46.6c-12-0.1-21.7-9.7-21.9-21.7c0.1-12,9.8-21.6,21.8-21.8c12,0.1,21.7,9.8,21.8,21.8
		C229.9,36.8,220.2,46.4,208.3,46.6z"/>
	<path class="st4" d="M208.3,6.2c10.1-0.2,18.5,7.9,18.6,18c0,0.2,0,0.5,0,0.7c0.2,10.1-7.8,18.4-17.9,18.6c-0.2,0-0.5,0-0.7,0
		c-10.1,0.2-18.5-7.9-18.7-18c0-0.2,0-0.4,0-0.7c-0.2-10.1,7.9-18.5,18-18.7C207.9,6.2,208.1,6.2,208.3,6.2 M208.3,0
		c-13.8,0-24.9,11.2-24.9,24.9s11.2,24.9,24.9,24.9s24.9-11.2,24.9-24.9S222.1,0,208.3,0z"/>
	<path class="st3" d="M413.4,469.3c-128.2,0.6-232.5-102.8-233.1-231c-0.3-62.4,24.6-122.3,69-166.2c11.2-11.1,23.5-21.1,36.7-29.8
		l22.4,22.4c-13.3,8.3-25.6,18.1-36.7,29.2c-79.5,78.2-80.5,206.1-2.3,285.6s206.1,80.5,285.6,2.3c0.7-0.7,1.3-1.3,2-2l2.5-2.5
		l21.7,22.4l-2.5,2.5C534.6,445.3,475.2,469.4,413.4,469.3z"/>
	<path class="st4" d="M285.4,46l17.4,18.1c-12.2,8-23.6,17.1-34.2,27.2c-80,79.4-80.5,208.6-1.1,288.6c0.4,0.4,0.7,0.7,1.1,1.1
		c79.8,80.1,209.5,80.4,289.6,0.6l0,0l17.4,18l0,0c-43,42.9-101.4,66.9-162.2,66.5c-60.9,0.3-119.3-23.9-162.2-67.2
		c-43.3-42.9-67.7-101.3-67.8-162.2c0-60.9,24.3-118.7,67.8-162.8C261.7,63.6,273.2,54.2,285.4,46 M286,37.9
		c-14.2,9.1-27.3,19.8-39.2,31.7c-92.6,93.2-92.6,241.2,0,333.8c92.2,92,241.5,92,333.8,0l4.4-4.4l-26.1-26.7
		c-1.2,1.9-3.1,3.1-4.3,5c-37.6,37.1-88.3,57.9-141.1,57.8c-109.8-0.1-198.8-89.3-198.6-199.1c0.1-52.6,20.9-103,58.1-140.2
		c12-11.9,25.4-22.4,39.9-31.1C312.7,64.6,286,37.9,286,37.9z"/>
	<path class="st5" d="M413.2,69.5c-92.1,0-166.8,74.7-166.8,166.8S321,403.1,413.2,403.1S580,328.4,580,236.3l0,0
		C580,144.2,505.3,69.5,413.2,69.5z"/>
	<path class="st6" d="M482.3,157.1l-16.7,12.5c-2.4,2.3-3.4,5.8-2.5,9.1l7.5,9.1c0.8,3.6-0.9,7.3-4.2,9.1c-4.2,2.5-14.2,7.5-14.2,10
		c0,5.8,4.2,20,7.5,20c25.9,0,10-11.7,28.4-23.4c10.8-6.7,28.4-10,32.5-10h16.7v117.1h-58.4c0,0,10,15.9,19.2,33.4
		c4.2,8.3,14.2,24.9,14.2,24.9c73.6-55.1,88.6-159.4,33.5-233c-9.1-12.2-19.8-23-31.9-32.3l-24.1,42.6
		C488.5,150.5,485.9,154.3,482.3,157.1z M330.4,244.7c7.5,0,7.5-6.8,7.5-16.7c0-9.9-1.7-24.9,24.9-24.9c10.9,0,24.9,0,24.9-16.7
		v-41.8c0-2.5-0.8-13.4-17.5-13.4c-14.2,0-24.9-2.5-24.9-12.5c0-7.5,5.8-24.9,17.5-40.8c-62,19.3-107,73.1-115.1,137.6l-1.7,12.5
		H313C325.5,228,323,244.7,330.4,244.7L330.4,244.7z M404.7,294.7c-10,0-16.7,0-28.4-14.2c-5-5-12.5-10.8-18.3-10.8h-20l-8.3,8.3
		l16.7,58.4V389c8.3,3.3,16.7,6.7,24.9,9.1c3.3-25.8,23.4-56.7,24.9-61.7c1.7-3.3,8.3-19.2,8.3-19.2L404.7,294.7z"/>
	<path class="st7" d="M521.5,194.6c0,0,8.3,8.3,8.3,33.4c0,8.3-16.7,16.7-41.7,16.7c-41.7,0-41.7,24.2-41.7,33.3
		c0,30,33.4,33.4,33.4,33.4s33.4,0,58.4,33.4l0.8,0.8c45.5-52.4,53.8-127.4,20.9-188.5l-2.5-4.2h-2.5
		C529.8,152.9,532.3,186.2,521.5,194.6z M262.9,236.3c5,10,17.5,19.2,27.5,26.7c6.8,5,30.9,15,30.9,31.7c0,28.4,16.7,58.4,16.7,75.1
		v15l16.7,7.5v-14.2c0-24.9,28.4-41.7,41.7-41.7c0,0,16.7-1.7,16.7-29.2c0-3.3-3.3-12.5-8.3-12.5c0,0-4.2,16.7-35.9,16.7
		c-16.7,0-31.7-9.2-31.7-41.7h-15.9c-5,0-9.2-6.8-9.2-10.9s-0.8-5.8-7.5-5.8c-5,0-8.3-2.5-8.3-6.8V238c0-5,4.2-10.8,16.7-10.8
		c0-15-16.7-24.9-16.7-37.5c0-11.7-8.3-29.2-24.9-37.5l-2.5-0.8c0,0-17.5,30.1-20.9,62.5L262.9,236.3z"/>
	<path class="st8" d="M413.2,411.5C316.4,411.5,238,333,238,236.3c0-96.7,78.4-175.2,175.2-175.2s175.2,78.4,175.2,175.2
		C588.3,333,509.9,411.5,413.2,411.5C413.2,411.5,413.2,411.5,413.2,411.5z M413.2,86.1c-82.9,0-150.1,67.2-150.1,150.1
		s67.2,150.1,150.1,150.1s150.1-67.2,150.1-150.1C563,153.4,496,86.4,413.2,86.1z"/>
</g>
<text transform="matrix(1 0 0 1 307.6162 749.623)" class="st2 st9 st10">Est.2020</text>
</svg>
