<svg xmlns="http://www.w3.org/2000/svg" xmlns:xlink="http://www.w3.org/1999/xlink" viewBox="0 0 80 80" fill="#5E5E5E">
  <path d="M40 11 A 1 1 0 0 0 39 12 A 1 1 0 0 0 40 13 A 1 1 0 0 0 41 12 A 1 1 0 0 0 40 11 z M 40 15 A 1 1 0 0 0 39 16 A 1 1 0 0 0 40 17 A 1 1 0 0 0 41 16 A 1 1 0 0 0 40 15 z M 40 19 A 1 1 0 0 0 39 20 A 1 1 0 0 0 40 21 A 1 1 0 0 0 41 20 A 1 1 0 0 0 40 19 z M 10 23 A 1 1 0 0 0 9 24 A 1 1 0 0 0 10 25 A 1 1 0 0 0 11 24 A 1 1 0 0 0 10 23 z M 40 23 A 1 1 0 0 0 39 24 A 1 1 0 0 0 40 25 A 1 1 0 0 0 41 24 A 1 1 0 0 0 40 23 z M 70 23 A 1 1 0 0 0 69 24 A 1 1 0 0 0 70 25 A 1 1 0 0 0 71 24 A 1 1 0 0 0 70 23 z M 13 26 A 1 1 0 0 0 12 27 A 1 1 0 0 0 13 28 A 1 1 0 0 0 14 27 A 1 1 0 0 0 13 26 z M 67 26 A 1 1 0 0 0 66 27 A 1 1 0 0 0 67 28 A 1 1 0 0 0 68 27 A 1 1 0 0 0 67 26 z M 40 27 A 1 1 0 0 0 39 28 A 1 1 0 0 0 40 29 A 1 1 0 0 0 41 28 A 1 1 0 0 0 40 27 z M 16 29 A 1 1 0 0 0 15 30 A 1 1 0 0 0 16 31 A 1 1 0 0 0 17 30 A 1 1 0 0 0 16 29 z M 64 29 A 1 1 0 0 0 63 30 A 1 1 0 0 0 64 31 A 1 1 0 0 0 65 30 A 1 1 0 0 0 64 29 z M 40 31 A 1 1 0 0 0 39 32 A 1 1 0 0 0 40 33 A 1 1 0 0 0 41 32 A 1 1 0 0 0 40 31 z M 19 32 A 1 1 0 0 0 18 33 A 1 1 0 0 0 19 34 A 1 1 0 0 0 20 33 A 1 1 0 0 0 19 32 z M 61 32 A 1 1 0 0 0 60 33 A 1 1 0 0 0 61 34 A 1 1 0 0 0 62 33 A 1 1 0 0 0 61 32 z M 22 35 A 1 1 0 0 0 21 36 A 1 1 0 0 0 22 37 A 1 1 0 0 0 23 36 A 1 1 0 0 0 22 35 z M 40 35 A 1 1 0 0 0 39 36 A 1 1 0 0 0 40 37 A 1 1 0 0 0 41 36 A 1 1 0 0 0 40 35 z M 58 35 A 1 1 0 0 0 57 36 A 1 1 0 0 0 58 37 A 1 1 0 0 0 59 36 A 1 1 0 0 0 58 35 z M 10.707031 37.292969L9.2929688 38.707031L40 69.414062L70.707031 38.707031L69.292969 37.292969L40 66.585938L10.707031 37.292969 z M 25 38 A 1 1 0 0 0 24 39 A 1 1 0 0 0 25 40 A 1 1 0 0 0 26 39 A 1 1 0 0 0 25 38 z M 55 38 A 1 1 0 0 0 54 39 A 1 1 0 0 0 55 40 A 1 1 0 0 0 56 39 A 1 1 0 0 0 55 38 z M 40 39 A 1 1 0 0 0 39 40 A 1 1 0 0 0 40 41 A 1 1 0 0 0 41 40 A 1 1 0 0 0 40 39 z M 28 41 A 1 1 0 0 0 27 42 A 1 1 0 0 0 28 43 A 1 1 0 0 0 29 42 A 1 1 0 0 0 28 41 z M 52 41 A 1 1 0 0 0 51 42 A 1 1 0 0 0 52 43 A 1 1 0 0 0 53 42 A 1 1 0 0 0 52 41 z M 40 43 A 1 1 0 0 0 39 44 A 1 1 0 0 0 40 45 A 1 1 0 0 0 41 44 A 1 1 0 0 0 40 43 z M 31 44 A 1 1 0 0 0 30 45 A 1 1 0 0 0 31 46 A 1 1 0 0 0 32 45 A 1 1 0 0 0 31 44 z M 49 44 A 1 1 0 0 0 48 45 A 1 1 0 0 0 49 46 A 1 1 0 0 0 50 45 A 1 1 0 0 0 49 44 z M 34 47 A 1 1 0 0 0 33 48 A 1 1 0 0 0 34 49 A 1 1 0 0 0 35 48 A 1 1 0 0 0 34 47 z M 40 47 A 1 1 0 0 0 39 48 A 1 1 0 0 0 40 49 A 1 1 0 0 0 41 48 A 1 1 0 0 0 40 47 z M 46 47 A 1 1 0 0 0 45 48 A 1 1 0 0 0 46 49 A 1 1 0 0 0 47 48 A 1 1 0 0 0 46 47 z M 37 50 A 1 1 0 0 0 36 51 A 1 1 0 0 0 37 52 A 1 1 0 0 0 38 51 A 1 1 0 0 0 37 50 z M 43 50 A 1 1 0 0 0 42 51 A 1 1 0 0 0 43 52 A 1 1 0 0 0 44 51 A 1 1 0 0 0 43 50 z M 40 53 A 1 1 0 0 0 39 54 A 1 1 0 0 0 40 55 A 1 1 0 0 0 41 54 A 1 1 0 0 0 40 53 z" fill="#5E5E5E" />
</svg>