<svg xmlns="http://www.w3.org/2000/svg" xmlns:xlink="http://www.w3.org/1999/xlink" viewBox="0 0 26 26" fill="#FFFFFF">
  <path d="M25.398438 11.5L14.5 0.601563C13.699219 -0.199219 12.300781 -0.199219 11.5 0.601563L0.601563 11.5C-0.199219 12.300781 -0.199219 13.699219 0.601563 14.5L11.5 25.398438C12.300781 26.199219 13.699219 26.199219 14.5 25.398438L25.398438 14.5C26.199219 13.699219 26.199219 12.300781 25.398438 11.5 Z M 14.101563 18.601563C13.800781 18.898438 13.398438 19 13 19C12.601563 19 12.199219 18.898438 11.898438 18.601563C11.601563 18.300781 11.5 18 11.5 17.5C11.5 17.101563 11.601563 16.699219 11.898438 16.398438C12.199219 16.101563 12.601563 16 13 16C13.398438 16 13.800781 16.101563 14.101563 16.398438C14.398438 16.699219 14.5 17.101563 14.5 17.5C14.5 17.898438 14.398438 18.300781 14.101563 18.601563 Z M 13.800781 14L12.300781 14C12.101563 11.699219 11.398438 9.199219 11.398438 8.699219C11.398438 8.199219 11.601563 7.800781 11.898438 7.5C12.101563 7.199219 12.5 7 13 7C13.5 7 13.898438 7.199219 14.199219 7.5C14.5 7.800781 14.699219 8.199219 14.699219 8.699219C14.601563 9.199219 14 11.699219 13.800781 14Z" fill="#FFFFFF" />
</svg>