<svg xmlns="http://www.w3.org/2000/svg" xmlns:xlink="http://www.w3.org/1999/xlink" width="48" height="48" viewBox="0 0 48 48"><path fill="#FFC107" d="M24 43L6 35 6 13 24 21z"/><path fill="#FF3D00" d="M24 43L42 35 42 13 24 21z"/><path fill="#43A047" d="M6 13L24 5 42 13 24 21z"/><path fill="#FFF8E1" d="M17.047,33.328L12.93,31.47l-0.72,2.147L9,32.172L13.571,21l2.825,1.274L21,37.578l-3.226-1.454L17.047,33.328z M13.648,29.33l2.679,1.209l-1.345-5.194L13.648,29.33z"/><path fill="#FFCCBC" d="M28,37.418V23.407l5.1-2.135c1.828-0.766,3.216-1.017,4.17-0.755c0.951,0.261,1.428,1.021,1.428,2.277c0,0.725-0.168,1.415-0.507,2.071c-0.337,0.653-0.835,1.238-1.492,1.759c0.741-0.117,1.312,0.003,1.707,0.363S39,27.907,39,28.665c0,1.371-0.44,2.588-1.321,3.646c-0.881,1.057-2.186,1.955-3.914,2.691L28,37.418z M31.422,27.815l1.785-0.748c0.748-0.319,1.281-0.678,1.6-1.074c0.316-0.397,0.478-0.854,0.478-1.366c0-0.593-0.172-0.948-0.518-1.063c-0.344-0.117-0.9-0.016-1.667,0.307l-1.678,0.701V27.815z M31.422,30.027v3.358l2.243-0.938c0.619-0.259,1.093-0.597,1.425-1.015c0.331-0.419,0.496-0.881,0.496-1.387c0-1.168-0.588-1.51-1.765-1.021L31.422,30.027z"/><path fill="#A5D6A7" d="M27.776,16.691c-0.795,0.314-1.703,0.479-2.726,0.489c-1.023,0.013-2.096-0.133-3.22-0.435c-1.123-0.303-2.202-0.738-3.237-1.309c-1.708-0.941-2.591-1.891-2.645-2.846c-0.057-0.955,0.759-1.813,2.449-2.568l0.533-0.239c1.059-0.476,2.207-0.768,3.445-0.88c1.237-0.111,2.49-0.035,3.758,0.229c1.265,0.266,2.445,0.697,3.54,1.303c1.577,0.869,2.499,1.723,2.768,2.559c0.267,0.838-0.14,1.564-1.224,2.182l-3.124-1.723c0.636-0.309,0.909-0.631,0.821-0.965c-0.09-0.336-0.516-0.716-1.282-1.138c-0.78-0.431-1.594-0.635-2.442-0.618s-1.813,0.261-2.896,0.727l-0.765,0.344c-1.153,0.518-1.805,0.982-1.952,1.396c-0.145,0.412,0.205,0.854,1.057,1.322c0.719,0.398,1.411,0.639,2.074,0.721s1.315-0.006,1.951-0.267L27.776,16.691z"/></svg>