<svg height="65px" xmlns="http://www.w3.org/2000/svg" viewBox="0 0 813.57 263.38"><defs><style>.cls-1{fill:#e65100;}.cls-2{fill:#1976d2;}.cls-3{fill:#704e34;}.cls-4{fill:#c29653;}.cls-5{fill:#8c6a3f;}.cls-6{fill:#1565c0;}.cls-7{fill:#43a047;}.cls-8{fill:#7cb342;}.cls-9{fill:#bbdefb;}</style></defs><g id="Layer_2" data-name="Layer 2"><g id="Layer_1-2" data-name="Layer 1"><path  class="cls-1" d="M302.84,115.34v54.12h11.77a3.5,3.5,0,0,1,2.32.62,2.24,2.24,0,0,1,0,3.27,3.39,3.39,0,0,1-2.32.65H286.47a3.39,3.39,0,0,1-2.32-.65,2.26,2.26,0,0,1,0-3.27,3.5,3.5,0,0,1,2.32-.62h11.78V115.34H279.67v15.72a3.61,3.61,0,0,1-.62,2.38,2.26,2.26,0,0,1-3.27,0,3.44,3.44,0,0,1-.65-2.38V110.8H326v20.26a3.56,3.56,0,0,1-.62,2.38,2.28,2.28,0,0,1-3.29,0,3.56,3.56,0,0,1-.62-2.38V115.34Z"/><path class="cls-1" d="M352.2,143.48v26h34.89V156.07a3.47,3.47,0,0,1,.63-2.33,2.28,2.28,0,0,1,3.29,0,3.53,3.53,0,0,1,.62,2.33V174H341.56a3.39,3.39,0,0,1-2.32-.65,2.26,2.26,0,0,1,0-3.27,3.5,3.5,0,0,1,2.32-.62h6.11V115.34h-6.11a3.45,3.45,0,0,1-2.32-.62,2.28,2.28,0,0,1,0-3.29,3.44,3.44,0,0,1,2.32-.63h47.69v15.61a3.48,3.48,0,0,1-.62,2.33,2.28,2.28,0,0,1-3.29,0,3.48,3.48,0,0,1-.62-2.33V115.34H352.2v23.6h16.26v-5.13a3.39,3.39,0,0,1,.65-2.32,2.16,2.16,0,0,1,1.67-.7,2.1,2.1,0,0,1,1.62.7,3.39,3.39,0,0,1,.65,2.32v14.8a3.41,3.41,0,0,1-.65,2.33,2.13,2.13,0,0,1-1.62.7,2.2,2.2,0,0,1-1.67-.7,3.41,3.41,0,0,1-.65-2.33v-5.13Z"/><path class="cls-1" d="M453.31,117v-3.19a3.5,3.5,0,0,1,.62-2.32,2.27,2.27,0,0,1,3.3,0,3.5,3.5,0,0,1,.62,2.32v12.58a3.61,3.61,0,0,1-.62,2.38,2.09,2.09,0,0,1-1.65.7,2,2,0,0,1-1.54-.65,3.34,3.34,0,0,1-.73-2.1q-.27-4.55-4.91-8a22.84,22.84,0,0,0-14.26-4.81,21.83,21.83,0,0,0-9.89,2.33,16.3,16.3,0,0,0-5.5,4.1,34.59,34.59,0,0,0-5.67,9.35,22.75,22.75,0,0,0-1.52,8.53v7.94a24.31,24.31,0,0,0,7.35,17.63q7.35,7.49,17.06,7.48a21.28,21.28,0,0,0,10.46-2.54,32.12,32.12,0,0,0,8.93-7.66,2.65,2.65,0,0,1,2.06-1.14,2.12,2.12,0,0,1,1.57.6,2.06,2.06,0,0,1,.59,1.51c0,.83-.78,2.09-2.32,3.78a30,30,0,0,1-10,7.48,27,27,0,0,1-11.21,2.51,28.55,28.55,0,0,1-10-1.89,25.09,25.09,0,0,1-6.43-3.4,40.63,40.63,0,0,1-6.24-6.57,29.53,29.53,0,0,1-5.05-8.53,26.53,26.53,0,0,1-1.35-8.61v-9.24a29.9,29.9,0,0,1,3.59-13.69,26.19,26.19,0,0,1,9.84-10.75A25.8,25.8,0,0,1,434,109.35,27.12,27.12,0,0,1,453.31,117Z"/><path class="cls-1" d="M515.1,143.43H485v26h6.11a3.5,3.5,0,0,1,2.32.62,2.26,2.26,0,0,1,0,3.27,3.39,3.39,0,0,1-2.32.65H475.35a3.41,3.41,0,0,1-2.33-.65,2.26,2.26,0,0,1,0-3.27,3.53,3.53,0,0,1,2.33-.62h5.13V115.34h-2.81a3.58,3.58,0,0,1-2.38-.62,2.28,2.28,0,0,1,0-3.29,3.57,3.57,0,0,1,2.38-.63h13.45a3.44,3.44,0,0,1,2.32.63,2.28,2.28,0,0,1,0,3.29,3.45,3.45,0,0,1-2.32.62H485v23.55H515.1V115.34h-6.05a3.45,3.45,0,0,1-2.32-.62,2.08,2.08,0,0,1-.7-1.65,2.11,2.11,0,0,1,.67-1.64,3.43,3.43,0,0,1,2.35-.63H522.5a3.57,3.57,0,0,1,2.38.63,2.28,2.28,0,0,1,0,3.29,3.58,3.58,0,0,1-2.38.62h-2.81v54.12h5.13a3.5,3.5,0,0,1,2.32.62,2.26,2.26,0,0,1,0,3.27,3.39,3.39,0,0,1-2.32.65H509.05a3.39,3.39,0,0,1-2.32-.65,2.1,2.1,0,0,1-.7-1.62,2.15,2.15,0,0,1,.67-1.65,3.49,3.49,0,0,1,2.35-.62h6.05Z"/><path class="cls-2" d="M621.88,136.83a12.79,12.79,0,0,1,.72-4.26,11.22,11.22,0,0,1,2-3.59,9.43,9.43,0,0,1,3.32-2.44,11.55,11.55,0,0,1,4.65-.88,13.67,13.67,0,0,1,2.65.28,17.76,17.76,0,0,1,2.66.71,13.38,13.38,0,0,0,6.3-4.42A11.6,11.6,0,0,0,647,114.6a12.88,12.88,0,0,0-1.22-5.64,10.93,10.93,0,0,0-3.93-4.37,21.6,21.6,0,0,0-7.07-2.88,46.53,46.53,0,0,0-10.68-1,56,56,0,0,0-19.41,3.15A47.91,47.91,0,0,0,590.13,112,35.21,35.21,0,0,0,581,123.45a28.74,28.74,0,0,0-3.16,12.83,17.6,17.6,0,0,0,.61,4.75,11.68,11.68,0,0,0,1.82,3.88,21.92,21.92,0,0,1-3,.44c-1,.07-2,.11-2.94.11a21.3,21.3,0,0,1-5.47-.66,12.43,12.43,0,0,1-4.37-2.11,9.58,9.58,0,0,1-2.93-3.7,13,13,0,0,1-1-5.48q0-8.07,5.14-16.26a54.19,54.19,0,0,1,14.27-14.82,78.71,78.71,0,0,1,21.63-10.79,85.65,85.65,0,0,1,27.09-4.14,82.24,82.24,0,0,1,16.54,1.44,33.89,33.89,0,0,1,11.28,4.2,17.27,17.27,0,0,1,6.42,6.8,19.85,19.85,0,0,1,2,9.13A18.43,18.43,0,0,1,660.59,121a30,30,0,0,1-11.94,8.52c-.89.3-1.33.81-1.33,1.55a20.23,20.23,0,0,1,7.19,7.41,19.45,19.45,0,0,1,2.21,9.18,19,19,0,0,1-2.21,8.74,30.32,30.32,0,0,1-6.14,8.07,46.68,46.68,0,0,1-9.13,6.75,48.39,48.39,0,0,1-11.17,4.65,72.11,72.11,0,0,1-7.35-.5l-10-1.11q-5.43-.6-11.12-1.1t-10.68-.5a81.64,81.64,0,0,0-11.61.77q-5.31.78-7.52,2.11a8.08,8.08,0,0,1-.33-1.72,16.9,16.9,0,0,1-.11-1.93q.1-6,5.41-10.12t15.38-4.15c1.48,0,3,.05,4.7.16s3.08.24,4.26.39a2.15,2.15,0,0,0-.33-1.44,51.27,51.27,0,0,1-3.76-5,7.58,7.58,0,0,1-1.22-4.15l7.3-20.91c.88-2.58,1.57-4.9,2-7a24.46,24.46,0,0,0,.72-5.42,8.29,8.29,0,0,0-.45-2.88,47.14,47.14,0,0,1,7.14-3,20.33,20.33,0,0,1,5.92-1.1q5.85,0,5.86,6.52a34.21,34.21,0,0,1-1.16,7.64,68.75,68.75,0,0,1-3.82,10.84l-11.72,26.76c1.91.3,4,.69,6.36,1.17s4.61.94,6.86,1.38,4.35.81,6.3,1.11a33.36,33.36,0,0,0,4.59.44,14.53,14.53,0,0,0,6.58-5.09,13.6,13.6,0,0,0,2.6-8.3,10.6,10.6,0,0,0-4.42-8.74Q630.06,137.61,621.88,136.83Z"/><path class="cls-2" d="M727.07,144.91a10.45,10.45,0,0,1,.17,1.1,10.31,10.31,0,0,1,0,1.11,11.27,11.27,0,0,1-2.65,7.19,97.55,97.55,0,0,1-8.08,9.46,74,74,0,0,1-7.08,6.41,35.52,35.52,0,0,1-5.64,3.71A9.38,9.38,0,0,1,700,175.1a10.62,10.62,0,0,1-5-1.32,8.4,8.4,0,0,1-3.71-3.88,12.36,12.36,0,0,1,.33-2.76,28.51,28.51,0,0,1,1.11-3.48q.76-2.06,2.16-5t3.59-7.36a2.55,2.55,0,0,0-2.32.89q-5.21,7-8.9,11.39t-6.37,7a20.51,20.51,0,0,1-4.42,3.54,6.77,6.77,0,0,1-3.1.94,11.31,11.31,0,0,1-8.24-4.81,17.69,17.69,0,0,1-2.93-10.45,40.69,40.69,0,0,1,3-15.82,46.28,46.28,0,0,1,7.69-12.66A37.26,37.26,0,0,1,683.05,123a21.86,21.86,0,0,1,10.51-3,15,15,0,0,1,6.58,1.32,19.93,19.93,0,0,1,5.69,4.65,35.21,35.21,0,0,1,7.36-4,15.37,15.37,0,0,1,4.7-1.16,3.78,3.78,0,0,1,3.32,1.88q-.56,2.1-1.55,5.26t-2.16,6.63q-1.15,3.5-2.38,7c-.81,2.36-1.54,4.57-2.21,6.63s-1.23,3.87-1.71,5.42a20.54,20.54,0,0,0-.83,3.32q0,1.11,1.44,1.11a4.11,4.11,0,0,0,1.54-.56,17.68,17.68,0,0,0,3-2c1.25-1,2.76-2.34,4.54-4S724.71,147.49,727.07,144.91Zm-25.55-12.06c-2.06-1.92-4-2.88-5.86-2.88-1.63,0-3.43.85-5.42,2.55A31,31,0,0,0,684.6,139a42.78,42.78,0,0,0-4.43,8.69,25.54,25.54,0,0,0-1.77,9,3.67,3.67,0,0,0,.67,2.38,2,2,0,0,0,1.65.83c.67,0,1.79-.77,3.38-2.32a64.21,64.21,0,0,0,5.36-6.14q3-3.83,6.2-8.69A112.62,112.62,0,0,0,701.52,132.85Z"/><path class="cls-2" d="M734.48,132.85a21.39,21.39,0,0,1,5.37-10.9,15.37,15.37,0,0,1,4.2-3.2,9.91,9.91,0,0,1,4.59-1.17,5.71,5.71,0,0,1,4,1.5,6.92,6.92,0,0,1,2.1,4.26,14.84,14.84,0,0,1-2.1,3.09c-.88,1-1.84,2.07-2.88,3.1a16.78,16.78,0,0,0,1.44,5q1.22,2.76,2.55,5.92a67.89,67.89,0,0,1,2.38,6.63,25,25,0,0,1,1,7.25,13.45,13.45,0,0,1-2.44,7.47,29.08,29.08,0,0,1-6.14,6.69,33,33,0,0,1-8.13,4.81,22,22,0,0,1-8.4,1.82,25.35,25.35,0,0,1-7.36-1,21.4,21.4,0,0,1-5.59-2.55,12.25,12.25,0,0,1-3.59-3.54,7.3,7.3,0,0,1-1.27-4,16.51,16.51,0,0,1,.83-5.31,18.55,18.55,0,0,1,2.82-5.09c.59-.73,1.55-1.86,2.88-3.37s2.78-3.22,4.36-5.14,3.23-3.95,4.93-6.09A69.65,69.65,0,0,0,734.48,132.85Zm2.11,9.4c-.74,1-1.69,2.21-2.83,3.54s-2.37,2.71-3.7,4.15-2.71,2.89-4.15,4.37-2.78,2.87-4,4.2a20.75,20.75,0,0,0,5.86,5.31A12.36,12.36,0,0,0,734,165.7a6.27,6.27,0,0,0,4.59-1.93q1.93-1.94,1.94-5.81a19,19,0,0,0-.45-4,39.61,39.61,0,0,0-1.1-4.15c-.44-1.37-.89-2.69-1.33-4S736.88,143.36,736.59,142.25Z"/><path class="cls-2" d="M813.35,143.69a12.26,12.26,0,0,1,.22,2.43,14.64,14.64,0,0,1-.94,4.15,15.49,15.49,0,0,1-2,3.93q-7.74,10.4-15.7,15.65a29.4,29.4,0,0,1-16.37,5.25q-9.07,0-13.61-4.64t-4.53-12.39a27.47,27.47,0,0,1,.66-5.81,47.45,47.45,0,0,1,1.55-5.58,46,46,0,0,1,5.53-11,42.37,42.37,0,0,1,7.58-8.46,34.24,34.24,0,0,1,8.73-5.42,23.37,23.37,0,0,1,9.13-1.93q6.86,0,10.46,2.93A9.92,9.92,0,0,1,807.6,131a11.19,11.19,0,0,1-.66,3.59,14,14,0,0,1-1.77,3.49,16.91,16.91,0,0,1-2.94,2.6,60.46,60.46,0,0,1-5.86,3.81q-3.6,2.11-8.41,4.43a100.85,100.85,0,0,1-10.45,4.31,10.32,10.32,0,0,0-.16,1.33c0,.52-.06,1.07-.06,1.66a6.74,6.74,0,0,0,1.88,4.92q1.88,1.94,6.08,1.94,4.77,0,11.84-4.43T813.35,143.69Zm-23.56-14.93a3.61,3.61,0,0,0-1.88.94,13.19,13.19,0,0,0-2.66,3,40.81,40.81,0,0,0-3,5.31,51.86,51.86,0,0,0-2.88,7.63,76.85,76.85,0,0,0,8.63-4.42,23,23,0,0,0,4.43-3.32,7.26,7.26,0,0,0,1.54-4.76Q794,128.76,789.79,128.76Z"/><path class="cls-3" d="M14.71,16.24l4.94-4.86L224,219.19l-4.94,4.86Z"/><path class="cls-4" d="M17.24,26A12.28,12.28,0,0,1,5.11,13.86,12.29,12.29,0,0,1,17.24,1.73,12.28,12.28,0,0,1,29.37,13.86,12.27,12.27,0,0,1,17.24,26Z"/><path class="cls-5" d="M17.24,3.47a10.21,10.21,0,0,1,10.4,10.39,10.22,10.22,0,0,1-10.4,10.4,10.22,10.22,0,0,1-10.4-10.4A10.21,10.21,0,0,1,17.24,3.47m0-3.47A13.86,13.86,0,1,0,31.1,13.86,13.9,13.9,0,0,0,17.24,0Z"/><path class="cls-4" d="M131.6,261.64A129.39,129.39,0,0,1,40.11,40.2,133.84,133.84,0,0,1,60.56,23.57L73,36A114.52,114.52,0,0,0,52.59,52.33,112.6,112.6,0,1,0,211.65,211.74l1.39-1.39,12.13,12.48-1.39,1.39a131.45,131.45,0,0,1-92.18,37.42Z"/><path class="cls-5" d="M60.21,25.64l9.71,10A136.29,136.29,0,0,0,50.86,50.94c-21.49,21.83-33.62,50.6-33.62,80.75s12.13,58.91,33.62,80.74a114.19,114.19,0,0,0,161.49.35h0l9.7,10.05h0a127.08,127.08,0,0,1-90.45,37.08,126.56,126.56,0,0,1-90.45-37.43A127.47,127.47,0,0,1,3.38,132c0-34,13.51-66.19,37.77-90.79a138.44,138.44,0,0,1,19.06-15.6m.35-4.5A128.14,128.14,0,0,0,38.73,38.81c-51.64,52-51.64,134.46,0,186.1a131.76,131.76,0,0,0,186.09,0l2.43-2.43-14.56-14.9c-.69,1-1.73,1.73-2.42,2.77a111.81,111.81,0,0,1-78.67,32.23A110.89,110.89,0,0,1,53.28,53.37,116.27,116.27,0,0,1,75.46,36l-14.9-14.9Z"/><path class="cls-6" d="M131.41,38.76a93,93,0,1,0,93,93A93,93,0,0,0,131.41,38.76Z"/><path class="cls-7" d="M170,87.59l-9.31,7a5.26,5.26,0,0,0-1.39,5.12l4.18,5.11a4.67,4.67,0,0,1-2.32,5.12c-2.33,1.39-7.91,4.18-7.91,5.58,0,3.25,2.33,11.16,4.19,11.16,14.42,0,5.58-6.51,15.81-13,6.05-3.72,15.81-5.58,18.14-5.58h9.3v65.1H168.15s5.58,8.84,10.69,18.61c2.33,4.65,7.91,13.95,7.91,13.95a92.8,92.8,0,0,0,.93-147.89L174.19,81.55A11.77,11.77,0,0,1,170,87.59ZM85.37,136.43c4.18,0,4.18-3.73,4.18-9.31s-.93-14,14-14c6,0,14,0,14-9.3V80.62c0-1.4-.46-7.44-9.76-7.44-7.91,0-14-1.4-14-7,0-4.18,3.25-14,9.76-22.79a92.36,92.36,0,0,0-64.17,76.74l-.93,7H75.6C82.58,127.12,81.18,136.43,85.37,136.43Zm41.39,27.9c-5.58,0-9.31,0-15.82-7.91-2.79-2.79-7-6-10.23-6H89.55L84.9,155l9.3,32.55v29.3c4.65,1.86,9.3,3.72,14,5.11,1.86-14.41,13-31.62,14-34.41.93-1.86,4.65-10.7,4.65-10.7Z"/><path class="cls-8" d="M191.86,108.52s4.65,4.65,4.65,18.6c0,4.65-9.3,9.31-23.25,9.31C150,136.43,150,149.91,150,155c0,16.74,18.6,18.6,18.6,18.6s18.6,0,32.55,18.6l.47.47A92.92,92.92,0,0,0,213.26,87.59l-1.4-2.32h-1.39C196.51,85.27,197.91,103.87,191.86,108.52ZM47.7,131.77c2.79,5.59,9.76,10.7,15.34,14.89,3.72,2.79,17.21,8.37,17.21,17.67,0,15.81,9.3,32.55,9.3,41.85v8.37l9.3,4.19v-7.91c0-14,15.81-23.25,23.26-23.25,0,0,9.3-.93,9.3-16.28,0-1.86-1.86-7-4.65-7,0,0-2.33,9.3-20,9.3-9.3,0-17.67-5.12-17.67-23.25H80.25c-2.79,0-5.11-3.72-5.11-6s-.47-3.25-4.19-3.25c-2.79,0-4.65-1.4-4.65-3.72V132.7c0-2.79,2.32-6,9.3-6,0-8.37-9.3-14-9.3-20.93,0-6.51-4.65-16.28-13.95-20.93L51,84.34s-9.76,16.74-11.62,34.88Z"/><path class="cls-9" d="M131.41,229.44a97.67,97.67,0,1,1,97.66-97.67A97.65,97.65,0,0,1,131.41,229.44Zm0-181.37a83.71,83.71,0,1,0,83.71,83.7A83.95,83.95,0,0,0,131.41,48.07Z"/></g></g></svg>