<svg xmlns="http://www.w3.org/2000/svg" viewBox="0 0 538.44 88.38"><defs><style>.cls-1{fill:#e65100;}.cls-2{fill:#1976d2;}</style></defs><g id="Layer_2" data-name="Layer 2"><g id="Layer_1-2" data-name="Layer 1"><path class="cls-1" d="M27.71,27.84V82H39.48a3.5,3.5,0,0,1,2.32.62,2.24,2.24,0,0,1,0,3.27,3.39,3.39,0,0,1-2.32.65H11.34A3.39,3.39,0,0,1,9,85.85a2.26,2.26,0,0,1,0-3.27A3.5,3.5,0,0,1,11.34,82H23.12V27.84H4.54V43.56a3.61,3.61,0,0,1-.62,2.38,2.1,2.1,0,0,1-1.65.7,2.1,2.1,0,0,1-1.62-.7A3.49,3.49,0,0,1,0,43.56V23.31H50.82V43.56a3.56,3.56,0,0,1-.62,2.38,2.28,2.28,0,0,1-3.29,0,3.56,3.56,0,0,1-.62-2.38V27.84Z"/><path class="cls-1" d="M77.07,56V82H112V68.57a3.43,3.43,0,0,1,.63-2.32,2.26,2.26,0,0,1,3.29,0,3.48,3.48,0,0,1,.62,2.32V86.5H66.43a3.39,3.39,0,0,1-2.32-.65,2.26,2.26,0,0,1,0-3.27A3.5,3.5,0,0,1,66.43,82h6.11V27.84H66.43a3.45,3.45,0,0,1-2.32-.62,2.28,2.28,0,0,1,0-3.29,3.5,3.5,0,0,1,2.32-.62h47.69V38.92a3.51,3.51,0,0,1-.61,2.32,2.1,2.1,0,0,1-1.65.7,2.08,2.08,0,0,1-1.65-.7,3.45,3.45,0,0,1-.62-2.32V27.84H77.07V51.45H93.33V46.32A3.41,3.41,0,0,1,94,44a2.2,2.2,0,0,1,1.67-.7,2.17,2.17,0,0,1,1.63.7,3.42,3.42,0,0,1,.64,2.33V61.11a3.42,3.42,0,0,1-.64,2.33,2.13,2.13,0,0,1-1.63.7,2.16,2.16,0,0,1-1.67-.7,3.41,3.41,0,0,1-.65-2.33V56Z"/><path class="cls-1" d="M178.18,29.52V26.33A3.5,3.5,0,0,1,178.8,24a2.1,2.1,0,0,1,1.65-.7,2.08,2.08,0,0,1,1.65.7,3.5,3.5,0,0,1,.62,2.32V38.92a3.58,3.58,0,0,1-.62,2.37,2.08,2.08,0,0,1-1.65.71,2.05,2.05,0,0,1-1.54-.65,3.4,3.4,0,0,1-.73-2.11q-.27-4.53-4.91-8A22.83,22.83,0,0,0,159,26.39a21.82,21.82,0,0,0-9.89,2.32,16.44,16.44,0,0,0-5.5,4.1A34.75,34.75,0,0,0,138,42.16a22.75,22.75,0,0,0-1.52,8.53v7.94a24.35,24.35,0,0,0,7.35,17.64q7.35,7.47,17.07,7.48a21.36,21.36,0,0,0,10.45-2.54,32.34,32.34,0,0,0,8.93-7.67,2.65,2.65,0,0,1,2.06-1.14,2.12,2.12,0,0,1,1.57.6,2.06,2.06,0,0,1,.59,1.51c0,.83-.78,2.09-2.32,3.78a29.9,29.9,0,0,1-10,7.48A26.78,26.78,0,0,1,161,88.28a28.55,28.55,0,0,1-10-1.89,24.78,24.78,0,0,1-6.43-3.4,40.08,40.08,0,0,1-6.23-6.56,29.76,29.76,0,0,1-5.06-8.54,26.53,26.53,0,0,1-1.34-8.61V50a29.78,29.78,0,0,1,3.59-13.69,26.16,26.16,0,0,1,9.83-10.75,25.8,25.8,0,0,1,13.53-3.75A27.15,27.15,0,0,1,178.18,29.52Z"/><path class="cls-1" d="M240,55.93H209.88V82H216a3.5,3.5,0,0,1,2.32.62,2.26,2.26,0,0,1,0,3.27,3.39,3.39,0,0,1-2.32.65H200.22a3.41,3.41,0,0,1-2.33-.65,2.28,2.28,0,0,1,0-3.27,3.53,3.53,0,0,1,2.33-.62h5.13V27.84h-2.81a3.58,3.58,0,0,1-2.38-.62,2.28,2.28,0,0,1,0-3.29,3.63,3.63,0,0,1,2.38-.62H216a3.5,3.5,0,0,1,2.32.62,2.28,2.28,0,0,1,0,3.29,3.45,3.45,0,0,1-2.32.62h-6.11V51.39H240V27.84h-6.05a3.45,3.45,0,0,1-2.32-.62,2.07,2.07,0,0,1-.7-1.64,2.12,2.12,0,0,1,.67-1.65,3.5,3.5,0,0,1,2.35-.62h13.45a3.63,3.63,0,0,1,2.38.62,2.28,2.28,0,0,1,0,3.29,3.58,3.58,0,0,1-2.38.62h-2.81V82h5.13a3.53,3.53,0,0,1,2.33.62,2.28,2.28,0,0,1,0,3.27,3.41,3.41,0,0,1-2.33.65H233.92a3.39,3.39,0,0,1-2.32-.65,2.1,2.1,0,0,1-.7-1.62,2.15,2.15,0,0,1,.67-1.65,3.5,3.5,0,0,1,2.35-.62H240Z"/><path class="cls-2" d="M346.75,49.33a12.69,12.69,0,0,1,.72-4.25,11,11,0,0,1,2-3.6,9.25,9.25,0,0,1,3.31-2.43,11.38,11.38,0,0,1,4.65-.89,13.67,13.67,0,0,1,2.65.28,16.34,16.34,0,0,1,2.66.72,13.48,13.48,0,0,0,6.3-4.43,11.53,11.53,0,0,0,2.77-7.63,13,13,0,0,0-1.22-5.64,11,11,0,0,0-3.93-4.37,21.82,21.82,0,0,0-7.07-2.88A46.53,46.53,0,0,0,349,13.16a56,56,0,0,0-19.41,3.15A48.33,48.33,0,0,0,315,24.5,35.31,35.31,0,0,0,305.88,36a28.93,28.93,0,0,0-3.16,12.83,17.73,17.73,0,0,0,.61,4.76,11.54,11.54,0,0,0,1.83,3.87,22.28,22.28,0,0,1-3,.44c-1,.08-2,.11-2.93.11a21.33,21.33,0,0,1-5.48-.66,12.24,12.24,0,0,1-4.37-2.1,9.69,9.69,0,0,1-2.93-3.71A13,13,0,0,1,285.36,46q0-8.09,5.14-16.27a54.33,54.33,0,0,1,14.27-14.82A78.41,78.41,0,0,1,326.4,4.15,85.38,85.38,0,0,1,353.5,0,82.2,82.2,0,0,1,370,1.44a34.26,34.26,0,0,1,11.29,4.2,17.38,17.38,0,0,1,6.41,6.8,19.88,19.88,0,0,1,2,9.13,18.46,18.46,0,0,1-4.32,12A29.86,29.86,0,0,1,373.52,42c-.89.3-1.33.82-1.33,1.55A20.23,20.23,0,0,1,379.38,51a19.51,19.51,0,0,1,2.21,9.18,19,19,0,0,1-2.21,8.74A30.52,30.52,0,0,1,373.24,77a47.05,47.05,0,0,1-9.13,6.74,48,48,0,0,1-11.17,4.65,72.29,72.29,0,0,1-7.35-.5l-10-1.1q-5.43-.61-11.12-1.11c-3.8-.33-7.35-.5-10.68-.5a80.13,80.13,0,0,0-11.61.78q-5.31.76-7.52,2.1a8,8,0,0,1-.33-1.72,16.9,16.9,0,0,1-.11-1.93q.1-6,5.41-10.12T315,70.13c1.48,0,3,.05,4.7.17s3.08.24,4.26.38a2.19,2.19,0,0,0-.33-1.44,51.27,51.27,0,0,1-3.76-5,7.58,7.58,0,0,1-1.22-4.15l7.3-20.9a71.1,71.1,0,0,0,2.05-7,24.39,24.39,0,0,0,.72-5.42,8.29,8.29,0,0,0-.45-2.88,46.05,46.05,0,0,1,7.14-3,20.06,20.06,0,0,1,5.92-1.11q5.85,0,5.86,6.53A34.22,34.22,0,0,1,346,34a68.75,68.75,0,0,1-3.82,10.84L330.49,71.57c1.91.29,4,.68,6.36,1.16s4.61.94,6.86,1.38,4.35.81,6.3,1.11a33.5,33.5,0,0,0,4.59.44,14.53,14.53,0,0,0,6.58-5.09,13.58,13.58,0,0,0,2.6-8.29,10.59,10.59,0,0,0-4.42-8.74Q354.94,50.11,346.75,49.33Z"/><path class="cls-2" d="M451.94,57.41a10.64,10.64,0,0,1,.17,1.11,10,10,0,0,1,.05,1.1,11.27,11.27,0,0,1-2.65,7.19,96.18,96.18,0,0,1-8.08,9.46,71.41,71.41,0,0,1-7.08,6.41,35.52,35.52,0,0,1-5.64,3.71,9.42,9.42,0,0,1-3.87,1.22,10.63,10.63,0,0,1-5-1.33,8.43,8.43,0,0,1-3.71-3.87,12.37,12.37,0,0,1,.33-2.77,28.51,28.51,0,0,1,1.11-3.48c.52-1.37,1.23-3,2.16-5s2.12-4.41,3.59-7.36a2.55,2.55,0,0,0-2.32.89q-5.21,7-8.9,11.39t-6.37,7a21.16,21.16,0,0,1-4.42,3.54,6.89,6.89,0,0,1-3.1.94,11.37,11.37,0,0,1-8.24-4.82A17.69,17.69,0,0,1,387,72.34a40.87,40.87,0,0,1,3-15.82,46.83,46.83,0,0,1,7.69-12.66,37.26,37.26,0,0,1,10.18-8.41,21.86,21.86,0,0,1,10.51-3A14.82,14.82,0,0,1,425,33.74a19.7,19.7,0,0,1,5.69,4.64,35.36,35.36,0,0,1,7.36-4,15.22,15.22,0,0,1,4.7-1.17,3.78,3.78,0,0,1,3.32,1.88q-.56,2.11-1.55,5.26T442.38,47q-1.17,3.48-2.38,7c-.82,2.36-1.55,4.57-2.22,6.64s-1.23,3.87-1.71,5.42a20,20,0,0,0-.83,3.32c0,.73.48,1.1,1.44,1.1a4.31,4.31,0,0,0,1.55-.55,19,19,0,0,0,3-2q1.89-1.48,4.54-4T451.94,57.41ZM426.39,45.35c-2.06-1.91-4-2.87-5.86-2.87-1.63,0-3.43.84-5.42,2.54a31,31,0,0,0-5.64,6.53A42.7,42.7,0,0,0,405,60.23a25.54,25.54,0,0,0-1.77,9,3.67,3.67,0,0,0,.67,2.38,2,2,0,0,0,1.66.83c.66,0,1.78-.77,3.37-2.32A64.21,64.21,0,0,0,414.33,64q3-3.81,6.2-8.68A114.24,114.24,0,0,0,426.39,45.35Z"/><path class="cls-2" d="M459.35,45.35a21.06,21.06,0,0,1,2-6,20.66,20.66,0,0,1,3.38-4.86,15.37,15.37,0,0,1,4.2-3.21,9.89,9.89,0,0,1,4.59-1.16,5.71,5.71,0,0,1,4,1.49,7,7,0,0,1,2.11,4.26,15.64,15.64,0,0,1-2.11,3.1c-.88,1-1.84,2.06-2.87,3.09a16.44,16.44,0,0,0,1.43,5c.82,1.85,1.66,3.82,2.55,5.92A67.16,67.16,0,0,1,481,59.57a24.91,24.91,0,0,1,1,7.24,13.51,13.51,0,0,1-2.43,7.47A29.35,29.35,0,0,1,473.45,81a33,33,0,0,1-8.13,4.81,22,22,0,0,1-8.4,1.83,25.34,25.34,0,0,1-7.36-1A21.17,21.17,0,0,1,444,84.07a12.41,12.41,0,0,1-3.6-3.54,7.35,7.35,0,0,1-1.27-4,16.41,16.41,0,0,1,.83-5.3,18.41,18.41,0,0,1,2.82-5.09c.59-.74,1.55-1.86,2.88-3.38s2.78-3.22,4.36-5.14,3.23-3.94,4.93-6.08A71.21,71.21,0,0,0,459.35,45.35Zm2.11,9.4q-1.11,1.56-2.83,3.54t-3.7,4.15q-2,2.16-4.15,4.37c-1.44,1.48-2.78,2.88-4,4.2a20.75,20.75,0,0,0,5.86,5.31,12.36,12.36,0,0,0,6.31,1.88,6.27,6.27,0,0,0,4.59-1.93q1.94-1.93,1.94-5.81a19,19,0,0,0-.45-4,40.27,40.27,0,0,0-1.1-4.15c-.44-1.36-.89-2.69-1.33-4S461.75,55.86,461.46,54.75Z"/><path class="cls-2" d="M538.22,56.19a12.26,12.26,0,0,1,.22,2.43,14.3,14.3,0,0,1-.94,4.15,15.63,15.63,0,0,1-2,3.93Q527.7,77.1,519.75,82.35a29.34,29.34,0,0,1-16.37,5.26q-9.08,0-13.61-4.65t-4.53-12.39a27.47,27.47,0,0,1,.66-5.81,48.56,48.56,0,0,1,1.55-5.58,46.14,46.14,0,0,1,5.53-11,41.83,41.83,0,0,1,7.58-8.46,34,34,0,0,1,8.73-5.42,23.39,23.39,0,0,1,9.13-1.94q6.86,0,10.46,2.93a9.94,9.94,0,0,1,3.59,8.13,11.2,11.2,0,0,1-.66,3.6A13.89,13.89,0,0,1,530,50.55a16.71,16.71,0,0,1-2.93,2.6A61.88,61.88,0,0,1,521.24,57q-3.6,2.1-8.41,4.42a100,100,0,0,1-10.45,4.31,10.55,10.55,0,0,0-.16,1.33c0,.52-.06,1.07-.06,1.66A6.78,6.78,0,0,0,504,73.61c1.26,1.3,3.28,1.94,6.08,1.94q4.77,0,11.84-4.43T538.22,56.19ZM514.66,41.26a3.61,3.61,0,0,0-1.88.94,13.41,13.41,0,0,0-2.66,3,40.81,40.81,0,0,0-3,5.31,51.86,51.86,0,0,0-2.88,7.63,75.2,75.2,0,0,0,8.63-4.42,23,23,0,0,0,4.43-3.32,7.24,7.24,0,0,0,1.54-4.76Q518.86,41.26,514.66,41.26Z"/></g></g></svg>