<svg xmlns="http://www.w3.org/2000/svg" xmlns:xlink="http://www.w3.org/1999/xlink" viewBox="0 0 448.77 324.21"><defs><style>.cls-1{isolation:isolate;}.cls-2{fill:url(#linear-gradient);}.cls-3{fill:#fafafa;}.cls-4{fill:url(#linear-gradient-2);}.cls-5{fill:url(#linear-gradient-3);}.cls-6{fill:url(#linear-gradient-4);}.cls-7{fill:url(#linear-gradient-5);}.cls-8{fill:url(#linear-gradient-6);}.cls-9{fill:url(#linear-gradient-7);}.cls-10{fill:url(#linear-gradient-8);}.cls-11{fill:url(#linear-gradient-9);}.cls-12{fill:url(#linear-gradient-10);}.cls-13{fill:url(#linear-gradient-11);}.cls-14{fill:url(#linear-gradient-12);}.cls-15{fill:url(#linear-gradient-13);}.cls-16{fill:url(#linear-gradient-14);}.cls-17{fill:url(#linear-gradient-15);}.cls-18,.cls-26,.cls-28,.cls-46,.cls-47,.cls-48,.cls-49,.cls-50,.cls-94{fill:none;}.cls-18{stroke:#ad1457;stroke-width:0.33px;}.cls-18,.cls-26,.cls-28,.cls-46,.cls-47,.cls-48,.cls-49,.cls-50{stroke-linecap:round;stroke-linejoin:round;}.cls-19{fill:url(#linear-gradient-16);}.cls-20{fill:url(#linear-gradient-17);}.cls-21{fill:url(#linear-gradient-18);}.cls-22{fill:url(#linear-gradient-19);}.cls-23{fill:url(#linear-gradient-20);}.cls-24{fill:url(#linear-gradient-21);}.cls-25{fill:url(#linear-gradient-22);}.cls-26,.cls-28{stroke:#fff;}.cls-26{stroke-width:0.3px;}.cls-27{fill:url(#linear-gradient-23);}.cls-28{stroke-width:0.26px;}.cls-29{fill:url(#linear-gradient-24);}.cls-30{fill:url(#linear-gradient-25);}.cls-31{fill:url(#linear-gradient-26);}.cls-32{fill:#7adfee;}.cls-33{fill:url(#linear-gradient-27);}.cls-34{fill:url(#linear-gradient-28);}.cls-35{opacity:0.05;mix-blend-mode:multiply;}.cls-36{fill:url(#linear-gradient-29);}.cls-37{fill:url(#linear-gradient-30);}.cls-38{fill:url(#linear-gradient-31);}.cls-39{fill:url(#linear-gradient-32);}.cls-40{fill:url(#linear-gradient-33);}.cls-41{fill:url(#linear-gradient-34);}.cls-42{fill:url(#linear-gradient-35);}.cls-43{fill:url(#linear-gradient-36);}.cls-44{fill:url(#linear-gradient-37);}.cls-45{fill:url(#linear-gradient-38);}.cls-46,.cls-47,.cls-48,.cls-49,.cls-50{stroke:#283593;stroke-width:1.02px;}.cls-47{stroke-dasharray:3.14 5.23;}.cls-48{stroke-dasharray:3.22 5.36;}.cls-49{stroke-dasharray:3.06 5.09;}.cls-50{stroke-dasharray:2.94 4.9;}.cls-51{fill:url(#linear-gradient-39);}.cls-52{fill:url(#linear-gradient-40);}.cls-53{fill:url(#linear-gradient-41);}.cls-54{fill:url(#linear-gradient-42);}.cls-55{fill:url(#linear-gradient-43);}.cls-56{fill:url(#linear-gradient-44);}.cls-57{fill:url(#linear-gradient-45);}.cls-58{fill:url(#linear-gradient-46);}.cls-59{fill:url(#linear-gradient-47);}.cls-60{fill:url(#linear-gradient-48);}.cls-61{fill:url(#linear-gradient-49);}.cls-62{fill:url(#linear-gradient-50);}.cls-63{fill:url(#linear-gradient-51);}.cls-64{fill:url(#linear-gradient-52);}.cls-65{fill:url(#linear-gradient-53);}.cls-66{fill:url(#linear-gradient-54);}.cls-67{fill:url(#linear-gradient-55);}.cls-68{fill:url(#linear-gradient-56);}.cls-69{fill:url(#linear-gradient-57);}.cls-70{fill:url(#linear-gradient-58);}.cls-71{fill:url(#linear-gradient-59);}.cls-72{fill:url(#linear-gradient-60);}.cls-73{fill:url(#linear-gradient-61);}.cls-74{fill:url(#linear-gradient-62);}.cls-75{fill:url(#linear-gradient-63);}.cls-76{fill:url(#linear-gradient-64);}.cls-77{fill:url(#linear-gradient-65);}.cls-78{fill:url(#linear-gradient-66);}.cls-79{fill:url(#linear-gradient-67);}.cls-80{fill:url(#linear-gradient-68);}.cls-81{fill:url(#linear-gradient-69);}.cls-82{fill:url(#linear-gradient-70);}.cls-83{fill:url(#linear-gradient-71);}.cls-84{fill:url(#linear-gradient-72);}.cls-85{fill:url(#linear-gradient-73);}.cls-86{fill:url(#linear-gradient-74);}.cls-87{fill:url(#linear-gradient-75);}.cls-88{fill:url(#linear-gradient-76);}.cls-89{fill:url(#linear-gradient-77);}.cls-90{fill:url(#linear-gradient-78);}.cls-91{fill:url(#linear-gradient-79);}.cls-92{fill:url(#linear-gradient-80);}.cls-93{mix-blend-mode:overlay;}.cls-94{stroke:#fce4ec;stroke-miterlimit:10;stroke-width:0.51px;}.cls-95{fill:url(#linear-gradient-81);}.cls-96{fill:url(#linear-gradient-82);}.cls-143,.cls-97{fill:#fff;}.cls-98{fill:url(#linear-gradient-83);}.cls-99{fill:#ff786f;}.cls-100{fill:url(#linear-gradient-84);}.cls-101{fill:url(#linear-gradient-85);}.cls-102{fill:url(#linear-gradient-86);}.cls-103{fill:#0476f2;}.cls-104{fill:url(#linear-gradient-87);}.cls-105{fill:#ff2a94;}.cls-106{fill:url(#linear-gradient-88);}.cls-107{fill:url(#linear-gradient-89);}.cls-108{fill:url(#linear-gradient-90);}.cls-109{fill:url(#linear-gradient-91);}.cls-110{fill:url(#linear-gradient-92);}.cls-111{fill:#e0e0e0;}.cls-112{fill:#bdbdbd;}.cls-113{fill:url(#linear-gradient-93);}.cls-114{fill:url(#linear-gradient-94);}.cls-115{fill:url(#linear-gradient-95);}.cls-116{fill:url(#linear-gradient-96);}.cls-117{fill:url(#linear-gradient-97);}.cls-118{fill:url(#linear-gradient-98);}.cls-119{fill:url(#linear-gradient-99);}.cls-120{fill:url(#linear-gradient-100);}.cls-121{fill:url(#linear-gradient-101);}.cls-122{fill:url(#linear-gradient-102);}.cls-123{fill:url(#linear-gradient-103);}.cls-124{fill:url(#linear-gradient-104);}.cls-125{fill:url(#linear-gradient-105);}.cls-126{fill:url(#linear-gradient-106);}.cls-127{fill:url(#linear-gradient-107);}.cls-128{fill:url(#linear-gradient-108);}.cls-129{fill:url(#linear-gradient-109);}.cls-130{fill:url(#linear-gradient-110);}.cls-131{fill:url(#linear-gradient-111);}.cls-132{fill:url(#linear-gradient-112);}.cls-133{fill:url(#linear-gradient-113);}.cls-134{fill:url(#linear-gradient-114);}.cls-135{fill:url(#linear-gradient-115);}.cls-136{fill:url(#linear-gradient-116);}.cls-137{fill:url(#linear-gradient-117);}.cls-138{fill:url(#linear-gradient-118);}.cls-139{fill:url(#linear-gradient-119);}.cls-140{fill:url(#linear-gradient-120);}.cls-141{fill:url(#linear-gradient-121);}.cls-142{fill:url(#linear-gradient-122);}.cls-143{opacity:0.45;}.cls-144{fill:#757575;}.cls-145{fill:#e65100;}.cls-146{fill:#1976d2;}</style><linearGradient id="linear-gradient" x1="-41.74" y1="38.52" x2="451.71" y2="291.96" gradientUnits="userSpaceOnUse"><stop offset="0.01" stop-color="#dbf3f7"/><stop offset="1" stop-color="#9de6f1"/></linearGradient><linearGradient id="linear-gradient-2" x1="211.76" y1="109.65" x2="211.76" y2="94.46" gradientUnits="userSpaceOnUse"><stop offset="0.01" stop-color="#0dc7f0"/><stop offset="0.99" stop-color="#023574"/></linearGradient><linearGradient id="linear-gradient-3" x1="195.66" y1="97.8" x2="195.67" y2="97.8" gradientUnits="userSpaceOnUse"><stop offset="0" stop-color="#031a5b"/><stop offset="1" stop-color="#00cff5"/></linearGradient><linearGradient id="linear-gradient-4" x1="227.85" y1="97.8" x2="227.86" y2="97.8" xlink:href="#linear-gradient-3"/><linearGradient id="linear-gradient-5" x1="211.76" y1="124" x2="211.76" y2="100.23" xlink:href="#linear-gradient-2"/><linearGradient id="linear-gradient-6" x1="211.76" y1="88.39" x2="211.76" y2="107.32" xlink:href="#linear-gradient-2"/><linearGradient id="linear-gradient-7" x1="211.68" y1="43.08" x2="211.89" y2="52.57" gradientUnits="userSpaceOnUse"><stop offset="0" stop-color="#ff7781"/><stop offset="0.54" stop-color="#d70d72"/><stop offset="0.99" stop-color="#98005b"/></linearGradient><linearGradient id="linear-gradient-8" x1="211.76" y1="98.2" x2="220.29" y2="98.2" gradientUnits="userSpaceOnUse"><stop offset="0.01" stop-color="#98005b"/><stop offset="0.46" stop-color="#d70d72"/><stop offset="1" stop-color="#ff7781"/></linearGradient><linearGradient id="linear-gradient-9" x1="203.23" y1="92.82" x2="211.75" y2="92.82" xlink:href="#linear-gradient-7"/><linearGradient id="linear-gradient-10" x1="211.76" y1="85.83" x2="220.29" y2="85.83" xlink:href="#linear-gradient-8"/><linearGradient id="linear-gradient-11" x1="203.23" y1="80.45" x2="211.75" y2="80.45" xlink:href="#linear-gradient-7"/><linearGradient id="linear-gradient-12" x1="211.76" y1="73.46" x2="220.29" y2="73.46" xlink:href="#linear-gradient-8"/><linearGradient id="linear-gradient-13" x1="203.23" y1="68.08" x2="211.75" y2="68.08" xlink:href="#linear-gradient-7"/><linearGradient id="linear-gradient-14" x1="211.76" y1="61.09" x2="220.29" y2="61.09" xlink:href="#linear-gradient-8"/><linearGradient id="linear-gradient-15" x1="203.43" y1="53.78" x2="212.08" y2="58.81" xlink:href="#linear-gradient-7"/><linearGradient id="linear-gradient-16" x1="110.9" y1="166.37" x2="110.9" y2="149.66" xlink:href="#linear-gradient-2"/><linearGradient id="linear-gradient-17" x1="110.9" y1="153.6" x2="110.9" y2="169.15" gradientUnits="userSpaceOnUse"><stop offset="0" stop-color="#031a5b"/><stop offset="0.15" stop-color="#031e5e"/><stop offset="0.3" stop-color="#032a69"/><stop offset="0.45" stop-color="#023e7a"/><stop offset="0.6" stop-color="#025b92"/><stop offset="0.75" stop-color="#017fb1"/><stop offset="0.9" stop-color="#01acd7"/><stop offset="1" stop-color="#00cff5"/></linearGradient><linearGradient id="linear-gradient-18" x1="94.81" y1="156.35" x2="94.81" y2="156.35" xlink:href="#linear-gradient-3"/><linearGradient id="linear-gradient-19" x1="126.99" y1="156.35" x2="127" y2="156.35" xlink:href="#linear-gradient-3"/><linearGradient id="linear-gradient-20" x1="110.9" y1="183.27" x2="110.9" y2="163.37" xlink:href="#linear-gradient-2"/><linearGradient id="linear-gradient-21" x1="110.9" y1="146.57" x2="110.9" y2="168.73" xlink:href="#linear-gradient-2"/><linearGradient id="linear-gradient-22" x1="89.71" y1="157.67" x2="100.39" y2="109.08" gradientTransform="matrix(-1, 0, 0, 1, 202.18, 0)" gradientUnits="userSpaceOnUse"><stop offset="0.01" stop-color="#a71d73"/><stop offset="0.48" stop-color="#fe2373"/><stop offset="1" stop-color="#ff8e6e"/></linearGradient><linearGradient id="linear-gradient-23" x1="91.84" y1="164.23" x2="111" y2="144.65" xlink:href="#linear-gradient-22"/><linearGradient id="linear-gradient-24" x1="91.44" y1="162.89" x2="72.38" y2="129.58" xlink:href="#linear-gradient-22"/><linearGradient id="linear-gradient-25" x1="273.5" y1="184.11" x2="273.5" y2="280.56" gradientUnits="userSpaceOnUse"><stop offset="0" stop-color="#ff8e6e"/><stop offset="0.52" stop-color="#fe2373"/><stop offset="0.99" stop-color="#a71d73"/></linearGradient><linearGradient id="linear-gradient-26" x1="196.14" y1="222.19" x2="350.85" y2="222.19" xlink:href="#linear-gradient-25"/><linearGradient id="linear-gradient-27" x1="312.6" y1="183.53" x2="252.55" y2="286.7" gradientUnits="userSpaceOnUse"><stop offset="0.01" stop-color="#dbf3f7"/><stop offset="0.99" stop-color="#50d7ea"/></linearGradient><linearGradient id="linear-gradient-28" x1="229.03" y1="257.1" x2="245.23" y2="240.06" xlink:href="#linear-gradient-27"/><linearGradient id="linear-gradient-29" x1="210.23" y1="227.88" x2="298.48" y2="227.88" xlink:href="#linear-gradient-27"/><linearGradient id="linear-gradient-30" x1="361.39" y1="203.22" x2="362.86" y2="203.22" gradientTransform="translate(-3.72 5.93) rotate(-1)" xlink:href="#linear-gradient-25"/><linearGradient id="linear-gradient-31" x1="309.11" y1="187.19" x2="359" y2="187.19" gradientTransform="translate(-3.72 5.93) rotate(-1)" xlink:href="#linear-gradient-2"/><linearGradient id="linear-gradient-32" x1="309.11" y1="174.81" x2="316.09" y2="174.81" gradientTransform="translate(-3.72 5.93) rotate(-1)" xlink:href="#linear-gradient-25"/><linearGradient id="linear-gradient-33" x1="219.78" y1="258.27" x2="221.3" y2="258.27" xlink:href="#linear-gradient-25"/><linearGradient id="linear-gradient-34" x1="159.46" y1="258.25" x2="216" y2="258.25" xlink:href="#linear-gradient-2"/><linearGradient id="linear-gradient-35" x1="159.46" y1="258.24" x2="166.45" y2="258.24" xlink:href="#linear-gradient-25"/><linearGradient id="linear-gradient-36" x1="209.25" y1="271.55" x2="210.77" y2="271.55" xlink:href="#linear-gradient-25"/><linearGradient id="linear-gradient-37" x1="150.22" y1="265.07" x2="205.88" y2="265.07" xlink:href="#linear-gradient-2"/><linearGradient id="linear-gradient-38" x1="150.22" y1="259.98" x2="157.39" y2="259.98" xlink:href="#linear-gradient-25"/><linearGradient id="linear-gradient-39" x1="174.99" y1="17.17" x2="190.76" y2="17.17" xlink:href="#linear-gradient-2"/><linearGradient id="linear-gradient-40" x1="129.64" y1="41.95" x2="174.23" y2="41.95" xlink:href="#linear-gradient-2"/><linearGradient id="linear-gradient-41" x1="174.07" y1="67.34" x2="151.45" y2="18.74" xlink:href="#linear-gradient-2"/><linearGradient id="linear-gradient-42" x1="394.37" y1="312.58" x2="362.54" y2="281.31" gradientTransform="translate(827.79 5.53) rotate(120)" xlink:href="#linear-gradient-27"/><linearGradient id="linear-gradient-43" x1="374.06" y1="359.72" x2="374.06" y2="297.46" gradientTransform="translate(827.79 5.53) rotate(120)" xlink:href="#linear-gradient-25"/><linearGradient id="linear-gradient-44" x1="397.82" y1="361.53" x2="391.25" y2="308.47" gradientTransform="translate(827.79 5.53) rotate(120)" xlink:href="#linear-gradient-27"/><linearGradient id="linear-gradient-45" x1="390.8" y1="305.12" x2="390.8" y2="399.31" gradientTransform="translate(827.79 5.53) rotate(120)" xlink:href="#linear-gradient-25"/><linearGradient id="linear-gradient-46" x1="398.14" y1="361.57" x2="398.14" y2="291.75" gradientTransform="translate(827.79 5.53) rotate(120)" xlink:href="#linear-gradient-25"/><linearGradient id="linear-gradient-47" x1="341.95" y1="303.98" x2="341.95" y2="362.28" gradientTransform="matrix(0.5, -0.87, -0.87, -0.5, 458.43, 645.72)" xlink:href="#linear-gradient-25"/><linearGradient id="linear-gradient-48" x1="388.21" y1="308.56" x2="362.66" y2="278.19" gradientTransform="translate(827.79 5.53) rotate(120)" xlink:href="#linear-gradient-25"/><linearGradient id="linear-gradient-49" x1="384.7" y1="317.08" x2="352.86" y2="285.8" gradientTransform="translate(827.79 5.53) rotate(120)" xlink:href="#linear-gradient-27"/><linearGradient id="linear-gradient-50" x1="364.38" y1="364.22" x2="364.38" y2="301.96" gradientTransform="translate(827.79 5.53) rotate(120)" xlink:href="#linear-gradient-25"/><linearGradient id="linear-gradient-51" x1="388.14" y1="366.02" x2="381.58" y2="312.96" gradientTransform="translate(827.79 5.53) rotate(120)" xlink:href="#linear-gradient-27"/><linearGradient id="linear-gradient-52" x1="381.12" y1="309.62" x2="381.12" y2="403.81" gradientTransform="translate(827.79 5.53) rotate(120)" xlink:href="#linear-gradient-25"/><linearGradient id="linear-gradient-53" x1="388.47" y1="366.07" x2="388.47" y2="296.25" gradientTransform="translate(827.79 5.53) rotate(120)" xlink:href="#linear-gradient-25"/><linearGradient id="linear-gradient-54" x1="351.63" y1="308.48" x2="351.63" y2="366.78" gradientTransform="matrix(0.5, -0.87, -0.87, -0.5, 458.43, 645.72)" xlink:href="#linear-gradient-25"/><linearGradient id="linear-gradient-55" x1="378.54" y1="313.06" x2="352.98" y2="282.69" gradientTransform="translate(827.79 5.53) rotate(120)" xlink:href="#linear-gradient-25"/><linearGradient id="linear-gradient-56" x1="379.61" y1="325.31" x2="347.77" y2="294.04" gradientTransform="translate(827.79 5.53) rotate(120)" xlink:href="#linear-gradient-27"/><linearGradient id="linear-gradient-57" x1="359.3" y1="372.45" x2="359.3" y2="310.19" gradientTransform="translate(827.79 5.53) rotate(120)" xlink:href="#linear-gradient-25"/><linearGradient id="linear-gradient-58" x1="383.05" y1="374.26" x2="376.49" y2="321.2" gradientTransform="translate(827.79 5.53) rotate(120)" xlink:href="#linear-gradient-27"/><linearGradient id="linear-gradient-59" x1="376.03" y1="317.85" x2="376.03" y2="412.04" gradientTransform="translate(827.79 5.53) rotate(120)" xlink:href="#linear-gradient-25"/><linearGradient id="linear-gradient-60" x1="383.38" y1="374.3" x2="383.38" y2="304.48" gradientTransform="translate(827.79 5.53) rotate(120)" xlink:href="#linear-gradient-25"/><linearGradient id="linear-gradient-61" x1="356.72" y1="316.71" x2="356.72" y2="375.01" gradientTransform="matrix(0.5, -0.87, -0.87, -0.5, 458.43, 645.72)" xlink:href="#linear-gradient-25"/><linearGradient id="linear-gradient-62" x1="373.45" y1="321.29" x2="347.9" y2="290.92" gradientTransform="translate(827.79 5.53) rotate(120)" xlink:href="#linear-gradient-25"/><linearGradient id="linear-gradient-63" x1="367.57" y1="329.03" x2="335.73" y2="297.75" gradientTransform="translate(827.79 5.53) rotate(120)" xlink:href="#linear-gradient-27"/><linearGradient id="linear-gradient-64" x1="347.25" y1="376.17" x2="347.25" y2="313.91" gradientTransform="translate(827.79 5.53) rotate(120)" xlink:href="#linear-gradient-25"/><linearGradient id="linear-gradient-65" x1="371.01" y1="377.98" x2="364.45" y2="324.92" gradientTransform="translate(827.79 5.53) rotate(120)" xlink:href="#linear-gradient-27"/><linearGradient id="linear-gradient-66" x1="363.99" y1="321.57" x2="363.99" y2="415.76" gradientTransform="translate(827.79 5.53) rotate(120)" xlink:href="#linear-gradient-25"/><linearGradient id="linear-gradient-67" x1="371.34" y1="378.02" x2="371.34" y2="308.2" gradientTransform="translate(827.79 5.53) rotate(120)" xlink:href="#linear-gradient-25"/><linearGradient id="linear-gradient-68" x1="368.76" y1="320.43" x2="368.76" y2="378.73" gradientTransform="matrix(0.5, -0.87, -0.87, -0.5, 458.43, 645.72)" xlink:href="#linear-gradient-25"/><linearGradient id="linear-gradient-69" x1="361.41" y1="325.01" x2="335.86" y2="294.64" gradientTransform="translate(827.79 5.53) rotate(120)" xlink:href="#linear-gradient-25"/><linearGradient id="linear-gradient-70" x1="556.35" y1="709.5" x2="531.86" y2="685.45" gradientTransform="matrix(0.5, 0.87, 0.87, -0.5, -627.85, 5.53)" xlink:href="#linear-gradient-27"/><linearGradient id="linear-gradient-71" x1="540.72" y1="745.75" x2="540.72" y2="697.87" gradientTransform="matrix(0.5, 0.87, 0.87, -0.5, -627.85, 5.53)" xlink:href="#linear-gradient-25"/><linearGradient id="linear-gradient-72" x1="558.99" y1="747.14" x2="553.95" y2="706.34" gradientTransform="matrix(0.5, 0.87, 0.87, -0.5, -627.85, 5.53)" xlink:href="#linear-gradient-27"/><linearGradient id="linear-gradient-73" x1="553.59" y1="703.76" x2="553.59" y2="776.2" gradientTransform="matrix(0.5, 0.87, 0.87, -0.5, -627.85, 5.53)" xlink:href="#linear-gradient-25"/><linearGradient id="linear-gradient-74" x1="559.25" y1="747.17" x2="559.25" y2="693.48" gradientTransform="matrix(0.5, 0.87, 0.87, -0.5, -627.85, 5.53)" xlink:href="#linear-gradient-25"/><linearGradient id="linear-gradient-75" x1="180.62" y1="702.94" x2="180.62" y2="747.77" gradientTransform="translate(-258.49 645.72) rotate(-120)" xlink:href="#linear-gradient-25"/><linearGradient id="linear-gradient-76" x1="551.61" y1="706.41" x2="531.96" y2="683.06" gradientTransform="matrix(0.5, 0.87, 0.87, -0.5, -627.85, 5.53)" xlink:href="#linear-gradient-25"/><linearGradient id="linear-gradient-77" x1="176.87" y1="144.83" x2="150.06" y2="95.27" xlink:href="#linear-gradient-2"/><linearGradient id="linear-gradient-78" x1="152.57" y1="67.22" x2="174.35" y2="167.75" xlink:href="#linear-gradient-2"/><linearGradient id="linear-gradient-79" x1="195.31" y1="125.56" x2="195.73" y2="226.93" xlink:href="#linear-gradient-2"/><linearGradient id="linear-gradient-80" x1="171.58" y1="224.2" x2="220.45" y2="126.46" xlink:href="#linear-gradient-2"/><linearGradient id="linear-gradient-81" x1="163.02" y1="67.87" x2="163.02" y2="221.61" xlink:href="#linear-gradient-27"/><linearGradient id="linear-gradient-82" x1="178.31" y1="177.61" x2="148.36" y2="62.83" xlink:href="#linear-gradient-2"/><linearGradient id="linear-gradient-83" x1="149.83" y1="110.1" x2="145.43" y2="132.1" xlink:href="#linear-gradient-27"/><linearGradient id="linear-gradient-84" x1="296.42" y1="136.95" x2="296.42" y2="117.5" xlink:href="#linear-gradient-25"/><linearGradient id="linear-gradient-85" x1="284.85" y1="119.91" x2="297.13" y2="119.91" xlink:href="#linear-gradient-2"/><linearGradient id="linear-gradient-86" x1="284.86" y1="104.65" x2="288.12" y2="104.65" xlink:href="#linear-gradient-25"/><linearGradient id="linear-gradient-87" x1="295.03" y1="123.35" x2="307.86" y2="123.35" xlink:href="#linear-gradient-2"/><linearGradient id="linear-gradient-88" x1="307.39" y1="102.71" x2="307.99" y2="102.71" xlink:href="#linear-gradient-25"/><linearGradient id="linear-gradient-89" x1="291.98" y1="120.33" x2="298.6" y2="120.33" xlink:href="#linear-gradient-2"/><linearGradient id="linear-gradient-90" x1="292.44" y1="96.49" x2="293.03" y2="96.49" xlink:href="#linear-gradient-25"/><linearGradient id="linear-gradient-91" x1="296.74" y1="116.49" x2="300.63" y2="116.49" xlink:href="#linear-gradient-2"/><linearGradient id="linear-gradient-92" x1="298.3" y1="98.34" x2="300.63" y2="98.34" xlink:href="#linear-gradient-25"/><linearGradient id="linear-gradient-93" x1="284.71" y1="139.09" x2="308.14" y2="139.09" xlink:href="#linear-gradient-25"/><linearGradient id="linear-gradient-94" x1="90.85" y1="183.14" x2="66.29" y2="162.42" gradientUnits="userSpaceOnUse"><stop offset="0.01" stop-color="#50d7ea"/><stop offset="0.99" stop-color="#dbf3f7"/></linearGradient><linearGradient id="linear-gradient-95" x1="74.21" y1="230.45" x2="74.21" y2="177.19" xlink:href="#linear-gradient-25"/><linearGradient id="linear-gradient-96" x1="94.73" y1="231.84" x2="91.15" y2="183.12" xlink:href="#linear-gradient-94"/><linearGradient id="linear-gradient-97" x1="89.53" y1="180" x2="89.53" y2="266.26" xlink:href="#linear-gradient-25"/><linearGradient id="linear-gradient-98" x1="96.26" y1="180" x2="96.26" y2="266.26" xlink:href="#linear-gradient-25"/><linearGradient id="linear-gradient-99" x1="643.36" y1="178.74" x2="643.36" y2="232.14" gradientTransform="matrix(-1, 0, 0, 1, 738.72, 0)" xlink:href="#linear-gradient-25"/><linearGradient id="linear-gradient-100" x1="87.17" y1="183.15" x2="63.77" y2="155.34" xlink:href="#linear-gradient-25"/><linearGradient id="linear-gradient-101" x1="81.15" y1="187.77" x2="57.75" y2="165.91" xlink:href="#linear-gradient-94"/><linearGradient id="linear-gradient-102" x1="65.92" y1="235.37" x2="65.92" y2="182.17" xlink:href="#linear-gradient-2"/><linearGradient id="linear-gradient-103" x1="87.2" y1="236.72" x2="82.09" y2="187.36" xlink:href="#linear-gradient-94"/><linearGradient id="linear-gradient-104" x1="81.24" y1="181.63" x2="81.24" y2="243.61" xlink:href="#linear-gradient-2"/><linearGradient id="linear-gradient-105" x1="87.97" y1="236.88" x2="87.97" y2="174.55" xlink:href="#linear-gradient-2"/><linearGradient id="linear-gradient-106" x1="87.07" y1="178.37" x2="87.07" y2="235.22" xlink:href="#linear-gradient-2"/><linearGradient id="linear-gradient-107" x1="78.88" y1="187.95" x2="55.48" y2="160.13" xlink:href="#linear-gradient-2"/><linearGradient id="linear-gradient-108" x1="76.23" y1="196.42" x2="47.07" y2="167.78" xlink:href="#linear-gradient-94"/><linearGradient id="linear-gradient-109" x1="57.63" y1="239.59" x2="57.63" y2="182.57" xlink:href="#linear-gradient-25"/><linearGradient id="linear-gradient-110" x1="79.38" y1="241.25" x2="73.37" y2="192.65" xlink:href="#linear-gradient-94"/><linearGradient id="linear-gradient-111" x1="72.95" y1="189.59" x2="72.95" y2="275.85" xlink:href="#linear-gradient-25"/><linearGradient id="linear-gradient-112" x1="79.68" y1="241.29" x2="79.68" y2="177.34" xlink:href="#linear-gradient-25"/><linearGradient id="linear-gradient-113" x1="659.94" y1="188.34" x2="659.94" y2="241.74" gradientTransform="matrix(-1, 0, 0, 1, 738.72, 0)" xlink:href="#linear-gradient-25"/><linearGradient id="linear-gradient-114" x1="70.59" y1="192.74" x2="47.19" y2="164.93" xlink:href="#linear-gradient-25"/><linearGradient id="linear-gradient-115" x1="118" y1="230.28" x2="118" y2="208.84" xlink:href="#linear-gradient-25"/><linearGradient id="linear-gradient-116" x1="131.07" y1="238.45" x2="131.07" y2="212.03" xlink:href="#linear-gradient-25"/><linearGradient id="linear-gradient-117" x1="131.07" y1="224.48" x2="131.07" y2="208.15" xlink:href="#linear-gradient-25"/><linearGradient id="linear-gradient-118" x1="131.07" y1="223.51" x2="131.07" y2="204.09" xlink:href="#linear-gradient-25"/><linearGradient id="linear-gradient-119" x1="138.56" y1="223.76" x2="127.81" y2="212.17" xlink:href="#linear-gradient-2"/><linearGradient id="linear-gradient-120" x1="122.68" y1="215.86" x2="140.06" y2="215.23" xlink:href="#linear-gradient-2"/><linearGradient id="linear-gradient-121" x1="122.71" y1="216.81" x2="140.1" y2="216.18" xlink:href="#linear-gradient-2"/><linearGradient id="linear-gradient-122" x1="122.65" y1="215.15" x2="140.04" y2="214.52" xlink:href="#linear-gradient-2"/></defs><g class="cls-1"><g id="Layer_2" data-name="Layer 2"><g id="BACKGROUND"><path class="cls-2" d="M82.59,43.17c33.47-27.9,62.34,1,95.29-18.45s56.57-46.5,77,5c10.91,27.42,21,64.43,78.62,69.57,44.9,4,81.38,12.44,90.66,36.75,13.34,34.94-32.61,36.53-6.62,89.92,16.23,33.36-92.27,1.79-98.32,51.72-7.18,59.13-107.34,58.89-151.48,16.41S113,260.63,70.29,265.83C26.61,271.15-44.1,196.68,37.4,147.51S55.93,65.39,82.59,43.17Z"/></g><g id="OBJECTS"><path class="cls-3" d="M223.21,90.35c-6.36-3.67-16.65-3.67-23,0s-6.29,9.63.08,13.31,16.65,3.68,23,0,6.28-9.64-.08-13.31"/><path class="cls-4" d="M221,97c-5.15-3-13.48-3-18.6,0s-5.09,7.79.06,10.77,13.48,3,18.6,0S226.18,100,221,97"/><path class="cls-5" d="M195.66,97.78v0Z"/><path class="cls-6" d="M227.85,97.78v0Z"/><path class="cls-7" d="M223.13,103.66a24.88,24.88,0,0,1-22.74,0c-2.7-1.56-4.25-3.53-4.66-5.56l4.37,21.47h0a6.92,6.92,0,0,0,3.26,3.45c4.66,2.65,12.19,2.65,16.81,0a6.77,6.77,0,0,0,3.22-3.45h0l4.37-21.47C227.38,100.13,225.83,102.1,223.13,103.66Z"/><path class="cls-8" d="M223.21,90.35c-6.36-3.67-16.65-3.67-23,0s-6.29,9.63.08,13.31,16.65,3.68,23,0S229.57,94,223.21,90.35ZM222,102.6c-5.61,3.09-14.75,3.09-20.4,0s-5.68-8.1-.06-11.18,14.75-3.1,20.4,0S227.61,99.51,222,102.6Z"/><path class="cls-9" d="M214,46.93c0-2.49-1-3.76-2.24-3.76s-2.23,1.27-2.23,3.76,2.23,5.59,2.23,5.59S214,49.42,214,46.93Z"/><path class="cls-10" d="M215.74,96.21c2.22-1.12,3.81-.81,4.37.29s-.13,2.57-2.35,3.7-6,.54-6,.54S213.52,97.34,215.74,96.21Z"/><path class="cls-11" d="M207.78,90.83c-2.22-1.12-3.81-.81-4.37.29s.13,2.57,2.35,3.7,6,.54,6,.54S210,92,207.78,90.83Z"/><path class="cls-12" d="M215.74,83.85c2.22-1.13,3.81-.82,4.37.28s-.13,2.57-2.35,3.7-6,.54-6,.54S213.52,85,215.74,83.85Z"/><path class="cls-13" d="M207.78,78.47c-2.22-1.13-3.81-.82-4.37.28s.13,2.57,2.35,3.7,6,.54,6,.54S210,79.59,207.78,78.47Z"/><path class="cls-14" d="M215.74,71.48c2.22-1.13,3.81-.82,4.37.28s-.13,2.57-2.35,3.7-6,.54-6,.54S213.52,72.6,215.74,71.48Z"/><path class="cls-15" d="M207.78,66.1c-2.22-1.13-3.81-.82-4.37.28s.13,2.57,2.35,3.7,6,.54,6,.54S210,67.22,207.78,66.1Z"/><path class="cls-16" d="M215.74,59.11c2.22-1.13,3.81-.81,4.37.29S220,62,217.76,63.09s-6,.54-6,.54S213.52,60.23,215.74,59.11Z"/><path class="cls-17" d="M207.78,53.73c-2.22-1.13-3.81-.81-4.37.29s.13,2.56,2.35,3.69,6,.54,6,.54S210,54.85,207.78,53.73Z"/><line class="cls-18" x1="211.76" y1="47.56" x2="211.76" y2="100.74"/><line class="cls-18" x1="217.12" y1="97.88" x2="211.81" y2="100.66"/><line class="cls-18" x1="217.12" y1="85.47" x2="211.81" y2="88.25"/><line class="cls-18" x1="217.12" y1="73.06" x2="211.81" y2="75.84"/><line class="cls-18" x1="217.12" y1="60.65" x2="211.81" y2="63.43"/><line class="cls-18" x1="206.44" y1="92.73" x2="211.75" y2="95.51"/><line class="cls-18" x1="206.44" y1="80.32" x2="211.75" y2="83.1"/><line class="cls-18" x1="206.44" y1="67.91" x2="211.75" y2="70.69"/><line class="cls-18" x1="206.44" y1="55.5" x2="211.75" y2="58.28"/><path class="cls-19" d="M122.36,148.9c-6.37-3.68-16.66-3.67-23,0s-6.29,9.63.07,13.31,16.66,3.68,23,0,6.29-9.64-.07-13.31"/><path class="cls-20" d="M120.18,155.54c-5.16-3-13.49-3-18.61,0s-5.09,7.8.06,10.78,13.49,3,18.61,0,5.09-7.8-.06-10.78"/><path class="cls-21" d="M94.81,156.33v0Z"/><path class="cls-22" d="M127,156.33a.06.06,0,0,1,0,0v0Z"/><path class="cls-23" d="M122.27,162.21a24.86,24.86,0,0,1-22.73,0c-2.7-1.56-4.25-3.53-4.67-5.57l4.38,21.48h0a6.86,6.86,0,0,0,3.26,3.44c4.65,2.66,12.18,2.66,16.81,0a6.82,6.82,0,0,0,3.22-3.45h0l4.38-21.48C126.52,158.68,125,160.65,122.27,162.21Z"/><path class="cls-24" d="M122.36,148.9c-6.37-3.68-16.66-3.67-23,0s-6.29,9.63.07,13.31,16.66,3.68,23,0S128.72,152.57,122.36,148.9Zm-1.22,12.25c-5.62,3.09-14.75,3.08-20.4,0s-5.68-8.1-.07-11.19,14.75-3.09,20.4,0S126.75,158.06,121.14,161.15Z"/><path class="cls-25" d="M111.52,157.35s15.58-21.82,11.77-25.45-11,1.18-7.78-5.74c3-6.51,3.66-11.21.7-11.34s-4.9,8.69-7.45,1.17-9.31-9.33-10.36-7c-2.79,6.25,4,10.79,3.95,14.68s-11.06-2.86-11.18,1c-.25,7.94,13.89,6.86,12.74,10.79s-12.9-2.55-12.35,3.31C92,143.45,105.6,148.8,111.52,157.35Z"/><path class="cls-26" d="M102.16,113.06s14.47,19,9.36,44.29"/><path class="cls-26" d="M112.61,145.69s-8.65-4.5-15.41-5.86"/><path class="cls-26" d="M118.77,134.3a18.83,18.83,0,0,0-6.56,5.39"/><path class="cls-26" d="M94.07,126.12a54.42,54.42,0,0,1,16.55,5.37"/><path class="cls-26" d="M115.18,119.77a22.14,22.14,0,0,0-6,7.17"/><path class="cls-27" d="M111.35,163.46s-.26-18.3-3.95-18.54-5.79,5.45-6.84.39c-1-4.76-2.61-7.5-4.35-6.28s.84,6.72-3.76,3.88-9.22-.82-8.83.87c1,4.51,6.78,3.94,8.4,6s-7.94,3.75-6,5.42c4.11,3.47,10.8-2.47,11.79.1s-8.42,4.31-5.66,7.15c1.67,1.71,7.69-.37,13.5.58A31.9,31.9,0,0,0,111.35,163.46Z"/><path class="cls-28" d="M85.26,143.37s17,1.15,25.64,19.37"/><path class="cls-28" d="M106.5,149.16a28.08,28.08,0,0,1,1,7.8"/><path class="cls-28" d="M94.86,160.93s8.7-3.71,14.67-.83"/><path class="cls-28" d="M90,154s6.59-3.09,12.33-2.73"/><path class="cls-28" d="M97.32,140.93a29.4,29.4,0,0,0,0,6.58"/><path class="cls-29" d="M110.94,163.46s-7.38-20-3.47-21.84,8.59,3.5,7.61-2.45c-.91-5.59-.31-9.25,2.1-8.65s1.9,7.67,5.72,2.65,9.69-4.76,10-2.76c.77,5.34-5.73,7.13-6.63,10s9.56.5,8.75,3.41c-1.67,6-12.78,1.83-12.78,5s11,1.17,9.15,5.42c-.92,2.14-5.83,4.72-11,7.2A21.57,21.57,0,0,1,110.94,163.46Z"/><path class="cls-28" d="M130.41,131a38.38,38.38,0,0,0-19.24,31.76"/><path class="cls-28" d="M127.79,153.31s-10.55-1.16-16.13,5"/><path class="cls-28" d="M109.53,142.94s2.84,1.09,4.2,7.28"/><path class="cls-28" d="M130.16,144.34s-8.89-.78-13.78.59"/><path class="cls-28" d="M117.11,133.59s2.41,3.34,2.42,6.74"/><path class="cls-30" d="M196.64,237,298,178.44a1,1,0,0,1,1,0l51.36,29.63a1,1,0,0,1,0,1.73L249,268.33a1,1,0,0,1-1,0l-51.35-29.64A1,1,0,0,1,196.64,237Z"/><path class="cls-31" d="M196.64,235.75,298,177.24a1,1,0,0,1,1,0l51.36,29.63a1,1,0,0,1,0,1.73L249,267.13a1,1,0,0,1-1,0l-51.35-29.64A1,1,0,0,1,196.64,235.75Z"/><polygon class="cls-32" points="198.49 236.62 298.49 178.89 348.5 207.73 248.49 265.49 198.49 236.62"/><path class="cls-33" d="M348.42,207.8l.08-.07-50-28.84c-25.28,2.26-50,29-50,29l50,28.78C298.65,236.59,324.46,210.22,348.42,207.8Z"/><path class="cls-32" d="M301.62,185.19c-17.39,2.17-34.77,16.73-42.24,23.73l-1.84-1c7.47-7,24.86-21.58,42.26-23.76Z"/><path class="cls-32" d="M318.69,195c-17.39,2.18-34.77,16.73-42.24,23.74l-1.84-1.06c7.47-7,24.86-21.57,42.26-23.75Z"/><path class="cls-32" d="M323.22,197.59c-17.4,2.18-34.77,16.73-42.24,23.74l-1.84-1.06c7.46-7,24.85-21.57,42.26-23.75Z"/><path class="cls-32" d="M261.73,210.27l10.65,6.06a121.89,121.89,0,0,1,20.28-15.46L282,194.8A122.29,122.29,0,0,0,261.73,210.27Z"/><path class="cls-32" d="M314.58,192.59,304,186.51c-6.77.85-13.54,3.58-19.73,7l10.65,6.06C301.08,196.17,307.83,193.44,314.58,192.59Z"/><path class="cls-34" d="M298.4,236.68l.08-.06-50-28.85c-25.28,2.26-50,28.95-50,28.95l50,28.78.51-.1C251.07,263.19,274.43,239.1,298.4,236.68Z"/><path class="cls-35" d="M259,254a80.22,80.22,0,0,1,17.3-9.73c6.75-3.72,14.21-6.67,21.74-7.5l.46-.11-50-28.85c-14.48,1.3-28.78,10.6-38.36,18.32C220.44,232,258.83,254,259,254Z"/><path class="cls-36" d="M298.48,236.62l-50-28.85c-25.57.38-38.24,11.38-38.24,11.38s49.84,28.87,50,28.85A65.87,65.87,0,0,1,298.48,236.62Z"/><polygon class="cls-3" points="362.61 203.34 357.09 201.95 357.25 200.16 358.71 199.5 362.61 203.34"/><path class="cls-37" d="M362.61,203.33l-1.08-1.06a2,2,0,0,0-.24.33,1.8,1.8,0,0,0-.16.38Z"/><path class="cls-38" d="M353.86,196.81h0l-43.34-24a1.46,1.46,0,0,0-1.42,2.56L353,199.67l4.1,2.28a4.73,4.73,0,0,1,1.6-2.47Z"/><path class="cls-3" d="M316.52,176.1l-4.83-2.67a1.46,1.46,0,0,0-1.42,2.56l4.65,2.58A4.73,4.73,0,0,1,316.52,176.1Z"/><path class="cls-39" d="M315.35,175.46l-4.83-2.68a1.46,1.46,0,0,0-1.42,2.56l4.65,2.58A4.66,4.66,0,0,1,315.35,175.46Z"/><polygon class="cls-3" points="221.3 258.27 215.79 259.73 215.08 258.27 216.02 256.8 221.3 258.27"/><path class="cls-40" d="M221.3,258.27l-1.47-.41a1.71,1.71,0,0,0,0,.82Z"/><path class="cls-41" d="M216,256.8h-4.87l-50.2,0a1.47,1.47,0,0,0,0,2.94l54.06,0h.81A4.66,4.66,0,0,1,216,256.8Z"/><path class="cls-3" d="M167.78,256.78h-5.52a1.47,1.47,0,0,0,0,2.94h5.32A4.72,4.72,0,0,1,167.78,256.78Z"/><path class="cls-42" d="M166.45,256.78h-5.52a1.47,1.47,0,0,0,0,2.94h5.31A4.66,4.66,0,0,1,166.45,256.78Z"/><polygon class="cls-3" points="210.77 271.85 205.08 272.15 204.61 270.58 205.91 269.33 210.77 271.85"/><path class="cls-43" d="M210.77,271.85l-1.35-.7a1.28,1.28,0,0,0-.13.39,1.9,1.9,0,0,0,0,.41Z"/><path class="cls-44" d="M205.88,269.33l-2.84-.6L152,258a1.47,1.47,0,0,0-.6,2.87l48.5,10.18h0l4.22.89.19,0h0l.79.16A4.71,4.71,0,0,1,205.88,269.33Z"/><path class="cls-3" d="M158.69,259.42l-5.4-1.13a1.46,1.46,0,1,0-.6,2.86l5.2,1.1A4.72,4.72,0,0,1,158.69,259.42Z"/><path class="cls-45" d="M157.39,259.15,152,258a1.47,1.47,0,0,0-.6,2.87l5.21,1.09A4.65,4.65,0,0,1,157.39,259.15Z"/><line class="cls-46" x1="178.74" y1="34.1" x2="180.06" y2="33.33"/><line class="cls-47" x1="184.59" y1="30.72" x2="225.82" y2="6.92"/><polyline class="cls-46" points="228.08 5.61 229.41 4.84 229.42 6.38"/><polyline class="cls-48" points="229.44 11.74 229.62 63.43 229.62 77.73"/><polyline class="cls-46" points="229.62 80.41 229.62 81.94 230.96 82.71"/><line class="cls-49" x1="235.38" y1="85.24" x2="275.6" y2="108.29"/><polyline class="cls-46" points="277.81 109.56 279.14 110.32 277.82 111.1"/><line class="cls-50" x1="273.59" y1="113.58" x2="228.4" y2="140.11"/><line class="cls-46" x1="226.29" y1="141.34" x2="224.97" y2="142.12"/><path class="cls-51" d="M181.46,17.85l.71-.32.24-.11.65-.24.17-.06c.27-.1.53-.18.79-.25l.12,0a11.09,11.09,0,0,1,1.22-.26h0c.33,0,.66-.08,1-.1h.2a8,8,0,0,1,.85,0h.15c.22,0,.45,0,.66.08l.21,0c.25,0,.5.1.74.17h0a6.42,6.42,0,0,1,.66.24l.19.08.55.26c.06,0,.12.06.17.1l-3.29-1.92-.08,0-.1-.05a5.44,5.44,0,0,0-.54-.27l-.1,0-.09,0-.67-.23h0a6.11,6.11,0,0,0-.74-.17l-.08,0-.12,0c-.22,0-.44-.06-.67-.07l-.1,0h-1.09a8.51,8.51,0,0,0-1,.1h0a11.09,11.09,0,0,0-1.22.26h-.07l0,0-.8.24-.16.06-.65.25-.09,0-.16.08c-.23.1-.47.2-.7.32l-.27.13c-.31.15-.62.32-.93.5a19.26,19.26,0,0,0-2,1.3l3.29,1.91a21.58,21.58,0,0,1,2-1.29c.32-.19.63-.35.94-.51Z"/><path class="cls-52" d="M165.45,13.67l.23-.09c.23-.1.46-.18.69-.27l.13-.05q.41-.13.81-.24l.11,0a10.31,10.31,0,0,1,1.27-.27h0a8.68,8.68,0,0,1,1-.1h1.08l.15,0a5.25,5.25,0,0,1,.68.08l.21,0a6.46,6.46,0,0,1,.76.18h0a5.1,5.1,0,0,1,.69.24l.2.08c.19.08.37.18.56.28l.18.09-3.3-1.92-.08,0-.1-.05a5.77,5.77,0,0,0-.56-.27l-.1-.06-.09,0c-.23-.09-.45-.17-.69-.24h0a6.43,6.43,0,0,0-.76-.17l-.08,0-.13,0-.68-.08h-.15a8.38,8.38,0,0,0-.87,0h-.21c-.32,0-.65.05-1,.1h0c-.42.07-.84.16-1.27.27l-.07,0H164c-.26.07-.53.16-.8.25l-.14.05-.69.26-.07,0-.16.07-.75.34-.27.14c-.33.16-.65.33-1,.52-.48.28-1,.59-1.44.92-.16.1-.31.22-.46.33-.32.23-.64.47-.95.72l-.52.42-.86.75-.51.48-.32.3-.33.35c-.34.34-.67.7-1,1.07l-.33.34-.25.31-.59.72-.39.47-.29.4q-.22.29-.42.57c-.1.14-.2.26-.29.4s-.31.46-.47.69l-.29.43-.12.19c-.27.42-.53.85-.78,1.28l0,.08-.15.27c-.17.31-.35.61-.51.92-.08.15-.15.3-.23.44s-.15.3-.23.46-.13.26-.2.39c-.17.36-.33.72-.49,1.08l-.09.18a.14.14,0,0,1,0,.06c-.19.45-.38.9-.56,1.36,0,.08,0,.16-.09.25l-.18.5-.24.68c-.06.17-.11.35-.16.53s-.13.42-.19.63l-.12.38c-.06.23-.11.46-.17.7s-.13.51-.19.77c0,.09,0,.18-.07.27s-.06.37-.09.56c-.08.4-.15.81-.21,1.21l-.06.33c0,.26-.05.51-.07.76s0,.36,0,.53c-.05.57-.07,1.13-.07,1.68,0,.2,0,.38,0,.58l-.71.27-.35.16-.32.14a12.51,12.51,0,0,0-1.14.6c-.42.24-.83.5-1.24.78l-.39.28c-.27.2-.54.4-.81.62l-.45.36-.73.64-.43.41-.28.25-.27.3c-.3.3-.58.6-.87.92l-.27.29c-.08.09-.14.18-.22.26s-.34.41-.5.62l-.33.4-.26.34-.35.49c-.09.11-.17.22-.25.34s-.26.39-.4.58l-.25.38s-.07.1-.1.16c-.23.36-.45.72-.67,1.09l0,.07-.13.23c-.15.26-.3.52-.44.79-.06.12-.12.25-.19.37l-.19.39-.18.34c-.14.3-.28.6-.41.91,0,0,0,.11-.08.17l0,0c-.17.39-.32.78-.47,1.16,0,.07,0,.15-.08.22l-.15.42c-.07.19-.15.39-.21.58s-.09.31-.14.46-.11.35-.16.53-.07.22-.1.33-.1.4-.15.59-.11.44-.16.66l-.06.24c0,.16-.05.31-.08.47-.07.35-.13.69-.18,1a2.93,2.93,0,0,1,0,.29l-.06.64c0,.15,0,.31,0,.46,0,.48-.06,1-.06,1.43a12.39,12.39,0,0,0,1,5.17,6.87,6.87,0,0,0,2.75,3.12l3.3,1.92c-2.32-1.35-3.76-4.22-3.78-8.3,0-.47,0-.95.06-1.43,0-.15,0-.3,0-.45,0-.31.06-.62.11-.93s.11-.69.18-1,.08-.47.13-.71.11-.44.17-.66.15-.62.24-.92.11-.36.17-.54c.1-.34.22-.69.34-1,.05-.14.1-.29.16-.43.17-.47.36-1,.57-1.42,0,0,0-.11.07-.17.19-.42.39-.83.59-1.25.07-.12.13-.25.2-.38.2-.4.41-.78.63-1.17l.12-.22c.26-.45.54-.89.82-1.33l.25-.37c.21-.31.42-.62.64-.92l.36-.49.58-.75.51-.61.49-.56c.28-.31.57-.62.86-.92l.55-.55.44-.4c.24-.22.48-.44.73-.64l.44-.37.82-.61.39-.28c.4-.28.81-.55,1.23-.79s.77-.41,1.15-.59l.31-.15c.36-.16.72-.31,1.07-.43,0-.19,0-.38,0-.58,0-.55,0-1.11.07-1.67,0-.18,0-.36.05-.54,0-.36.08-.72.14-1.09s.13-.8.2-1.21.1-.55.17-.82.12-.52.19-.78.18-.72.28-1.08.13-.42.19-.62c.13-.41.27-.81.41-1.22l.18-.5c.21-.55.43-1.11.67-1.66l.09-.19c.21-.49.45-1,.69-1.47.07-.15.15-.3.23-.45.23-.46.48-.92.74-1.37.05-.08.09-.17.14-.26.31-.52.63-1,1-1.55.09-.15.19-.29.29-.44q.36-.54.75-1.08l.42-.57q.33-.45.69-.87c.19-.25.38-.49.58-.72l.58-.65c.33-.37.67-.73,1-1.08l.64-.64c.17-.17.35-.32.52-.48s.57-.51.85-.75l.52-.43.95-.72.46-.33c.48-.33,1-.64,1.45-.92.33-.19.65-.36,1-.52l.27-.13Z"/><path class="cls-53" d="M163.45,14.67c7.24-4.18,13.31-1.83,14.83,5.11a21.58,21.58,0,0,1,2-1.29c8.15-4.71,14.79-.93,14.81,8.44,0,8.76-5.73,19.3-13.14,24.48l-36,20.89c-7.15,4.13-13,.82-13-7.39s5.76-18.2,12.9-22.33a14.92,14.92,0,0,1,2.53-1.17c0-.19,0-.38,0-.58C148.32,31.22,155.08,19.51,163.45,14.67Z"/><path class="cls-54" d="M397.49,170.73l-32.07,18.52v9.63l32.91-19a.83.83,0,0,0,.42-.72v-7.69A.84.84,0,0,0,397.49,170.73Z"/><path class="cls-55" d="M365.42,189.25l.41-.23.53.31,32.08-18.52-50-28.87h0a.81.81,0,0,0-.93-.08h0l-32.07,18.52h0Z"/><polygon class="cls-56" points="366.4 197.17 366.41 197.17 366.41 189.82 316.4 160.96 316.4 170.58 365.42 198.88 366.4 197.17"/><polygon class="cls-57" points="365.42 189.25 365.42 190.39 315.42 161.53 315.42 160.39 365.42 189.25"/><polygon class="cls-58" points="365.42 197.74 365.42 198.88 315.42 170.01 315.42 168.87 365.42 197.74"/><polygon class="cls-59" points="365.42 197.74 366.4 197.17 316.4 168.3 315.42 168.87 365.42 197.74"/><path class="cls-60" d="M365.42,197.74v1.14l32.28-18.64h0l.63-.37a.83.83,0,0,0,.42-.72v-7.69a.68.68,0,0,0-.07-.28h0l0,0a1.18,1.18,0,0,0-.11-.19l-.1-.11-.16-.1a.46.46,0,0,0-.16-.07.9.9,0,0,0-.16,0h-.21s0,0-.07,0v0l-.21.06-32.07,18.52v1.14l32.28-18.64v7.35Z"/><path class="cls-61" d="M398.44,160.1l-32.08,18.52v9.63l32.92-19a.83.83,0,0,0,.42-.72v-7.69A.84.84,0,0,0,398.44,160.1Z"/><path class="cls-62" d="M366.36,178.62l.41-.23.54.31,32.07-18.52-50-28.87h0a.84.84,0,0,0-.94-.08h0l-32.08,18.52h0Z"/><polygon class="cls-63" points="367.35 186.54 367.35 186.54 367.35 179.2 317.35 150.33 317.35 159.95 366.36 188.25 367.35 186.54"/><polygon class="cls-64" points="366.36 178.62 366.36 179.76 316.36 150.9 316.36 149.76 366.36 178.62"/><polygon class="cls-65" points="366.36 187.11 366.36 188.25 316.36 159.38 316.37 158.24 366.36 187.11"/><polygon class="cls-66" points="366.36 187.11 367.35 186.54 317.35 157.67 316.37 158.24 366.36 187.11"/><path class="cls-67" d="M366.36,187.11v1.14l32.28-18.64h0l.64-.37a.83.83,0,0,0,.42-.72v-7.69a.89.89,0,0,0-.07-.28h0s0,0,0,0a.57.57,0,0,0-.12-.18l-.09-.11a.76.76,0,0,0-.16-.11l-.16-.07-.17,0h-.2a.22.22,0,0,0-.08,0v0l-.2.06-32.08,18.52v1.14l32.28-18.64v7.35Z"/><path class="cls-68" d="M393.85,151.58,361.78,170.1v9.63l32.91-19a.83.83,0,0,0,.42-.72v-7.69A.84.84,0,0,0,393.85,151.58Z"/><path class="cls-69" d="M361.78,170.1l.4-.23.54.31,32.08-18.52-50-28.87h0a.81.81,0,0,0-.93-.08h0l-32.07,18.52h0Z"/><polygon class="cls-70" points="362.76 178.02 362.77 178.02 362.77 170.68 312.76 141.81 312.76 151.43 361.78 179.72 362.76 178.02"/><polygon class="cls-71" points="361.78 170.1 361.78 171.24 311.77 142.38 311.78 141.24 361.78 170.1"/><polygon class="cls-72" points="361.78 178.59 361.78 179.72 311.77 150.86 311.78 149.72 361.78 178.59"/><polygon class="cls-73" points="361.78 178.59 362.76 178.02 312.76 149.15 311.78 149.72 361.78 178.59"/><path class="cls-74" d="M361.78,178.59v1.14l32.28-18.64h0l.63-.37a.83.83,0,0,0,.42-.72v-7.69A.89.89,0,0,0,395,152h0a.05.05,0,0,0,0,0,.76.76,0,0,0-.12-.19l-.09-.11-.16-.1a.46.46,0,0,0-.16-.07.9.9,0,0,0-.16,0h-.28v0l-.21.06L361.78,170.1v1.14l32.28-18.64V160Z"/><path class="cls-75" d="M396.65,139.3l-32.07,18.52v9.62l32.91-19a.82.82,0,0,0,.42-.72V140A.84.84,0,0,0,396.65,139.3Z"/><path class="cls-76" d="M364.58,157.82l.4-.24.54.31,32.08-18.52-50-28.87h0a.83.83,0,0,0-.93-.08h0L314.58,129h0Z"/><polygon class="cls-77" points="365.56 165.73 365.57 165.73 365.57 158.39 315.56 129.52 315.56 139.14 364.58 167.44 365.56 165.73"/><polygon class="cls-78" points="364.58 157.81 364.58 158.95 314.57 130.09 314.58 128.95 364.58 157.81"/><polygon class="cls-79" points="364.58 166.3 364.58 167.44 314.57 138.57 314.58 137.43 364.58 166.3"/><polygon class="cls-80" points="364.58 166.3 365.56 165.73 315.56 136.86 314.58 137.43 364.58 166.3"/><path class="cls-81" d="M364.58,166.3v1.14l32.28-18.64h0l.63-.37a.82.82,0,0,0,.42-.72V140a.77.77,0,0,0-.07-.27h0s0,0,0,0a.71.71,0,0,0-.12-.18.48.48,0,0,0-.09-.11.57.57,0,0,0-.16-.11l-.16-.07a.9.9,0,0,0-.16,0h-.28v0a.86.86,0,0,0-.21.07l-32.07,18.52V159l32.28-18.63v7.34Z"/><path class="cls-82" d="M235.84,117.17l24.67,14.24v7.4L235.2,124.2a.65.65,0,0,1-.32-.56v-5.91A.64.64,0,0,1,235.84,117.17Z"/><path class="cls-83" d="M260.51,131.41l-.31-.18-.42.24-24.66-14.24L273.57,95h0a.65.65,0,0,1,.72-.06h0L299,109.21h0Z"/><polygon class="cls-84" points="259.75 137.5 259.75 137.5 259.75 131.85 298.2 109.65 298.2 117.05 260.51 138.81 259.75 137.5"/><polygon class="cls-85" points="260.51 131.41 260.51 132.29 298.96 110.09 298.96 109.21 260.51 131.41"/><polygon class="cls-86" points="260.51 137.94 260.51 138.81 298.96 116.61 298.96 115.74 260.51 137.94"/><polygon class="cls-87" points="260.51 137.94 259.75 137.5 298.2 115.3 298.96 115.74 260.51 137.94"/><path class="cls-88" d="M260.51,137.94v.87l-24.82-14.33h0l-.49-.28a.65.65,0,0,1-.32-.56v-5.91a.46.46,0,0,1,.05-.21h0s0,0,0,0a.55.55,0,0,1,.09-.14.27.27,0,0,1,.07-.08.94.94,0,0,1,.12-.09l.13,0,.12,0h.22a.88.88,0,0,1,.15,0l24.67,14.24v.88L235.69,118v5.65Z"/><g class="cls-1"><path class="cls-89" d="M211.48,54.26a1.8,1.8,0,0,1,.39-.08h0a1.64,1.64,0,0,1,.39,0h0a1,1,0,0,1,.34.13l-1.77-1h0l-.12-.06-.13,0-.08,0h0l-.15,0H210l-.21,0-.09,0-.09,0-.1,0a3.4,3.4,0,0,0-.34.16l-94.31,54.46a3.91,3.91,0,0,0-.45.3l-.13.13c-.07.06-.14.11-.21.18l-.09.1-.08.08-.09.1a2.11,2.11,0,0,0-.19.23l-.07.09,0,0-.06.08-.14.21-.12.2v0l-.09.16c0,.07-.07.14-.11.2s0,.13-.08.19h0l-.09.21-.08.23,0,.11,0,.05s0,0,0,.08a2.68,2.68,0,0,0-.07.27l0,.17s0,0,0,.08,0,.06,0,.08a3.71,3.71,0,0,0,0,.47l.2,70.21a1.71,1.71,0,0,0,.69,1.53l1.78,1a1.66,1.66,0,0,1-.7-1.52L114.28,113a2.55,2.55,0,0,1,0-.54s0-.06,0-.08a4.37,4.37,0,0,1,.12-.52l0-.05a3.78,3.78,0,0,1,.21-.56h0a5.85,5.85,0,0,1,.28-.56h0a4.45,4.45,0,0,1,.33-.51l0,0a4.87,4.87,0,0,1,.35-.42l.08-.09.3-.28.14-.12a4.37,4.37,0,0,1,.44-.31L211,54.49a3.46,3.46,0,0,1,.45-.2Z"/><path class="cls-90" d="M211,54.49c1.32-.76,2.39-.15,2.39,1.36l.2,70.21a5.19,5.19,0,0,1-2.37,4.11l-94.31,54.45c-1.31.75-2.38.15-2.39-1.36L114.28,113a5.21,5.21,0,0,1,2.36-4.1Z"/></g><g class="cls-1"><path class="cls-91" d="M276.38,168.77h0v-2.05a1.13,1.13,0,0,1-.06.36v0a1.59,1.59,0,0,1-.16.32l0,0a2.26,2.26,0,0,1-.26.29c-.05,0-.12.09-.18.14a2.11,2.11,0,0,1-.29.2l-94.3,54.45a4.79,4.79,0,0,1-.69.3l-.26.07-.3.08-.43.07h-.08a5.44,5.44,0,0,1-.57,0h-.08a5.12,5.12,0,0,1-.56,0H178l-.54-.1-.1,0a4,4,0,0,1-.49-.15l-.05,0a4,4,0,0,1-.51-.24l-60.71-35.28a1.89,1.89,0,0,1-.91-1,1.19,1.19,0,0,1-.06-.37h0V188a1.7,1.7,0,0,0,1,1.36l60.71,35.28a4,4,0,0,0,.51.24h0l0,0,.35.11.15,0,.1,0,.1,0,.33.05h.18l.15,0h.66l.37,0h.12l.3,0a.5.5,0,0,1,.13,0l.3-.08.17,0,.08,0a3.57,3.57,0,0,0,.69-.29l94.31-54.45.11-.07a1.26,1.26,0,0,0,.17-.13l.19-.15,0,0a2.09,2.09,0,0,0,.2-.22l0,0,0-.05.08-.12a1.08,1.08,0,0,0,.08-.19v0a1,1,0,0,0,0-.14,1.36,1.36,0,0,0,0-.2v0Z"/><path class="cls-92" d="M210,130.09a5.24,5.24,0,0,1,4.74,0l60.71,35.28c1.3.76,1.29,2,0,2.75l-94.3,54.45a5.21,5.21,0,0,1-4.74,0l-60.71-35.28c-1.3-.76-1.3-2,0-2.75Z"/></g><g class="cls-93"><g class="cls-1"><path class="cls-94" d="M206.22,137.07l4.25-2.45a1,1,0,0,1,.92,0l1.26.73c.25.15.25.39,0,.53l-4.25,2.46a1.06,1.06,0,0,1-.92,0l-1.26-.74c-.25-.14-.25-.38,0-.53"/><path class="cls-94" d="M199.86,140.75l4.24-2.46a1.06,1.06,0,0,1,.92,0l1.26.74c.25.14.25.38,0,.53L202,142a1,1,0,0,1-.92,0l-1.26-.73a.28.28,0,0,1,0-.53"/><path class="cls-94" d="M193.49,144.42l4.24-2.45a1,1,0,0,1,.92,0l1.26.73a.28.28,0,0,1,0,.54l-4.25,2.45a1,1,0,0,1-.92,0l-1.26-.73a.29.29,0,0,1,0-.54"/><path class="cls-94" d="M187.12,148.1l4.24-2.45a1,1,0,0,1,.92,0l1.26.73c.25.15.26.39,0,.54l-4.24,2.44a1,1,0,0,1-.92,0l-1.26-.73c-.26-.14-.26-.38,0-.53"/><path class="cls-94" d="M180.75,151.78l4.24-2.45a1,1,0,0,1,.92,0l1.26.73c.26.15.26.38,0,.53L182.93,153a1,1,0,0,1-.93,0l-1.26-.73a.28.28,0,0,1,0-.53"/><path class="cls-94" d="M174.38,155.45l4.25-2.45a1.06,1.06,0,0,1,.92,0l1.26.74c.25.14.25.38,0,.53l-4.24,2.45a1,1,0,0,1-.92,0l-1.26-.73c-.26-.15-.25-.39,0-.54"/><path class="cls-94" d="M168,159.13l4.25-2.45a1,1,0,0,1,.92,0l1.26.73a.29.29,0,0,1,0,.54l-4.25,2.45a1.06,1.06,0,0,1-.92,0l-1.26-.74c-.25-.14-.25-.38,0-.53"/><path class="cls-94" d="M161.64,162.81l4.25-2.45a1,1,0,0,1,.92,0l1.26.73c.25.15.25.39,0,.53l-4.25,2.45a1,1,0,0,1-.92,0l-1.26-.73c-.25-.15-.25-.39,0-.53"/><path class="cls-94" d="M155.27,166.48l4.25-2.45a1.06,1.06,0,0,1,.92,0l1.26.74c.25.14.25.38,0,.53l-4.25,2.45a1,1,0,0,1-.92,0l-1.26-.73a.29.29,0,0,1,0-.54"/><path class="cls-94" d="M148.91,170.16l4.24-2.45a1,1,0,0,1,.92,0l1.26.73a.29.29,0,0,1,0,.54l-4.25,2.45a1,1,0,0,1-.92,0l-1.26-.73a.29.29,0,0,1,0-.54"/><path class="cls-94" d="M142.53,173.84l4.25-2.45a1,1,0,0,1,.92,0l1.26.73c.25.15.26.38,0,.53l-4.25,2.46a1.06,1.06,0,0,1-.92,0l-1.26-.74c-.25-.14-.25-.38,0-.53"/><path class="cls-94" d="M136.17,177.52l4.24-2.46a1.06,1.06,0,0,1,.92,0l1.26.74c.26.14.25.38,0,.53l-4.25,2.45a1,1,0,0,1-.92,0l-1.26-.73a.28.28,0,0,1,0-.53"/><path class="cls-94" d="M129.8,181.19l4.25-2.45a1,1,0,0,1,.92,0l1.26.73a.29.29,0,0,1,0,.54L132,182.46a1,1,0,0,1-.92,0l-1.26-.73a.28.28,0,0,1,0-.54"/><path class="cls-94" d="M123.43,184.87l4.25-2.45a1,1,0,0,1,.92,0l1.26.73a.28.28,0,0,1,0,.53l-4.24,2.46a1.06,1.06,0,0,1-.92,0l-1.26-.74c-.25-.14-.25-.38,0-.53"/><path class="cls-94" d="M209.92,139.22l4.24-2.46a1.06,1.06,0,0,1,.92,0l3.17,1.84a.28.28,0,0,1,0,.53L214,141.59a1.06,1.06,0,0,1-.92,0l-3.17-1.84a.28.28,0,0,1,0-.53"/><path class="cls-94" d="M203.55,142.89l4.25-2.45a1,1,0,0,1,.92,0l3.16,1.84c.25.14.25.38,0,.53l-4.24,2.45a1,1,0,0,1-.92,0l-3.16-1.83c-.26-.15-.25-.39,0-.54"/><path class="cls-94" d="M197.18,146.57l4.25-2.45a1,1,0,0,1,.92,0l3.16,1.83a.29.29,0,0,1,0,.54l-4.25,2.45a1,1,0,0,1-.92,0l-3.16-1.84a.28.28,0,0,1,0-.53"/><path class="cls-94" d="M190.81,150.25l4.25-2.45a1,1,0,0,1,.92,0l3.16,1.83a.29.29,0,0,1,0,.54l-4.24,2.45a1,1,0,0,1-.92,0l-3.16-1.84a.28.28,0,0,1,0-.53"/><path class="cls-94" d="M184.45,153.92l4.24-2.45a1,1,0,0,1,.92,0l3.16,1.84a.28.28,0,0,1,0,.53l-4.25,2.45a1,1,0,0,1-.92,0l-3.16-1.84a.29.29,0,0,1,0-.54"/><path class="cls-94" d="M178.07,157.6l4.25-2.45a1,1,0,0,1,.92,0L186.4,157c.25.14.25.38,0,.53L182.15,160a1,1,0,0,1-.92,0l-3.16-1.84c-.25-.14-.25-.38,0-.53"/><path class="cls-94" d="M171.71,161.28l4.24-2.45a1,1,0,0,1,.92,0l3.16,1.83c.26.15.25.39,0,.54l-4.25,2.45a1,1,0,0,1-.92,0l-3.16-1.84a.28.28,0,0,1,0-.53"/><path class="cls-94" d="M165.34,165l4.24-2.45a1.06,1.06,0,0,1,.92,0l3.17,1.84a.28.28,0,0,1,0,.53l-4.24,2.46a1.06,1.06,0,0,1-.92,0l-3.17-1.84a.29.29,0,0,1,0-.54"/><path class="cls-94" d="M159,168.63l4.25-2.45a1,1,0,0,1,.92,0L167.3,168c.25.14.25.38,0,.53L163.05,171a1,1,0,0,1-.92,0L159,169.16c-.26-.14-.26-.38,0-.53"/><path class="cls-94" d="M152.6,172.31l4.24-2.45a1,1,0,0,1,.92,0l3.17,1.84c.25.14.25.38,0,.53l-4.24,2.45a1,1,0,0,1-.92,0l-3.17-1.84c-.25-.14-.25-.38,0-.53"/><path class="cls-94" d="M146.23,176l4.25-2.45a1,1,0,0,1,.92,0l3.16,1.83a.29.29,0,0,1,0,.54l-4.24,2.45a1.06,1.06,0,0,1-.92,0l-3.16-1.84a.28.28,0,0,1,0-.53"/><path class="cls-94" d="M139.86,179.66l4.25-2.45a1.06,1.06,0,0,1,.92,0l3.16,1.84c.25.15.25.39,0,.53L143.94,182a1,1,0,0,1-.92,0l-3.16-1.83a.29.29,0,0,1,0-.54"/><path class="cls-94" d="M127.12,187l5.91-3.41.31-.18,4.4-2.54a1,1,0,0,1,.92,0l3.16,1.84c.25.14.25.38,0,.53l-4.4,2.54-.31.18-5.91,3.41a1.06,1.06,0,0,1-.92,0l-3.16-1.84c-.25-.15-.25-.39,0-.53"/><path class="cls-94" d="M209.88,145.72l1.39-.8,3.32-1.92,5.17-3a1,1,0,0,1,.92,0l3.16,1.83a.29.29,0,0,1,0,.54l-5.17,3-3.33,1.92-1.38.8a1,1,0,0,1-.92,0l-3.16-1.84c-.25-.14-.25-.38,0-.53"/><path class="cls-94" d="M202.78,149.82l4.24-2.45a1,1,0,0,1,.92,0l3.16,1.84c.26.14.26.38,0,.53l-4.24,2.45a1,1,0,0,1-.93,0l-3.16-1.84c-.25-.14-.25-.38,0-.53"/><path class="cls-94" d="M196.41,153.5l4.24-2.45a1,1,0,0,1,.92,0l3.16,1.84a.28.28,0,0,1,0,.53l-4.24,2.45a1,1,0,0,1-.92,0L196.41,154c-.26-.15-.26-.38,0-.53"/><path class="cls-94" d="M190,157.17l4.24-2.45a1.06,1.06,0,0,1,.92,0l3.16,1.84a.28.28,0,0,1,0,.54l-4.24,2.44a1,1,0,0,1-.93,0L190,157.71a.29.29,0,0,1,0-.54"/><path class="cls-94" d="M183.67,160.85l4.25-2.45a1,1,0,0,1,.92,0l3.16,1.84a.28.28,0,0,1,0,.53l-4.24,2.45a1,1,0,0,1-.92,0l-3.16-1.83a.28.28,0,0,1,0-.54"/><path class="cls-94" d="M177.3,164.53l4.25-2.45a1,1,0,0,1,.92,0l3.16,1.84c.25.14.25.38,0,.53l-4.25,2.45a1,1,0,0,1-.92,0l-3.16-1.84c-.25-.14-.25-.38,0-.53"/><path class="cls-94" d="M170.93,168.21l4.25-2.46a1.06,1.06,0,0,1,.92,0l3.16,1.84c.25.15.25.39,0,.53L175,170.58a1.06,1.06,0,0,1-.92,0l-3.16-1.84c-.25-.15-.25-.39,0-.53"/><path class="cls-94" d="M164.56,171.88l4.25-2.45a1,1,0,0,1,.92,0l3.16,1.84c.25.14.25.38,0,.53l-4.25,2.45a1,1,0,0,1-.92,0l-3.16-1.83a.29.29,0,0,1,0-.54"/><path class="cls-94" d="M158.2,175.56l4.24-2.45a1,1,0,0,1,.92,0l3.16,1.84a.28.28,0,0,1,0,.53l-4.25,2.45a1,1,0,0,1-.92,0l-3.16-1.83a.29.29,0,0,1,0-.54"/><path class="cls-94" d="M151.82,179.24l4.25-2.45a1,1,0,0,1,.92,0l3.16,1.83c.25.15.26.39,0,.54l-4.25,2.45a1,1,0,0,1-.92,0l-3.16-1.84c-.25-.14-.25-.38,0-.53"/><path class="cls-94" d="M145.46,182.92l4.24-2.46a1.06,1.06,0,0,1,.92,0l3.16,1.84c.26.15.26.39,0,.53l-4.25,2.46a1.06,1.06,0,0,1-.92,0l-3.16-1.84a.28.28,0,0,1,0-.53"/><path class="cls-94" d="M219.31,146.76l6-3.49a1,1,0,0,1,.92,0l3.17,1.83a.29.29,0,0,1,0,.54l-6,3.49a1,1,0,0,1-.92,0l-3.17-1.84c-.25-.14-.25-.38,0-.53"/><path class="cls-94" d="M212.78,150.52l4.25-2.45a1.06,1.06,0,0,1,.92,0l3.16,1.84a.28.28,0,0,1,0,.53l-4.25,2.46a1.06,1.06,0,0,1-.92,0l-3.16-1.84a.29.29,0,0,1,0-.54"/><path class="cls-94" d="M206.42,154.2l4.24-2.45a1,1,0,0,1,.92,0l3.17,1.84c.25.14.25.38,0,.53l-4.24,2.45a1,1,0,0,1-.92,0l-3.17-1.84c-.25-.14-.25-.38,0-.53"/><path class="cls-94" d="M200.05,157.88l4.25-2.45a1,1,0,0,1,.92,0l3.16,1.83a.29.29,0,0,1,0,.54l-4.24,2.45a1.06,1.06,0,0,1-.92,0l-3.16-1.84a.28.28,0,0,1,0-.53"/><path class="cls-94" d="M193.68,161.55l4.25-2.45a1.06,1.06,0,0,1,.92,0l3.16,1.84c.25.15.25.39,0,.53l-4.25,2.45a1,1,0,0,1-.92,0l-3.16-1.83c-.25-.15-.26-.39,0-.54"/><path class="cls-94" d="M187.31,165.23l4.25-2.45a1,1,0,0,1,.92,0l3.16,1.84c.25.15.25.38,0,.53l-4.24,2.45a1,1,0,0,1-.92,0l-3.16-1.83a.28.28,0,0,1,0-.54"/><path class="cls-94" d="M180.94,168.91l4.25-2.45a1,1,0,0,1,.92,0l3.16,1.84c.25.14.25.38,0,.53L185,171.28a1,1,0,0,1-.92,0l-3.16-1.84c-.25-.14-.25-.38,0-.53"/><path class="cls-94" d="M174.57,172.59l4.25-2.46a1.06,1.06,0,0,1,.92,0L182.9,172a.29.29,0,0,1,0,.54L178.65,175a1.06,1.06,0,0,1-.92,0l-3.16-1.84c-.25-.15-.25-.39,0-.53"/><path class="cls-94" d="M168.2,176.26l4.25-2.45a1,1,0,0,1,.92,0l3.16,1.84a.28.28,0,0,1,0,.53l-4.25,2.45a1,1,0,0,1-.92,0l-3.16-1.83a.29.29,0,0,1,0-.54"/><path class="cls-94" d="M161.84,179.94l4.24-2.45a1,1,0,0,1,.92,0l3.16,1.84c.26.14.26.38,0,.53l-4.24,2.45a1,1,0,0,1-.93,0l-3.16-1.84c-.25-.14-.25-.38,0-.53"/><path class="cls-94" d="M155.47,183.62l4.24-2.45a1,1,0,0,1,.93,0L163.8,183a.29.29,0,0,1,0,.54L159.55,186a1,1,0,0,1-.92,0l-3.16-1.84c-.26-.15-.26-.38,0-.53"/><path class="cls-94" d="M149.1,187.29l4.24-2.45a1,1,0,0,1,.92,0l3.16,1.84c.26.15.26.38,0,.53l-4.24,2.45a1,1,0,0,1-.93,0l-3.16-1.84a.29.29,0,0,1,0-.54"/><path class="cls-94" d="M132.72,190.27l10.61-6.13a1,1,0,0,1,.93,0l3.16,1.84c.25.14.25.38,0,.53l-1.31.76a.5.5,0,0,0,0,.94l4.32,2.51a.28.28,0,0,1,0,.54l-8,4.63a1,1,0,0,1-.92,0l-5.13-3-2-1.19-1.58-.92a.28.28,0,0,1,0-.53"/><path class="cls-94" d="M226.7,149l4.25-2.45a1,1,0,0,1,.92,0l3.16,1.84c.25.14.25.38,0,.53l-4.25,2.45a1,1,0,0,1-.92,0l-3.16-1.84c-.25-.14-.25-.38,0-.53"/><path class="cls-94" d="M220.33,152.65l4.25-2.45a1,1,0,0,1,.92,0l3.16,1.83c.26.15.25.39,0,.54L224.41,155a1.06,1.06,0,0,1-.92,0l-3.16-1.84c-.25-.15-.25-.39,0-.53"/><path class="cls-94" d="M214,156.32l4.24-2.45a1.06,1.06,0,0,1,.92,0l3.17,1.84a.28.28,0,0,1,0,.53l-4.24,2.45a1,1,0,0,1-.92,0L214,156.86a.29.29,0,0,1,0-.54"/><path class="cls-94" d="M207.6,160l4.24-2.45a1,1,0,0,1,.92,0l3.16,1.84c.26.15.26.38,0,.53l-4.24,2.45a1,1,0,0,1-.92,0l-3.16-1.84c-.26-.14-.26-.38,0-.53"/><path class="cls-94" d="M201.23,163.68l4.24-2.45a1,1,0,0,1,.92,0l3.17,1.84c.25.14.25.38,0,.53l-4.24,2.45a1,1,0,0,1-.93,0l-3.16-1.84c-.25-.14-.25-.38,0-.53"/><path class="cls-94" d="M194.86,167.36l4.25-2.46a1.06,1.06,0,0,1,.92,0l3.16,1.84a.28.28,0,0,1,0,.53l-4.24,2.46a1.06,1.06,0,0,1-.92,0l-3.16-1.84c-.26-.15-.26-.39,0-.53"/><path class="cls-94" d="M188.49,171l4.25-2.45a1,1,0,0,1,.92,0l3.16,1.84c.25.14.25.38,0,.53l-4.25,2.45a1,1,0,0,1-.92,0l-3.16-1.83a.29.29,0,0,1,0-.54"/><path class="cls-94" d="M182.12,174.71l4.25-2.45a1,1,0,0,1,.92,0l3.16,1.83a.29.29,0,0,1,0,.54l-4.25,2.45a1,1,0,0,1-.92,0l-3.16-1.84c-.25-.14-.25-.38,0-.53"/><path class="cls-94" d="M175.75,178.39l4.25-2.46a1.06,1.06,0,0,1,.92,0l3.16,1.84a.28.28,0,0,1,0,.53l-4.25,2.46a1,1,0,0,1-.92,0l-3.16-1.84a.28.28,0,0,1,0-.53"/><path class="cls-94" d="M169.39,182.06l4.24-2.45a1,1,0,0,1,.92,0l3.16,1.84c.25.15.26.38,0,.53l-4.24,2.45a1,1,0,0,1-.93,0l-3.16-1.84a.29.29,0,0,1,0-.54"/><path class="cls-94" d="M163,185.74l4.25-2.45a1,1,0,0,1,.92,0l3.16,1.84a.28.28,0,0,1,0,.53l-4.25,2.45a1,1,0,0,1-.92,0L163,186.27c-.25-.14-.25-.38,0-.53"/><path class="cls-94" d="M156.65,189.42l4.24-2.45a1,1,0,0,1,.92,0L165,188.8a.28.28,0,0,1,0,.54l-4.25,2.45a1,1,0,0,1-.92,0L156.64,190a.28.28,0,0,1,0-.53"/><path class="cls-94" d="M143.91,196.77l5.91-3.41.31-.18,4.4-2.54a1.06,1.06,0,0,1,.92,0l3.16,1.84a.28.28,0,0,1,0,.53l-4.39,2.54-.31.18L148,199.14a1,1,0,0,1-.92,0l-3.16-1.84c-.25-.14-.25-.38,0-.53"/><path class="cls-94" d="M232.3,152.22l4.24-2.45a1,1,0,0,1,.93,0l3.16,1.84c.25.15.25.38,0,.53l-4.24,2.45a1,1,0,0,1-.92,0l-3.16-1.83a.28.28,0,0,1,0-.54"/><path class="cls-94" d="M225.93,155.9l4.25-2.45a1,1,0,0,1,.92,0l3.16,1.83a.29.29,0,0,1,0,.54L230,158.27a1,1,0,0,1-.92,0l-3.16-1.84c-.25-.14-.25-.38,0-.53"/><path class="cls-94" d="M219.56,159.58l4.25-2.46a1,1,0,0,1,.92,0l3.16,1.83a.28.28,0,0,1,0,.53L223.64,162a1.06,1.06,0,0,1-.92,0l-3.16-1.84c-.25-.15-.26-.39,0-.53"/><path class="cls-94" d="M213.19,163.25l4.25-2.45a1,1,0,0,1,.92,0l3.16,1.83a.28.28,0,0,1,0,.53l-4.25,2.45a1,1,0,0,1-.92,0l-3.15-1.83a.29.29,0,0,1,0-.54"/><path class="cls-94" d="M181.35,181.64l4-2.28.76-.44,1.2-.69,5.17-3,1.19-.69,5.17-3,1.2-.7,5.17-3,5.91-3.41a1,1,0,0,1,.92,0l3.16,1.84c.26.15.26.38,0,.53l-5.91,3.41-5.17,3-1.2.7-5.17,3-1.2.69-5.17,3-1.19.69-.76.44L185.43,184a1,1,0,0,1-.92,0l-3.16-1.84c-.26-.15-.26-.38,0-.53"/><path class="cls-94" d="M175,185.31l4.24-2.45a1,1,0,0,1,.93,0l3.16,1.83a.29.29,0,0,1,0,.54l-4.24,2.44a1,1,0,0,1-.92,0L175,185.85a.28.28,0,0,1,0-.54"/><path class="cls-94" d="M168.61,189l4.25-2.45a1,1,0,0,1,.92,0l3.16,1.84c.25.15.25.38,0,.53l-4.24,2.45a1,1,0,0,1-.92,0l-3.16-1.83c-.26-.15-.25-.39,0-.54"/><path class="cls-94" d="M162.24,192.67l4.25-2.45a1,1,0,0,1,.92,0l3.16,1.84c.26.14.25.38,0,.53L166.32,195a1,1,0,0,1-.92,0l-3.16-1.83a.29.29,0,0,1,0-.54"/><path class="cls-94" d="M155.87,196.35l4.25-2.46a1,1,0,0,1,.92,0l.72.41a.28.28,0,0,1,0,.53l-4.24,2.46a1.06,1.06,0,0,1-.92,0l-.72-.42c-.25-.15-.25-.39,0-.53"/><path class="cls-94" d="M158.32,197.77l4.25-2.45a1,1,0,0,1,.92,0l.71.41a.28.28,0,0,1,0,.53L160,198.72a1,1,0,0,1-.92,0l-.71-.42c-.25-.14-.25-.38,0-.53"/><path class="cls-94" d="M149.51,200l4.24-2.45a1,1,0,0,1,.93,0l3.15,1.84c.26.15.25.38,0,.53l-4.25,2.45a1,1,0,0,1-.92,0l-3.15-1.83a.28.28,0,0,1,0-.54"/><path class="cls-94" d="M187.35,190.7,221,171.29a3,3,0,0,1,2.76,0l17.49,10.16a.84.84,0,0,1,0,1.6l-33.6,19.41a3.07,3.07,0,0,1-2.77,0L187.34,192.3c-.77-.44-.76-1.16,0-1.6"/></g></g><path class="cls-95" d="M207.83,58,118,109.86a5,5,0,0,0-2.24,3.88L116,178.8c0,1.42,1,2,2.25,1.28L208,128.22a5,5,0,0,0,2.24-3.87l-.19-65.06c0-1.43-1-2-2.25-1.29"/><path class="cls-96" d="M118.21,179.74c-1.08.62-1.95.12-1.95-1.12l-.19-65.05A4.34,4.34,0,0,1,118,110.2l89.82-51.85c1.08-.62,2-.12,2,1.11l.18,65.06a4.28,4.28,0,0,1-1.94,3.36l-89.82,51.86M207.83,57.67,118,109.52a5.58,5.58,0,0,0-2.53,4.39l.18,65.06c0,1.61,1.15,2.26,2.55,1.45L208,128.56a5.62,5.62,0,0,0,2.54-4.39l-.19-65.06c0-1.61-1.15-2.25-2.55-1.44"/><polyline class="cls-97" points="174.06 123.22 124.23 151.99 124.24 154.66 174.07 125.9 174.06 123.22"/><polyline class="cls-97" points="157.09 140 124.25 158.96 124.26 161.63 157.1 142.67 157.09 140"/><polyline class="cls-97" points="145.53 153.66 124.27 165.94 124.28 168.61 145.54 156.34 145.53 153.66"/><path class="cls-97" d="M145.52,123.07l0-9.49,7.17.61-7.14,8.88M174,85.53,124.13,114.3l.09,32.68L174,118.22,174,85.53"/><polyline class="cls-97" points="201.77 69.47 180.88 81.53 180.98 114.21 201.86 102.16 201.77 69.47"/><polyline class="cls-98" points="145.49 113.58 145.52 123.07 152.66 114.19 145.49 113.58"/><path class="cls-99" d="M304.68,117.49c-4.59-2.66-12-2.66-16.57,0s-4.54,7,.06,9.6,12,2.65,16.57,0,4.53-7-.06-9.59"/><path class="cls-100" d="M303.33,118.44a15.88,15.88,0,0,0-13.85,0c-3.82,2.12-3.8,5.56,0,7.68a15.88,15.88,0,0,0,13.85,0c3.81-2.12,3.79-5.56,0-7.68"/><path class="cls-101" d="M287,102.74a1,1,0,0,0-1.28-.7l-.09,0a1,1,0,0,0-.69,1.28l10.17,34.46a4.46,4.46,0,0,0,1.07-.19,4.83,4.83,0,0,0,1-.42Z"/><polygon class="cls-3" points="297.2 141.22 295.07 137.81 297.13 137.2 297.2 141.22"/><path class="cls-3" d="M285.88,102.9a1.06,1.06,0,0,0-.72,1.33l1.15,3.9a4.9,4.9,0,0,0,1.06-.18,4.71,4.71,0,0,0,1-.43l-1.15-3.9A1.08,1.08,0,0,0,285.88,102.9Z"/><path class="cls-102" d="M285.64,102.06a1.07,1.07,0,0,0-.73,1.33l1.15,3.9a4.55,4.55,0,0,0,1.07-.19,4.83,4.83,0,0,0,1-.42l-1.15-3.9A1.07,1.07,0,0,0,285.64,102.06Z"/><path class="cls-103" d="M297.2,141.22l0-1.12a1.57,1.57,0,0,0-.3.05,1.11,1.11,0,0,0-.27.12Z"/><path class="cls-104" d="M306.87,105.73a5,5,0,0,0-1.06-.21l-10.73,34.3a1,1,0,0,0,.67,1.29l.09,0a1,1,0,0,0,1.29-.67l10.73-34.29A4.89,4.89,0,0,0,306.87,105.73Z"/><polygon class="cls-3" points="307.99 102.15 307.86 106.17 305.81 105.52 307.99 102.15"/><path class="cls-3" d="M296.06,140.28a1.08,1.08,0,0,0,1.35-.7l1.21-3.88a4.89,4.89,0,0,0-1-.44,4.4,4.4,0,0,0-1.06-.2l-1.21,3.88A1.06,1.06,0,0,0,296.06,140.28Z"/><path class="cls-105" d="M295.8,141.12a1.07,1.07,0,0,0,1.34-.71l1.22-3.88a5.48,5.48,0,0,0-1-.43,5,5,0,0,0-1.06-.21l-1.22,3.88A1.08,1.08,0,0,0,295.8,141.12Z"/><path class="cls-106" d="M308,102.15l-.6.94a1.11,1.11,0,0,0,.27.12l.29.06Z"/><path class="cls-107" d="M294.12,99.66a5,5,0,0,0-1.09,0,5.17,5.17,0,0,0-1,.24l.45,4h0l4,36.17a1,1,0,0,0,1.14.9h.09a1,1,0,0,0,.91-1.13Z"/><polygon class="cls-3" points="292.62 95.94 294.12 99.66 291.98 99.9 292.62 95.94"/><path class="cls-3" d="M297.54,140.14a1.08,1.08,0,0,0,.95-1.19l-.45-4a4.34,4.34,0,0,0-1.08,0,4.67,4.67,0,0,0-1.06.24l.45,4A1.08,1.08,0,0,0,297.54,140.14Z"/><path class="cls-105" d="M297.64,141a1.07,1.07,0,0,0,.94-1.19l-.45-4a4.87,4.87,0,0,0-1.08,0A4.58,4.58,0,0,0,296,136l.45,4A1.08,1.08,0,0,0,297.64,141Z"/><path class="cls-108" d="M292.62,95.94l-.18,1.1h.3A1.37,1.37,0,0,0,293,97Z"/><path class="cls-109" d="M299.64,95.71h-.09a1,1,0,0,0-1.07,1L296.91,133h0l-.17,4.06a4.2,4.2,0,0,0,1.07.17,4.83,4.83,0,0,0,1.08-.07l1.74-40.42A1,1,0,0,0,299.64,95.71Z"/><polygon class="cls-3" points="297.65 141.01 296.74 137.1 298.89 137.2 297.65 141.01"/><path class="cls-3" d="M299.56,96.58a1.09,1.09,0,0,0-1.12,1l-.18,4.06a4.27,4.27,0,0,0,1.07.17,4.83,4.83,0,0,0,1.08-.07l.18-4.07A1.09,1.09,0,0,0,299.56,96.58Z"/><path class="cls-110" d="M299.6,95.71a1.06,1.06,0,0,0-1.12,1l-.18,4.06a5.43,5.43,0,0,0,1.07.17,5.5,5.5,0,0,0,1.08-.08l.17-4.06A1.06,1.06,0,0,0,299.6,95.71Z"/><path class="cls-103" d="M297.65,141,298,140a1.36,1.36,0,0,0-.3,0,.93.93,0,0,0-.29,0Z"/><polygon class="cls-111" points="286.63 121.96 286.63 121.96 286.63 121.96 286.63 121.96"/><path class="cls-99" d="M303.37,126a15.26,15.26,0,0,1-13.85,0c-1.92-1.11-2.88-2.56-2.89-4v22.43c0,1.45,1,2.91,2.89,4a15.26,15.26,0,0,0,13.85,0c1.91-1.11,2.86-2.56,2.85-4V122C306.23,123.42,305.28,124.87,303.37,126Z"/><polygon class="cls-112" points="284.71 122.28 284.71 122.28 284.71 122.28 284.71 122.28"/><path class="cls-113" d="M304.74,127.08c-4.57,2.65-12,2.65-16.57,0-2.3-1.32-3.45-3.06-3.46-4.8V149.1c0,1.74,1.16,3.48,3.46,4.81,4.59,2.64,12,2.64,16.57,0,2.27-1.32,3.41-3.06,3.4-4.8V122.28C308.15,124,307,125.75,304.74,127.08Z"/><path class="cls-114" d="M59.7,166.19l29.38,17,7.63-4.41-30.14-17.4a.76.76,0,0,0-.77,0l-6.1,3.52A.77.77,0,0,0,59.7,166.19Z"/><path class="cls-115" d="M89.08,183.15l-.37-.21v-.57l-29.38-17v52.87h0a.74.74,0,0,0,.36.77h0l29.38,17h0Z"/><polygon class="cls-116" points="94.91 178.75 94.91 178.74 89.08 182.1 89.08 234.99 96.72 230.58 96.71 178.75 94.91 178.75"/><polygon class="cls-117" points="89.08 183.15 89.98 182.63 89.99 235.51 89.08 236.03 89.08 183.15"/><polygon class="cls-118" points="95.81 179.27 96.71 178.75 96.72 231.62 95.81 232.14 95.81 179.27"/><polygon class="cls-119" points="95.81 179.27 94.91 178.75 94.91 231.62 95.81 232.14 95.81 179.27"/><path class="cls-120" d="M95.81,179.27l.9-.53L67.15,161.68h0l-.58-.34a.76.76,0,0,0-.77,0l-6.1,3.52a.81.81,0,0,0-.19.18h0a.06.06,0,0,0,0,0,.52.52,0,0,0-.1.18.56.56,0,0,0,0,.12.37.37,0,0,0,0,.18.92.92,0,0,0,0,.16l.06.14a.39.39,0,0,0,.1.16l0,.06h0a1.79,1.79,0,0,0,.14.13l29.38,17,.9-.52L60.42,165.56l5.83-3.36Z"/><path class="cls-121" d="M51.41,171l29.38,17,7.63-4.41-30.14-17.4a.76.76,0,0,0-.77,0l-6.1,3.52A.77.77,0,0,0,51.41,171Z"/><path class="cls-122" d="M80.79,188l-.37-.22v-.57L51,170.2v52.88h0a.75.75,0,0,0,.36.78h0l29.38,17h0Z"/><polygon class="cls-123" points="86.62 183.54 86.62 183.54 80.79 186.9 80.79 239.78 88.43 235.37 88.42 183.54 86.62 183.54"/><polygon class="cls-124" points="80.79 187.95 81.69 187.43 81.7 240.31 80.79 240.83 80.79 187.95"/><polygon class="cls-125" points="87.52 184.06 88.42 183.54 88.43 236.42 87.52 236.94 87.52 184.06"/><polygon class="cls-126" points="87.52 184.06 86.62 183.54 86.61 236.42 87.52 236.94 87.52 184.06"/><path class="cls-127" d="M87.52,184.06l.9-.52L58.86,166.47h0l-.58-.33a.76.76,0,0,0-.77,0l-6.1,3.52a.65.65,0,0,0-.19.18h0a0,0,0,0,0,0,0,.81.81,0,0,0-.1.18.5.5,0,0,0,0,.13.49.49,0,0,0,0,.17.81.81,0,0,0,0,.16l.06.14a.39.39,0,0,0,.1.16l0,.06h0a.93.93,0,0,0,.14.14l29.38,17,.9-.52L52.13,170.36,58,167Z"/><path class="cls-128" d="M43.12,175.78l29.38,17,7.63-4.4L50,170.93a.81.81,0,0,0-.77,0l-6.1,3.52A.77.77,0,0,0,43.12,175.78Z"/><path class="cls-129" d="M72.5,192.74l-.37-.21V192L42.75,175v52.88h0a.75.75,0,0,0,.36.78h0l29.38,17h0Z"/><polygon class="cls-130" points="78.33 188.34 78.33 188.33 72.5 191.7 72.5 244.58 80.14 240.17 80.13 188.34 78.33 188.34"/><polygon class="cls-131" points="72.5 192.74 73.4 192.22 73.41 245.1 72.5 245.62 72.5 192.74"/><polygon class="cls-132" points="79.23 188.86 80.13 188.34 80.14 241.22 79.23 241.74 79.23 188.86"/><polygon class="cls-133" points="79.23 188.86 78.33 188.34 78.33 241.22 79.23 241.74 79.23 188.86"/><path class="cls-134" d="M79.23,188.86l.9-.52L50.57,171.27h0l-.58-.34a.81.81,0,0,0-.77,0l-6.1,3.52a1.09,1.09,0,0,0-.19.18h0a0,0,0,0,0,0,0,.52.52,0,0,0-.1.18.56.56,0,0,0,0,.12,1.09,1.09,0,0,0,0,.18.92.92,0,0,0,0,.16l.06.14a.54.54,0,0,0,.1.16l0,.06h0c.05,0,.08.1.14.13l29.38,17,.9-.52L43.84,175.15l5.83-3.36Z"/><path class="cls-135" d="M117.65,228.73l3.94,3.68V209h-1.82a5.37,5.37,0,0,0-5.37,5.37v6.82A10.29,10.29,0,0,0,117.65,228.73Z"/><path class="cls-97" d="M119.35,226.76l2.24,2.1V212.77h-1a3.05,3.05,0,0,0-3,3.06v6.66A5.84,5.84,0,0,0,119.35,226.76Z"/><path class="cls-136" d="M142.79,232.22V213H119.35v19.25c0,1.74,1.17,3.47,3.47,4.8,4.58,2.65,12,2.65,16.56,0C141.66,235.69,142.8,234,142.79,232.22Z"/><path class="cls-137" d="M139.33,208.18c-4.6-2.65-12-2.65-16.57,0s-4.54,7,.06,9.61,12,2.64,16.56,0,4.54-6.94,0-9.59"/><path class="cls-138" d="M138,209.14a15.86,15.86,0,0,0-13.86,0c-3.81,2.13-3.79,5.56,0,7.69a15.84,15.84,0,0,0,13.85,0c3.81-2.12,3.79-5.55,0-7.67"/><path class="cls-139" d="M138,216.81a7.45,7.45,0,0,0,1.52-1.1,7.15,7.15,0,0,0-1.56-1.14,15.86,15.86,0,0,0-13.86,0,7.13,7.13,0,0,0-1.52,1.12,7.67,7.67,0,0,0,1.57,1.14A15.84,15.84,0,0,0,138,216.81Z"/><path class="cls-140" d="M128.66,214.91a3.24,3.24,0,0,0-2.82,0c-.77.43-.77,1.13,0,1.56a3.24,3.24,0,0,0,2.82,0c.78-.43.77-1.13,0-1.56"/><path class="cls-141" d="M132,216.27a.89.89,0,0,0-.78,0,.23.23,0,0,0,0,.44.89.89,0,0,0,.78,0c.22-.12.22-.32,0-.44"/><path class="cls-142" d="M135.11,214.47a1,1,0,0,0-.91,0c-.25.14-.24.36,0,.5a1,1,0,0,0,.9,0c.25-.14.25-.36,0-.5"/><path class="cls-143" d="M130.05,214.21s-7.2-3.65-1.93-10.35c5.65-7.19,1.93-13,1.93-13s4.53,6.81,1.7,12.36A18.14,18.14,0,0,0,130.05,214.21Z"/><path class="cls-143" d="M131.49,200.85s2.81,4.67-.91,10.67C130.58,211.52,137.09,206.45,131.49,200.85Z"/><path class="cls-144" d="M303.29,61.28v5.23h-.53V62.32l-2.06,3.52h-.26l-2.05-3.5v4.17h-.54V61.28h.46l2.27,3.87,2.25-3.87Z"/><path class="cls-144" d="M308.19,62.58l-2,4.4c-.33.77-.75,1-1.31,1a1.34,1.34,0,0,1-1-.36l.24-.39a1,1,0,0,0,.72.3c.35,0,.59-.17.81-.66l.18-.38-1.76-3.92h.55l1.48,3.34,1.48-3.34Z"/><path class="cls-144" d="M318.19,61.28l-1.77,5.23h-.58l-1.53-4.46-1.54,4.46h-.57l-1.77-5.23H311l1.51,4.49,1.56-4.49h.52l1.54,4.52,1.53-4.52Z"/><path class="cls-144" d="M322.21,64.71h-3.28a1.44,1.44,0,0,0,1.54,1.36,1.57,1.57,0,0,0,1.21-.51l.29.34a1.91,1.91,0,0,1-1.51.64,1.94,1.94,0,0,1-2.06-2,1.89,1.89,0,0,1,1.92-2,1.87,1.87,0,0,1,1.9,2S322.21,64.65,322.21,64.71Zm-3.28-.4h2.78a1.39,1.39,0,0,0-2.78,0Z"/><path class="cls-144" d="M327.29,64.54a1.91,1.91,0,0,1-2,2,1.69,1.69,0,0,1-1.51-.81v.78h-.51V61h.53v2.36a1.72,1.72,0,0,1,1.49-.77A1.9,1.9,0,0,1,327.29,64.54Zm-.53,0a1.47,1.47,0,1,0-1.47,1.53A1.45,1.45,0,0,0,326.76,64.54Z"/><path class="cls-144" d="M327.83,66.06l.24-.42a2.33,2.33,0,0,0,1.4.44c.74,0,1-.25,1-.64,0-1-2.55-.22-2.55-1.77,0-.65.56-1.12,1.56-1.12a2.73,2.73,0,0,1,1.39.36l-.23.43a2,2,0,0,0-1.16-.34c-.71,0-1,.28-1,.65,0,1.06,2.55.26,2.55,1.77,0,.68-.6,1.12-1.62,1.12A2.67,2.67,0,0,1,327.83,66.06Z"/><path class="cls-144" d="M331.91,61.34a.39.39,0,1,1,.39.38A.38.38,0,0,1,331.91,61.34Zm.12,1.24h.53v3.93H332Z"/><path class="cls-144" d="M336.11,66.27a1.29,1.29,0,0,1-.83.27,1,1,0,0,1-1.15-1.14V63h-.7v-.44h.7v-.86h.53v.86h1.2V63h-1.2v2.35a.63.63,0,0,0,.68.72.92.92,0,0,0,.59-.2Z"/><path class="cls-144" d="M340.36,64.71h-3.29a1.45,1.45,0,0,0,1.55,1.36,1.55,1.55,0,0,0,1.2-.51l.3.34a2.08,2.08,0,0,1-3.58-1.36,1.9,1.9,0,0,1,1.92-2,1.87,1.87,0,0,1,1.91,2S340.36,64.65,340.36,64.71Zm-3.29-.4h2.79a1.4,1.4,0,0,0-2.79,0Z"/><path class="cls-144" d="M344,62.11v.47h1.21V63H344v3.49h-.53V63h-.7v-.44h.7v-.49a1.09,1.09,0,0,1,1.19-1.17,1.26,1.26,0,0,1,.78.25l-.17.4a.9.9,0,0,0-.59-.2C344.26,61.37,344,61.63,344,62.11Z"/><path class="cls-144" d="M345.48,64.54a2,2,0,1,1,2,2A1.94,1.94,0,0,1,345.48,64.54Zm3.46,0a1.46,1.46,0,1,0-1.45,1.53A1.43,1.43,0,0,0,348.94,64.54Z"/><path class="cls-144" d="M352.55,62.55v.51h-.13a1.27,1.27,0,0,0-1.32,1.45v2h-.53V62.58h.51v.77A1.46,1.46,0,0,1,352.55,62.55Z"/><path class="cls-144" d="M355,66.06l.24-.42a2.33,2.33,0,0,0,1.4.44c.74,0,1.05-.25,1.05-.64,0-1-2.55-.22-2.55-1.77,0-.65.55-1.12,1.56-1.12a2.73,2.73,0,0,1,1.39.36l-.24.43a2,2,0,0,0-1.15-.34c-.71,0-1,.28-1,.65,0,1.06,2.55.26,2.55,1.77,0,.68-.6,1.12-1.62,1.12A2.67,2.67,0,0,1,355,66.06Z"/><path class="cls-144" d="M363.16,64.54a1.89,1.89,0,0,1-2,2,1.74,1.74,0,0,1-1.5-.77V68h-.53V62.58h.51v.77a1.72,1.72,0,0,1,1.52-.8A1.89,1.89,0,0,1,363.16,64.54Zm-.53,0a1.47,1.47,0,1,0-1.46,1.53A1.44,1.44,0,0,0,362.63,64.54Z"/><path class="cls-144" d="M367.67,64.71h-3.29a1.45,1.45,0,0,0,1.55,1.36,1.54,1.54,0,0,0,1.2-.51l.3.34a1.91,1.91,0,0,1-1.51.64,2,2,0,0,1-2.07-2,1.9,1.9,0,0,1,1.92-2,1.87,1.87,0,0,1,1.91,2S367.67,64.65,367.67,64.71Zm-3.29-.4h2.79a1.4,1.4,0,0,0-2.79,0Z"/><path class="cls-144" d="M368.37,64.54a1.93,1.93,0,0,1,2-2,1.71,1.71,0,0,1,1.54.77l-.39.27a1.36,1.36,0,0,0-1.15-.58,1.53,1.53,0,0,0,0,3.06,1.35,1.35,0,0,0,1.15-.57l.39.27a1.74,1.74,0,0,1-1.54.77A1.94,1.94,0,0,1,368.37,64.54Z"/><path class="cls-144" d="M372.86,61.34a.39.39,0,1,1,.38.38A.38.38,0,0,1,372.86,61.34Zm.12,1.24h.53v3.93H373Z"/><path class="cls-144" d="M378.41,64.71h-3.29a1.45,1.45,0,0,0,1.55,1.36,1.55,1.55,0,0,0,1.2-.51l.3.34a2.08,2.08,0,0,1-3.58-1.36,1.89,1.89,0,0,1,1.92-2,1.87,1.87,0,0,1,1.91,2S378.41,64.65,378.41,64.71Zm-3.29-.4h2.79a1.4,1.4,0,0,0-2.79,0Z"/><path class="cls-144" d="M382.36,64.07v2.44h-.51v-.62a1.46,1.46,0,0,1-1.35.65c-.89,0-1.44-.46-1.44-1.14s.39-1.11,1.52-1.11h1.25v-.24c0-.67-.38-1-1.12-1a2,2,0,0,0-1.3.46l-.24-.39a2.47,2.47,0,0,1,1.6-.53A1.39,1.39,0,0,1,382.36,64.07Zm-.53,1.26v-.65h-1.24c-.76,0-1,.3-1,.71s.37.74,1,.74A1.27,1.27,0,0,0,381.83,65.33Z"/><path class="cls-144" d="M383.8,61h.53v5.55h-.53Z"/><path class="cls-144" d="M390.74,64.07v2.44h-.51v-.62a1.46,1.46,0,0,1-1.35.65c-.89,0-1.44-.46-1.44-1.14s.39-1.11,1.52-1.11h1.25v-.24c0-.67-.38-1-1.12-1a2,2,0,0,0-1.3.46l-.24-.39a2.47,2.47,0,0,1,1.6-.53A1.39,1.39,0,0,1,390.74,64.07Zm-.53,1.26v-.65H389c-.76,0-1,.3-1,.71s.36.74,1,.74A1.27,1.27,0,0,0,390.21,65.33Z"/><path class="cls-144" d="M395.8,64.23v2.28h-.53V64.28A1.1,1.1,0,0,0,394.09,63a1.29,1.29,0,0,0-1.38,1.42v2.07h-.53V62.58h.51v.72a1.65,1.65,0,0,1,1.5-.75A1.5,1.5,0,0,1,395.8,64.23Z"/><path class="cls-144" d="M400.85,61v5.55h-.51v-.78a1.7,1.7,0,0,1-1.52.81,2,2,0,0,1,0-4,1.74,1.74,0,0,1,1.5.77V61Zm-.53,3.58a1.46,1.46,0,1,0-1.45,1.53A1.43,1.43,0,0,0,400.32,64.54Z"/><path class="cls-144" d="M408.5,63.07c0,1.11-.81,1.79-2.14,1.79H405v1.65h-.55V61.28h2C407.69,61.28,408.5,62,408.5,63.07Zm-.56,0c0-.84-.55-1.32-1.6-1.32H405v2.62h1.39C407.39,64.37,407.94,63.89,407.94,63.07Z"/><path class="cls-144" d="M411.47,62.55v.51h-.13A1.27,1.27,0,0,0,410,64.5v2h-.54V62.58H410v.77A1.48,1.48,0,0,1,411.47,62.55Z"/><path class="cls-144" d="M412,64.54a2,2,0,1,1,2,2A1.93,1.93,0,0,1,412,64.54Zm3.46,0A1.46,1.46,0,1,0,414,66.07,1.43,1.43,0,0,0,415.45,64.54Z"/><path class="cls-144" d="M417.68,62.11v.47h1.21V63h-1.2v3.49h-.53V63h-.7v-.44h.7v-.49a1.09,1.09,0,0,1,1.19-1.17,1.31,1.31,0,0,1,.79.25l-.18.4a.9.9,0,0,0-.59-.2C417.92,61.37,417.68,61.63,417.68,62.11Z"/><path class="cls-144" d="M420.89,60.92a1.26,1.26,0,0,1,.78.25l-.18.4a.89.89,0,0,0-.58-.2.65.65,0,0,0-.7.74v.47h1.21V63h-1.19v3.49h-.53V63H419v-.44h.7v-.49A1.09,1.09,0,0,1,420.89,60.92Zm2.51.41A.39.39,0,1,1,423,61,.38.38,0,0,1,423.4,61.33Zm-.66,1.25h.53v3.93h-.53Z"/><path class="cls-144" d="M424.21,66.06l.24-.42a2.32,2.32,0,0,0,1.39.44c.75,0,1.06-.25,1.06-.64,0-1-2.55-.22-2.55-1.77,0-.65.55-1.12,1.55-1.12a2.7,2.7,0,0,1,1.39.36l-.23.43A2,2,0,0,0,425.9,63c-.71,0-1,.28-1,.65,0,1.06,2.55.26,2.55,1.77,0,.68-.6,1.12-1.62,1.12A2.67,2.67,0,0,1,424.21,66.06Z"/><path class="cls-144" d="M427.86,66.06l.24-.42a2.38,2.38,0,0,0,1.4.44c.75,0,1.05-.25,1.05-.64,0-1-2.55-.22-2.55-1.77,0-.65.56-1.12,1.56-1.12a2.7,2.7,0,0,1,1.39.36l-.23.43a2,2,0,0,0-1.16-.34c-.71,0-1,.28-1,.65,0,1.06,2.54.26,2.54,1.77,0,.68-.59,1.12-1.62,1.12A2.67,2.67,0,0,1,427.86,66.06Z"/><path class="cls-144" d="M432,61.34a.39.39,0,1,1,.38.38A.38.38,0,0,1,432,61.34Zm.11,1.24h.54v3.93h-.54Z"/><path class="cls-144" d="M433.68,64.54a2,2,0,1,1,2,2A1.93,1.93,0,0,1,433.68,64.54Zm3.46,0a1.46,1.46,0,1,0-1.46,1.53A1.43,1.43,0,0,0,437.14,64.54Z"/><path class="cls-144" d="M442.38,64.23v2.28h-.53V64.28A1.1,1.1,0,0,0,440.67,63a1.29,1.29,0,0,0-1.38,1.42v2.07h-.53V62.58h.51v.72a1.66,1.66,0,0,1,1.5-.75A1.5,1.5,0,0,1,442.38,64.23Z"/><path class="cls-144" d="M446.79,64.07v2.44h-.51v-.62a1.46,1.46,0,0,1-1.35.65c-.89,0-1.43-.46-1.43-1.14s.39-1.11,1.51-1.11h1.25v-.24c0-.67-.38-1-1.11-1a2,2,0,0,0-1.31.46l-.24-.39a2.48,2.48,0,0,1,1.6-.53A1.39,1.39,0,0,1,446.79,64.07Zm-.53,1.26v-.65H445c-.76,0-1,.3-1,.71s.37.74,1,.74A1.27,1.27,0,0,0,446.26,65.33Z"/><path class="cls-144" d="M448.24,61h.53v5.55h-.53Z"/><path class="cls-144" d="M301.16,73.68h-3.28a1.46,1.46,0,0,0,1.54,1.37,1.58,1.58,0,0,0,1.21-.52l.3.34a2.07,2.07,0,0,1-3.58-1.36,1.89,1.89,0,0,1,1.92-2,1.87,1.87,0,0,1,1.9,2S301.16,73.62,301.16,73.68Zm-3.28-.4h2.78a1.39,1.39,0,0,0-2.78,0Z"/><path class="cls-144" d="M305.85,69.93v5.55h-.51V74.7a1.71,1.71,0,0,1-1.52.82,2,2,0,0,1,0-4,1.72,1.72,0,0,1,1.5.78V69.93Zm-.53,3.58a1.46,1.46,0,1,0-1.45,1.54A1.44,1.44,0,0,0,305.32,73.51Z"/><path class="cls-144" d="M310.87,71.55v3.93h-.51v-.72a1.55,1.55,0,0,1-1.41.76,1.52,1.52,0,0,1-1.66-1.69V71.55h.53v2.23A1.1,1.1,0,0,0,309,75a1.28,1.28,0,0,0,1.34-1.43V71.55Z"/><path class="cls-144" d="M312,73.51a1.94,1.94,0,0,1,2-2,1.72,1.72,0,0,1,1.54.78l-.4.26A1.35,1.35,0,0,0,314,72a1.54,1.54,0,0,0,0,3.07,1.33,1.33,0,0,0,1.14-.58l.4.27a1.74,1.74,0,0,1-1.54.78A2,2,0,0,1,312,73.51Z"/><path class="cls-144" d="M319.54,73v2.44H319v-.61a1.48,1.48,0,0,1-1.35.65c-.89,0-1.44-.47-1.44-1.15s.39-1.11,1.52-1.11H319V73c0-.67-.38-1-1.11-1a2,2,0,0,0-1.31.47l-.23-.4a2.44,2.44,0,0,1,1.59-.53A1.4,1.4,0,0,1,319.54,73ZM319,74.3v-.64h-1.23c-.76,0-1,.29-1,.7s.37.74,1,.74A1.25,1.25,0,0,0,319,74.3Z"/><path class="cls-144" d="M323.05,75.24a1.25,1.25,0,0,1-.83.28,1,1,0,0,1-1.15-1.15V72h-.7v-.45h.7v-.86h.53v.86h1.2V72h-1.2v2.34a.63.63,0,0,0,.68.72.89.89,0,0,0,.58-.2Z"/><path class="cls-144" d="M323.9,70.31a.39.39,0,0,1,.38-.38.38.38,0,1,1-.38.38Zm.12,1.24h.53v3.93H324Z"/><path class="cls-144" d="M325.63,73.51a2,2,0,1,1,2,2A1.93,1.93,0,0,1,325.63,73.51Zm3.46,0a1.46,1.46,0,1,0-1.46,1.54A1.43,1.43,0,0,0,329.09,73.51Z"/><path class="cls-144" d="M334.33,73.2v2.28h-.53V73.25A1.09,1.09,0,0,0,332.62,72a1.29,1.29,0,0,0-1.38,1.42v2.06h-.53V71.55h.51v.72a1.68,1.68,0,0,1,1.5-.75A1.5,1.5,0,0,1,334.33,73.2Z"/><path class="cls-144" d="M336.23,75.11a1.33,1.33,0,0,1-.1.43l-.32,1h-.35l.25-1.08a.38.38,0,0,1-.27-.38.4.4,0,1,1,.79,0Z"/><path class="cls-144" d="M343.12,72.86h.53v2a2.91,2.91,0,0,1-1.92.66A2.66,2.66,0,1,1,343.68,71l-.35.35A2.21,2.21,0,1,0,341.75,75a2.29,2.29,0,0,0,1.37-.4Z"/><path class="cls-144" d="M344.7,73.51a2,2,0,1,1,2,2A1.94,1.94,0,0,1,344.7,73.51Zm3.46,0a1.46,1.46,0,1,0-2.92,0,1.46,1.46,0,1,0,2.92,0Z"/><path class="cls-144" d="M352.35,71.09v.46h1.21V72h-1.19v3.48h-.53V72h-.71v-.45h.71v-.49A1.08,1.08,0,0,1,353,69.9a1.25,1.25,0,0,1,.78.24l-.18.4a.88.88,0,0,0-.58-.19C352.59,70.35,352.35,70.6,352.35,71.09Z"/><path class="cls-144" d="M353.82,73.51a2,2,0,1,1,2,2A1.93,1.93,0,0,1,353.82,73.51Zm3.46,0a1.46,1.46,0,1,0-1.46,1.54A1.43,1.43,0,0,0,357.28,73.51Z"/><path class="cls-144" d="M360.88,71.52V72h-.12a1.27,1.27,0,0,0-1.33,1.45v2h-.53V71.55h.51v.77A1.49,1.49,0,0,1,360.88,71.52Z"/><path class="cls-144" d="M363.74,70.31a.39.39,0,0,1,.39-.38.38.38,0,0,1,.39.37.39.39,0,0,1-.78,0Zm.12,1.24h.53v3.93h-.53Z"/><path class="cls-144" d="M367.94,75.24a1.25,1.25,0,0,1-.83.28A1,1,0,0,1,366,74.37V72h-.7v-.45h.7v-.86h.53v.86h1.2V72h-1.2v2.34a.63.63,0,0,0,.68.72.89.89,0,0,0,.58-.2Z"/><path class="cls-144" d="M368.74,75.13a.4.4,0,0,1,.79,0,.4.4,0,0,1-.79,0Zm.08-4.88h.63l-.11,3.66h-.41Z"/><path class="cls-145" d="M304,29.65V43.39h3a.87.87,0,0,1,.59.16.52.52,0,0,1,.18.42.54.54,0,0,1-.18.41.87.87,0,0,1-.59.16h-7.15a.87.87,0,0,1-.59-.16.57.57,0,0,1-.17-.41.54.54,0,0,1,.17-.42.87.87,0,0,1,.59-.16h3V29.65h-4.71v4a.92.92,0,0,1-.16.6.54.54,0,0,1-.42.18.54.54,0,0,1-.41-.18.86.86,0,0,1-.17-.6V28.5h12.91v5.14a.92.92,0,0,1-.16.6.53.53,0,0,1-.42.18.54.54,0,0,1-.42-.18.92.92,0,0,1-.15-.6v-4Z"/><path class="cls-145" d="M316.57,36.79v6.6h8.86V40a.87.87,0,0,1,.16-.59.52.52,0,0,1,.42-.18.51.51,0,0,1,.41.18.87.87,0,0,1,.16.59v4.55H313.87a.87.87,0,0,1-.59-.16.54.54,0,0,1-.18-.41.52.52,0,0,1,.18-.42.87.87,0,0,1,.59-.16h1.55V29.65h-1.55a.87.87,0,0,1-.59-.16.51.51,0,0,1-.18-.41.52.52,0,0,1,.18-.42.87.87,0,0,1,.59-.16H326v4a.91.91,0,0,1-.16.59.53.53,0,0,1-.42.18.54.54,0,0,1-.42-.18.91.91,0,0,1-.15-.59V29.65h-8.26v6h4.13v-1.3a.87.87,0,0,1,.16-.59.55.55,0,0,1,.43-.18.54.54,0,0,1,.41.18.87.87,0,0,1,.16.59V38.1a.87.87,0,0,1-.16.59.54.54,0,0,1-.41.18.55.55,0,0,1-.43-.18.87.87,0,0,1-.16-.59V36.79Z"/><path class="cls-145" d="M342.24,30.08v-.81a.85.85,0,0,1,.16-.59.52.52,0,0,1,.42-.18.51.51,0,0,1,.41.18.85.85,0,0,1,.16.59v3.19a.89.89,0,0,1-.16.61.58.58,0,0,1-.81,0,.9.9,0,0,1-.18-.54,2.79,2.79,0,0,0-1.25-2,5.82,5.82,0,0,0-3.62-1.22,5.61,5.61,0,0,0-2.51.59,4.23,4.23,0,0,0-1.4,1A9.28,9.28,0,0,0,332,33.28a6,6,0,0,0-.38,2.17v2a6.13,6.13,0,0,0,1.87,4.47,5.86,5.86,0,0,0,4.33,1.9,5.39,5.39,0,0,0,2.65-.64,8.19,8.19,0,0,0,2.27-2,.68.68,0,0,1,.52-.29.54.54,0,0,1,.4.15.53.53,0,0,1,.15.39c0,.21-.2.53-.59,1a7.63,7.63,0,0,1-2.53,1.9,6.88,6.88,0,0,1-2.84.63,7.22,7.22,0,0,1-2.54-.48,6.07,6.07,0,0,1-1.63-.86A10.08,10.08,0,0,1,332.11,42a7.65,7.65,0,0,1-1.28-2.16,6.62,6.62,0,0,1-.34-2.19V35.29a7.53,7.53,0,0,1,.91-3.48,6.69,6.69,0,0,1,2.5-2.73,6.57,6.57,0,0,1,3.43-.95A6.89,6.89,0,0,1,342.24,30.08Z"/><path class="cls-145" d="M357.93,36.78h-7.64v6.61h1.55a.87.87,0,0,1,.59.16.52.52,0,0,1,.18.42.54.54,0,0,1-.18.41.87.87,0,0,1-.59.16h-4a.87.87,0,0,1-.59-.16.57.57,0,0,1-.17-.41.54.54,0,0,1,.17-.42.87.87,0,0,1,.59-.16h1.31V29.65h-.72a.88.88,0,0,1-.6-.16.51.51,0,0,1-.18-.41.52.52,0,0,1,.18-.42.88.88,0,0,1,.6-.16h3.42a.87.87,0,0,1,.59.16.52.52,0,0,1,.18.42.51.51,0,0,1-.18.41.87.87,0,0,1-.59.16h-1.55v6h7.64v-6h-1.54a.87.87,0,0,1-.59-.16.51.51,0,0,1-.18-.41.54.54,0,0,1,.17-.42.88.88,0,0,1,.6-.16h3.41a.89.89,0,0,1,.61.16.52.52,0,0,1,.18.42.51.51,0,0,1-.18.41.89.89,0,0,1-.61.16h-.71V43.39h1.3a.85.85,0,0,1,.59.16.52.52,0,0,1,.18.42.54.54,0,0,1-.18.41.85.85,0,0,1-.59.16h-4a.87.87,0,0,1-.59-.16.58.58,0,0,1,0-.83.88.88,0,0,1,.6-.16h1.54Z"/><path class="cls-146" d="M385,35.11a3,3,0,0,1,.19-1.08,2.78,2.78,0,0,1,.52-.92,2.3,2.3,0,0,1,.84-.62,3,3,0,0,1,1.18-.22,3.32,3.32,0,0,1,.67.07,5.4,5.4,0,0,1,.67.18,3.39,3.39,0,0,0,1.61-1.12,3,3,0,0,0,.7-1.94A3.37,3.37,0,0,0,391.1,28a2.84,2.84,0,0,0-1-1.11,5.58,5.58,0,0,0-1.8-.73,11.57,11.57,0,0,0-2.71-.27,14.26,14.26,0,0,0-4.92.8A12.43,12.43,0,0,0,377,28.8a8.86,8.86,0,0,0-2.31,2.91,7.22,7.22,0,0,0-.8,3.26,4.59,4.59,0,0,0,.15,1.2,3,3,0,0,0,.46,1,6.8,6.8,0,0,1-.77.11l-.74,0a5.46,5.46,0,0,1-1.39-.17,3,3,0,0,1-1.11-.54,2.41,2.41,0,0,1-.75-.94,3.38,3.38,0,0,1-.26-1.39,7.69,7.69,0,0,1,1.3-4.12,13.73,13.73,0,0,1,3.63-3.77,20.14,20.14,0,0,1,5.49-2.74,21.71,21.71,0,0,1,6.88-1.05,20.37,20.37,0,0,1,4.19.37A8.79,8.79,0,0,1,393.81,24a4.48,4.48,0,0,1,1.63,1.73,5.14,5.14,0,0,1,.52,2.32,4.69,4.69,0,0,1-1.1,3,7.56,7.56,0,0,1-3,2.16c-.23.08-.34.21-.34.4a5.19,5.19,0,0,1,1.83,1.88,5,5,0,0,1,.56,2.33,4.87,4.87,0,0,1-.56,2.22,8,8,0,0,1-1.56,2.05,12.55,12.55,0,0,1-2.32,1.71A12,12,0,0,1,386.61,45a16.74,16.74,0,0,1-1.87-.13l-2.54-.28-2.83-.28c-1-.08-1.86-.13-2.71-.13a20.59,20.59,0,0,0-2.94.2,5.33,5.33,0,0,0-1.91.54,2.11,2.11,0,0,1-.09-.44,4.42,4.42,0,0,1,0-.49,3.25,3.25,0,0,1,1.38-2.57,6.25,6.25,0,0,1,3.9-1c.38,0,.78,0,1.2,0s.78.06,1.08.1a.53.53,0,0,0-.09-.37,11.65,11.65,0,0,1-1-1.28,1.87,1.87,0,0,1-.31-1.05l1.85-5.31a15.78,15.78,0,0,0,.52-1.77,6.29,6.29,0,0,0,.19-1.37,2,2,0,0,0-.12-.73,12.31,12.31,0,0,1,1.81-.76,5,5,0,0,1,1.51-.28c1,0,1.49.55,1.49,1.66a8.44,8.44,0,0,1-.3,1.93,17.45,17.45,0,0,1-1,2.76l-3,6.79c.48.08,1,.17,1.61.3l1.74.35c.57.11,1.11.2,1.6.28a9.19,9.19,0,0,0,1.17.11,3.7,3.7,0,0,0,1.67-1.29,3.46,3.46,0,0,0,.66-2.11,2.69,2.69,0,0,0-1.13-2.22A6.05,6.05,0,0,0,385,35.11Z"/><path class="cls-146" d="M411.74,37.16a2.36,2.36,0,0,1,0,.28,2.46,2.46,0,0,1,0,.28,2.86,2.86,0,0,1-.68,1.82,23,23,0,0,1-2.05,2.4,16.56,16.56,0,0,1-1.8,1.63,8.62,8.62,0,0,1-1.43.94,2.33,2.33,0,0,1-1,.31,2.74,2.74,0,0,1-1.28-.33,2.2,2.2,0,0,1-.94-1,3.5,3.5,0,0,1,.08-.7,6.35,6.35,0,0,1,.29-.88c.13-.35.31-.77.54-1.27s.54-1.12.92-1.86c-.3,0-.5.07-.59.22-.88,1.18-1.64,2.14-2.26,2.89s-1.17,1.35-1.62,1.79a5,5,0,0,1-1.12.89,1.72,1.72,0,0,1-.79.24A2.86,2.86,0,0,1,396,43.6a4.46,4.46,0,0,1-.74-2.65,10.28,10.28,0,0,1,.77-4,11.52,11.52,0,0,1,2-3.21,9.68,9.68,0,0,1,2.58-2.14,5.63,5.63,0,0,1,2.67-.77,3.71,3.71,0,0,1,1.67.34,4.85,4.85,0,0,1,1.45,1.18,9,9,0,0,1,1.86-1,3.83,3.83,0,0,1,1.2-.29,1,1,0,0,1,.84.47c-.09.36-.22.8-.39,1.34s-.35,1.09-.55,1.68l-.6,1.79q-.31.9-.57,1.68c-.16.53-.31,1-.43,1.38a5.49,5.49,0,0,0-.21.84c0,.19.12.28.36.28a1.17,1.17,0,0,0,.4-.14,5.19,5.19,0,0,0,.76-.52c.31-.25.7-.59,1.15-1S411.14,37.81,411.74,37.16Zm-6.49-3.06a2.25,2.25,0,0,0-1.49-.73,2.2,2.2,0,0,0-1.37.64A7.42,7.42,0,0,0,401,35.67a10.86,10.86,0,0,0-1.13,2.2,6.51,6.51,0,0,0-.45,2.29,1,1,0,0,0,.17.61A.51.51,0,0,0,400,41c.17,0,.46-.2.86-.59a17.22,17.22,0,0,0,1.36-1.56c.51-.65,1-1.38,1.57-2.21A26.86,26.86,0,0,0,405.25,34.1Z"/><path class="cls-146" d="M413.62,34.1a5.08,5.08,0,0,1,.51-1.54,5.26,5.26,0,0,1,.85-1.23,3.83,3.83,0,0,1,1.07-.81,2.48,2.48,0,0,1,1.16-.3,1.5,1.5,0,0,1,1,.38,1.79,1.79,0,0,1,.53,1.08,4.37,4.37,0,0,1-.53.79c-.23.26-.47.52-.74.78a4.23,4.23,0,0,0,.37,1.27c.21.46.42,1,.65,1.5s.42,1.09.6,1.68a6.3,6.3,0,0,1,.27,1.84,3.46,3.46,0,0,1-.62,1.9,7.34,7.34,0,0,1-1.56,1.7,8.74,8.74,0,0,1-2.06,1.22,5.58,5.58,0,0,1-2.14.46,6.3,6.3,0,0,1-1.86-.25,5,5,0,0,1-1.42-.65,3.14,3.14,0,0,1-.92-.89,1.94,1.94,0,0,1-.32-1,4.14,4.14,0,0,1,.21-1.34,4.6,4.6,0,0,1,.72-1.3c.15-.18.39-.47.73-.85s.7-.82,1.11-1.31.82-1,1.25-1.54A18.68,18.68,0,0,0,413.62,34.1Zm.53,2.38c-.18.26-.42.56-.71.9s-.61.69-.94,1-.69.74-1.06,1.11l-1,1.07A5.23,5.23,0,0,0,411.91,42a3.11,3.11,0,0,0,1.6.48,1.57,1.57,0,0,0,1.16-.5,2,2,0,0,0,.49-1.47,4.52,4.52,0,0,0-.11-1,9,9,0,0,0-.28-1.05c-.11-.35-.22-.69-.34-1S414.23,36.76,414.15,36.48Z"/><path class="cls-146" d="M433.64,36.85a2.9,2.9,0,0,1,.06.62,3.9,3.9,0,0,1-.24,1.05,4.1,4.1,0,0,1-.52,1,16.4,16.4,0,0,1-4,4,7.44,7.44,0,0,1-4.15,1.33,4.62,4.62,0,0,1-3.46-1.18,4.32,4.32,0,0,1-1.15-3.14,7.15,7.15,0,0,1,.17-1.48,11.91,11.91,0,0,1,.39-1.41,11.72,11.72,0,0,1,1.41-2.78,10.58,10.58,0,0,1,1.92-2.15,8.7,8.7,0,0,1,2.22-1.38,5.9,5.9,0,0,1,2.32-.49,4.14,4.14,0,0,1,2.65.74,2.53,2.53,0,0,1,.91,2.07,2.64,2.64,0,0,1-.17.91,3.38,3.38,0,0,1-.45.89,4.16,4.16,0,0,1-.74.66,14,14,0,0,1-1.49,1c-.61.36-1.32.73-2.13,1.13a25.36,25.36,0,0,1-2.66,1.09,2.9,2.9,0,0,0,0,.34c0,.13,0,.27,0,.42a1.75,1.75,0,0,0,.47,1.25,2.09,2.09,0,0,0,1.55.49,6,6,0,0,0,3-1.12A19.83,19.83,0,0,0,433.64,36.85Zm-6-3.79a1,1,0,0,0-.48.24,3.19,3.19,0,0,0-.67.77,9.85,9.85,0,0,0-.76,1.35,13.82,13.82,0,0,0-.73,1.93,18,18,0,0,0,2.19-1.12,6.38,6.38,0,0,0,1.13-.84,1.85,1.85,0,0,0,.39-1.21C428.73,33.43,428.37,33.06,427.66,33.06Z"/></g></g></g></svg>