<svg xmlns="http://www.w3.org/2000/svg" viewBox="0 0 115.95 116"><defs><style>.cls-1{fill:#444b54;}.cls-2{fill:#71c2ff;}</style></defs><g id="Layer_2" data-name="Layer 2"><g id="Layer_1-2" data-name="Layer 1"><path class="cls-1" d="M0,58A58,58,0,0,1,58,0,57.31,57.31,0,0,1,99,17a58.06,58.06,0,0,1,0,82h0A58,58,0,0,1,0,58Zm110,0A51.9,51.9,0,1,0,94.8,94.8h0A52.19,52.19,0,0,0,110,58Z"/><path class="cls-2" d="M60.1,80.1l15-15a3,3,0,0,0-4.2-4.2L61,70.8V40a3,3,0,0,0-6,0V70.8l-9.9-9.9a3,3,0,1,0-4.2,4.2l15,15A2.9,2.9,0,0,0,60.1,80.1Z"/></g></g></svg>