<svg xmlns="http://www.w3.org/2000/svg" viewBox="0 0 751.53 751.69"><defs><style>.cls-1{fill:#e65100;}.cls-2{fill:#1976d2;}.cls-10,.cls-3{fill:#704e34;}.cls-4{fill:#c29653;}.cls-5{fill:#8c6a3f;}.cls-6{fill:#1565c0;}.cls-7{fill:#43a047;}.cls-8{fill:#7cb342;}.cls-9{fill:#bbdefb;}.cls-10{font-size:44.61px;font-family:LCDMono2Bold, LCDMono2;}</style></defs><g id="Layer_2" data-name="Layer 2"><g id="Layer_1-2" data-name="Layer 1"><path class="cls-1" d="M38.71,578.27v75.61H55.14a5,5,0,0,1,3.25.86,3.15,3.15,0,0,1,.1,4.46l-.1.11a4.78,4.78,0,0,1-3.25.91H15.85a4.76,4.76,0,0,1-3.24-.91,3.15,3.15,0,0,1-.1-4.46l.1-.11a4.9,4.9,0,0,1,3.24-.86H32.29V578.27H6.36v21.94a5.05,5.05,0,0,1-.87,3.33,3.16,3.16,0,0,1-4.46.1l-.1-.1A4.89,4.89,0,0,1,0,600.21V572H71v28.26a5,5,0,0,1-.86,3.33,3.2,3.2,0,0,1-4.5.09l-.1-.09a5,5,0,0,1-.86-3.33V578.27Z"/><path class="cls-1" d="M107.59,617.59v36.29h48.7V635.12a4.75,4.75,0,0,1,.88-3.24,3.14,3.14,0,0,1,4.45-.13l.14.13a4.84,4.84,0,0,1,.86,3.24v25H92.74a4.76,4.76,0,0,1-3.24-.91,3.15,3.15,0,0,1-.1-4.46l.1-.11a4.9,4.9,0,0,1,3.24-.86h8.53V578.27H92.74a4.84,4.84,0,0,1-3.24-.86,3.18,3.18,0,0,1-.09-4.5l.09-.09a4.85,4.85,0,0,1,3.24-.87H159.3v21.79a4.92,4.92,0,0,1-.85,3.24,3.22,3.22,0,0,1-4.61,0,4.86,4.86,0,0,1-.86-3.24V578.27H107.59v33h22.69v-7.16a4.81,4.81,0,0,1,.91-3.26,3.22,3.22,0,0,1,4.61,0,4.8,4.8,0,0,1,.89,3.26v20.64a4.78,4.78,0,0,1-.89,3.25,3,3,0,0,1-2.28,1,3,3,0,0,1-2.33-1,4.78,4.78,0,0,1-.91-3.25v-7.12Z"/><path class="cls-1" d="M248.71,580.62v-4.45a4.8,4.8,0,0,1,.88-3.24,3.19,3.19,0,0,1,4.5-.1l.09.1a4.91,4.91,0,0,1,.87,3.24v17.57a5,5,0,0,1-.87,3.31,3.11,3.11,0,0,1-4.4.13l-.05,0a4.78,4.78,0,0,1-1-3q-.37-6.31-6.85-11.16a31.86,31.86,0,0,0-19.91-6.7,30.47,30.47,0,0,0-13.8,3.24,22.86,22.86,0,0,0-7.68,5.72,48.35,48.35,0,0,0-7.91,13.05,31.87,31.87,0,0,0-2.12,11.9v11.09a34,34,0,0,0,10.26,24.62q10.26,10.42,23.82,10.44a29.8,29.8,0,0,0,14.59-3.55,45.56,45.56,0,0,0,12.48-10.7,3.58,3.58,0,0,1,2.86-1.59,2.94,2.94,0,0,1,2.19.83,2.87,2.87,0,0,1,.82,2.11c0,1.16-1.09,2.92-3.24,5.28a41.76,41.76,0,0,1-13.95,10.44,37.44,37.44,0,0,1-15.65,3.5,39.93,39.93,0,0,1-14-2.64,34.68,34.68,0,0,1-9-4.74,55.56,55.56,0,0,1-8.71-9.16,41.65,41.65,0,0,1-7.06-11.92,37.11,37.11,0,0,1-1.87-12v-13a41.57,41.57,0,0,1,5-19.11,36.58,36.58,0,0,1,13.72-15,36.13,36.13,0,0,1,18.89-5.23A37.86,37.86,0,0,1,248.71,580.62Z"/><path class="cls-1" d="M335,617.48H293v36.29h8.53a4.84,4.84,0,0,1,3.24.86,3.15,3.15,0,0,1,.1,4.46l-.1.11a4.68,4.68,0,0,1-3.24.9h-22a4.78,4.78,0,0,1-3.25-.9,3.18,3.18,0,0,1-.06-4.5l.06-.07a4.94,4.94,0,0,1,3.25-.86h7.16v-75.5h-3.92a5,5,0,0,1-3.32-.86,3.18,3.18,0,0,1-.09-4.5l.09-.09a5,5,0,0,1,3.32-.87h18.77a4.85,4.85,0,0,1,3.24.87,3.18,3.18,0,0,1,.09,4.5l-.09.09a4.84,4.84,0,0,1-3.24.86H293v32.87h42V578.27h-8.44a4.84,4.84,0,0,1-3.24-.86,3.22,3.22,0,0,1,0-4.59,4.85,4.85,0,0,1,3.28-.87h18.77a5,5,0,0,1,3.32.87,3.18,3.18,0,0,1,.09,4.5l-.09.09a5,5,0,0,1-3.32.86h-3.92v75.61h7.2a4.94,4.94,0,0,1,3.25.86,3.16,3.16,0,0,1,.11,4.46l-.11.11a4.77,4.77,0,0,1-3.25.91H326.51a4.74,4.74,0,0,1-3.24-.91,3,3,0,0,1-1-2.26,3,3,0,0,1,.94-2.31,4.9,4.9,0,0,1,3.28-.86H335Z"/><path class="cls-2" d="M483.94,608.27a17.85,17.85,0,0,1,1-5.93,15.34,15.34,0,0,1,2.79-5,12.83,12.83,0,0,1,4.73-3.45,16.06,16.06,0,0,1,6.49-1.24,19.21,19.21,0,0,1,3.7.39,22.61,22.61,0,0,1,3.71,1,18.86,18.86,0,0,0,8.8-6.19A16.07,16.07,0,0,0,519,577.18a18.17,18.17,0,0,0-1.7-7.87,15.38,15.38,0,0,0-5.47-6,30.48,30.48,0,0,0-9.87-4,64.93,64.93,0,0,0-14.91-1.4,78.33,78.33,0,0,0-27.09,4.4,67.29,67.29,0,0,0-20.3,11.43,49.17,49.17,0,0,0-12.73,16,40.42,40.42,0,0,0-4.43,17.84,24.79,24.79,0,0,0,.85,6.64,16.37,16.37,0,0,0,2.56,5.4,31.13,31.13,0,0,1-4.19.62c-1.39.11-2.79.15-4.09.15a29.45,29.45,0,0,1-7.65-.92,17.23,17.23,0,0,1-6.1-2.93,13.54,13.54,0,0,1-4.09-5.18,18.17,18.17,0,0,1-1.46-7.63q0-11.28,7.17-22.71a75.88,75.88,0,0,1,19.92-20.69,109.5,109.5,0,0,1,30.19-15,119,119,0,0,1,37.77-5.78,114.42,114.42,0,0,1,23.07,2,47.87,47.87,0,0,1,15.76,5.86,24.21,24.21,0,0,1,8.94,9.49A27.73,27.73,0,0,1,544,569.54a25.67,25.67,0,0,1-6,16.74,41.54,41.54,0,0,1-16.59,11.77q-1.86.63-1.86,2.16a28.15,28.15,0,0,1,10,10.35,27.18,27.18,0,0,1,3.08,12.81,26.5,26.5,0,0,1-3.08,12.2A42.27,42.27,0,0,1,521,646.84a65.57,65.57,0,0,1-12.74,9.41,67.35,67.35,0,0,1-15.59,6.49,100.43,100.43,0,0,1-10.26-.7l-14-1.53q-7.57-.85-15.52-1.55c-5.3-.46-10.26-.7-14.91-.7a111.16,111.16,0,0,0-16.2,1.09q-7.41,1.06-10.5,2.93a11.44,11.44,0,0,1-.46-2.4,24.12,24.12,0,0,1-.15-2.69q.13-8.38,7.56-14.13t21.46-5.79a63.2,63.2,0,0,1,6.57.24c2.39.23,4.28.32,5.93.53a3,3,0,0,0-.46-2,72.72,72.72,0,0,1-5.25-7,10.72,10.72,0,0,1-1.7-5.79L455,594.09a97.93,97.93,0,0,0,2.79-9.77,34,34,0,0,0,1-7.57,11.7,11.7,0,0,0-.63-4,65.4,65.4,0,0,1,10-4.19,28.06,28.06,0,0,1,8.27-1.54q8.17,0,8.17,9.11A47.23,47.23,0,0,1,483,586.88,95,95,0,0,1,477.65,602l-16.36,37.37c2.67.4,5.58,1,8.88,1.62s6.43,1.31,9.57,1.92,6.07,1.13,8.8,1.55a47.33,47.33,0,0,0,6.4.62,20.4,20.4,0,0,0,9.19-7.11,19,19,0,0,0,3.63-11.57,14.81,14.81,0,0,0-6.17-12.2Q495.41,609.35,483.94,608.27Z"/><path class="cls-2" d="M630.8,619.54a13.32,13.32,0,0,1,.24,1.54c.05.51.07,1,.07,1.55a15.69,15.69,0,0,1-3.7,10,135.12,135.12,0,0,1-11.28,13.21,98.41,98.41,0,0,1-9.88,8.94,48.83,48.83,0,0,1-7.87,5.18,13,13,0,0,1-5.4,1.7,14.82,14.82,0,0,1-7-1.85,11.78,11.78,0,0,1-5.18-5.4,17.42,17.42,0,0,1,.46-3.87,43.57,43.57,0,0,1,1.55-4.86c.73-1.91,1.72-4.18,3-7s2.95-6.16,5-10.28a3.57,3.57,0,0,0-3.24,1.25q-7.27,9.76-12.42,15.89t-8.89,9.77a29.63,29.63,0,0,1-6.17,4.94,9.61,9.61,0,0,1-4.33,1.32,15.87,15.87,0,0,1-11.5-6.73,24.69,24.69,0,0,1-4.09-14.59,57,57,0,0,1,4.19-22.08,65.35,65.35,0,0,1,10.72-17.6,52.12,52.12,0,0,1,14.2-11.74A30.58,30.58,0,0,1,584,584.71a20.62,20.62,0,0,1,9.19,1.85,27.59,27.59,0,0,1,8,6.42,49.65,49.65,0,0,1,10.28-5.58,21.21,21.21,0,0,1,6.56-1.63,5.26,5.26,0,0,1,4.63,2.62c-.52,2-1.23,4.41-2.16,7.34s-1.93,6-3,9.27-2.19,6.5-3.33,9.77-2.16,6.38-3.09,9.27-1.72,5.4-2.39,7.56a28.4,28.4,0,0,0-1.16,4.62c0,1,.67,1.55,2,1.55a5.77,5.77,0,0,0,2.16-.77,26,26,0,0,0,4.19-2.86q2.63-2.05,6.32-5.58T630.8,619.54Zm-35.66-16.83c-2.87-2.68-5.58-4-8.18-4-2.27,0-4.79,1.17-7.56,3.54a43.09,43.09,0,0,0-7.87,9.12,59.11,59.11,0,0,0-6.19,12.11A35.77,35.77,0,0,0,562.87,636a5.11,5.11,0,0,0,.94,3.32,2.75,2.75,0,0,0,2.31,1.16c.93,0,2.49-1.07,4.71-3.24a88.44,88.44,0,0,0,7.48-8.57q4.19-5.31,8.65-12.11A158.43,158.43,0,0,0,595.14,602.71Z"/><path class="cls-2" d="M641.14,602.71a29.6,29.6,0,0,1,2.8-8.37,28.83,28.83,0,0,1,4.7-6.83A21.54,21.54,0,0,1,654.5,583a13.88,13.88,0,0,1,6.41-1.62,8,8,0,0,1,5.58,2.08,9.7,9.7,0,0,1,2.94,6,21.88,21.88,0,0,1-2.94,4.33c-1.23,1.39-2.57,2.87-4,4.31a23.28,23.28,0,0,0,2,7c1.14,2.56,2.32,5.33,3.56,8.26a94.28,94.28,0,0,1,3.32,9.25,35,35,0,0,1,1.4,10.12,19,19,0,0,1-3.39,10.43,41,41,0,0,1-8.59,9.34,45.9,45.9,0,0,1-11.35,6.71,30.7,30.7,0,0,1-11.72,2.55,34.9,34.9,0,0,1-10.26-1.39,29.42,29.42,0,0,1-7.8-3.55,17.13,17.13,0,0,1-5-4.94,10.23,10.23,0,0,1-1.78-5.58,23,23,0,0,1,1.16-7.4,25.73,25.73,0,0,1,3.94-7.1c.82-1,2.16-2.6,4-4.72s3.88-4.5,6.08-7.17,4.51-5.5,6.88-8.49A97.72,97.72,0,0,0,641.14,602.71Zm3,13.12q-1.55,2.17-4,4.94c-1.6,1.84-3.32,3.78-5.17,5.79s-3.79,4.05-5.79,6.1-3.88,4-5.58,5.87a29.09,29.09,0,0,0,8.18,7.41,17.27,17.27,0,0,0,8.81,2.62,8.73,8.73,0,0,0,6.4-2.69q2.71-2.72,2.71-8.11a26.15,26.15,0,0,0-.63-5.58,58.22,58.22,0,0,0-1.53-5.8c-.62-1.89-1.25-3.75-1.86-5.58S644.45,617.38,644.09,615.83Z"/><path class="cls-2" d="M751.22,617.84a16.84,16.84,0,0,1,.31,3.39,20.27,20.27,0,0,1-1.31,5.8,22.13,22.13,0,0,1-2.79,5.48q-10.86,14.52-22,21.84a40.89,40.89,0,0,1-22.84,7.34q-12.66,0-19-6.49t-6.32-17.29a37.56,37.56,0,0,1,.92-8.11,68.68,68.68,0,0,1,2.16-7.79A64.63,64.63,0,0,1,688,606.66a58.27,58.27,0,0,1,10.58-11.81,47.48,47.48,0,0,1,12.18-7.56,32.74,32.74,0,0,1,12.75-2.71q9.56,0,14.6,4.09a13.9,13.9,0,0,1,5,11.35,15.64,15.64,0,0,1-.92,5,19.87,19.87,0,0,1-2.47,4.86,23.52,23.52,0,0,1-4.09,3.63,86.49,86.49,0,0,1-8.2,5.33q-5,2.92-11.74,6.17a137,137,0,0,1-14.58,6,14.73,14.73,0,0,0-.22,1.86c0,.73-.09,1.49-.09,2.32a9.45,9.45,0,0,0,2.63,6.86c1.76,1.81,4.57,2.71,8.48,2.71q6.66,0,16.53-6.18T751.22,617.84ZM718.34,597a5,5,0,0,0-2.62,1.32A19,19,0,0,0,712,602.5a58.66,58.66,0,0,0-4.18,7.41,72.33,72.33,0,0,0-4,10.65,106.68,106.68,0,0,0,12-6.17,32.14,32.14,0,0,0,6.19-4.63,10.08,10.08,0,0,0,2.14-6.64Q724.2,597,718.34,597Z"/><path class="cls-3" d="M196.66,29l8.87-8.7L572,393.05l-8.87,8.73Z"/><path class="cls-4" d="M201.22,46.54a22,22,0,0,1-21.86-21.67,21.8,21.8,0,0,1,43.6,0A22,22,0,0,1,201.22,46.54Z"/><path class="cls-5" d="M201.22,6.14a18.33,18.33,0,0,1,18.64,18c0,.24,0,.49,0,.73a18.3,18.3,0,0,1-17.94,18.64h-.69a18.32,18.32,0,0,1-18.66-18v-.66a18.34,18.34,0,0,1,18-18.66h.64m0-6.21a24.94,24.94,0,1,0,24.94,24.94A24.95,24.95,0,0,0,201.22,0Z"/><path class="cls-4" d="M406.32,469.22c-128.16.58-232.53-102.84-233.11-231A232.06,232.06,0,0,1,242.23,72a241.59,241.59,0,0,1,36.68-29.84l22.38,22.38a204.67,204.67,0,0,0-36.68,29.22c-79.5,78.23-80.53,206.1-2.3,285.6s206.09,80.53,285.59,2.3c.67-.66,1.34-1.33,2-2l2.49-2.49,21.74,22.38-2.47,2.49A235.73,235.73,0,0,1,406.32,469.22Z"/><path class="cls-5" d="M278.28,45.93l17.41,18.14A242.91,242.91,0,0,0,261.5,91.3c-80,79.38-80.47,208.57-1.09,288.55l1.09,1.09c79.82,80.14,209.49,80.41,289.65.61h0l17.41,18h0A230.31,230.31,0,0,1,176.35,236.73c0-60.89,24.26-118.7,67.76-162.85a248.94,248.94,0,0,1,34.17-27.95m.63-8.09a229.65,229.65,0,0,0-39.15,31.74c-92.61,93.22-92.61,241.15,0,333.76,92.24,92,241.52,92,333.76,0l4.35-4.35-26.11-26.73c-1.23,1.86-3.11,3.1-4.33,5A200.56,200.56,0,0,1,406.32,435c-109.84-.13-198.78-89.29-198.64-199.14A198.9,198.9,0,0,1,265.76,95.67a208.78,208.78,0,0,1,39.88-31.1Z"/><path class="cls-6" d="M406.07,69.46A166.82,166.82,0,1,0,572.89,236.28h0A166.82,166.82,0,0,0,406.07,69.46Z"/><path class="cls-7" d="M475.2,157l-16.67,12.52a9.32,9.32,0,0,0-2.51,9.06l7.5,9.07a8.35,8.35,0,0,1-4.17,9.07c-4.17,2.5-14.17,7.51-14.17,10,0,5.85,4.17,20,7.51,20,25.86,0,10-11.68,28.36-23.35,10.83-6.67,28.36-10,32.53-10h16.69V310.52H471.82s10,15.87,19.18,33.38c4.17,8.34,14.19,24.93,14.19,24.93a166.42,166.42,0,0,0,1.66-265.25l-24.13,42.6A21.23,21.23,0,0,1,475.2,157ZM323.3,244.62c7.53,0,7.53-6.8,7.53-16.69S329.15,203,355.77,203c10.86,0,24.94,0,24.94-16.69V144.53c0-2.5-.84-13.36-17.53-13.36-14.17,0-24.94-2.49-24.94-12.51,0-7.5,5.83-24.94,17.5-40.81a165.67,165.67,0,0,0-115.1,137.62L239,228h66.9c12.52,0,10,16.64,17.5,16.64Zm74.34,50c-10,0-16.69,0-28.36-14.17-5-5-12.52-10.84-18.34-10.84h-20L322.58,278l16.66,58.4v52.55c8.34,3.33,16.69,6.67,24.94,9.07,3.33-25.85,23.35-56.68,24.94-61.71,1.67-3.33,8.34-19.18,8.34-19.18Z"/><path class="cls-8" d="M514.42,194.56s8.32,8.35,8.32,33.37c0,8.35-16.66,16.69-41.69,16.69-41.72,0-41.72,24.19-41.72,33.35,0,30,33.37,33.37,33.37,33.37s33.38,0,58.38,33.37l.84.82A166.6,166.6,0,0,0,552.78,157l-2.5-4.17h-2.51C522.74,152.87,525.26,186.22,514.42,194.56ZM255.83,236.28c5,10,17.53,19.18,27.53,26.68,6.8,5,30.87,15,30.87,31.74,0,28.36,16.69,58.4,16.69,75.06v15l16.66,7.5V378.11c0-24.94,28.36-41.69,41.72-41.69,0,0,16.68-1.68,16.68-29.21,0-3.33-3.33-12.51-8.34-12.51,0,0-4.17,16.69-35.87,16.69-16.68,0-31.73-9.19-31.73-41.7H314.17c-5,0-9.19-6.8-9.19-10.86s-.83-5.82-7.5-5.82c-5,0-8.34-2.52-8.34-6.8V238c0-5,4.17-10.84,16.68-10.84,0-15-16.68-24.94-16.68-37.52,0-11.68-8.35-29.2-24.94-37.54l-2.49-.84s-17.55,30.06-20.88,62.52Z"/><path class="cls-9" d="M406.07,411.43a175.14,175.14,0,1,1,.05,0Zm0-325.35A150.13,150.13,0,1,0,556.2,236.21,150.13,150.13,0,0,0,406.07,86.08Z"/><text class="cls-10" transform="translate(300.52 749.59)">Est.2020</text></g></g></svg>