<svg xmlns="http://www.w3.org/2000/svg" xmlns:xlink="http://www.w3.org/1999/xlink" viewBox="0 0 30 30" fill="#FFFFFF">
  <path d="M14 3C12.895 3 12 3.895 12 5L4 5C2.895 5 2 5.895 2 7L2 16C2 17.105 2.895 18 4 18L26 18C27.105 18 28 17.105 28 16L28 7C28 5.895 27.105 5 26 5L18 5C18 3.895 17.105 3 16 3L14 3 z M 15 14C15.552 14 16 14.448 16 15C16 15.552 15.552 16 15 16C14.448 16 14 15.552 14 15C14 14.448 14.448 14 15 14 z M 2 19.443359L2 23C2 24.105 2.895 25 4 25L26 25C27.105 25 28 24.105 28 23L28 19.443359C27.409 19.787359 26.732 20 26 20L4 20C3.268 20 2.591 19.787359 2 19.443359 z" fill="#FFFFFF" />
</svg>