<svg xmlns="http://www.w3.org/2000/svg" xmlns:xlink="http://www.w3.org/1999/xlink" width="48" height="48" viewBox="0 0 48 48"><path fill="#FF3D00" d="M31 12L33.979 3.822 35 8 39 4 39 8 43 9 40 12 42 16 38 15 37 18 32.879 13.427"/><path fill="#FF9E80" d="M32.247 11.529L37 8 36 10 40 10 37 12 39 14 32.563 12.478"/><path fill="#90A4AE" d="M12.272 21.445L33.196 14.375 31.615 9.632 10.692 16.701z"/><path fill="#90A4AE" d="M33.196,14.375l-0.317-0.948l-19.976,6.751l-0.631-1.894L11.325,18.6c0,0-0.001,3.162-2.848,4.11L9,32l7.066-2.332c-0.632-1.897,1.265-2.53,1.265-2.53l8.539-2.845c0,0-0.316-0.949-0.948-2.846c-0.633-1.898,2.266-2.962,2.266-2.962L32,17C31.367,15.103,33.196,14.375,33.196,14.375z"/><path fill="#607D8B" d="M25.813,24.312l-1.925,0.642c0.126,0.211,0.264,0.508,0.401,0.921c0.308,0.923,0.102,1.71-0.646,2.479c-0.663,0.681-1.713,1.283-2.958,1.697c-0.362,0.121-0.692,0.182-0.981,0.182c-0.366,0-1.34,0-2.056-2.146c-0.141-0.424-0.222-0.733-0.27-0.965l-0.046,0.016c0,0-1.644,0.55-1.358,2.159c0.797,1.941,2.046,2.936,3.729,2.936c0.505,0,1.047-0.096,1.613-0.283c0.894-0.298,2.57-0.979,3.758-2.2c1.274-1.308,1.658-2.866,1.111-4.507C26.116,25.033,25.994,24.685,25.813,24.312z"/><path fill="#607D8B" d="M21.783 28.977C21.856 28.992 21.929 29 22 29c.457 0 .868-.315.973-.779.122-.537-.216-1.072-.752-1.196-.014-.003-1.059-.254-1.78-.923l-2.01.67C19.543 28.438 21.678 28.953 21.783 28.977zM31.615 9.632L31.932 10.58 31.932 10.58 30.982 7.734 29.086 8.367 27.81 10.917zM10.692 16.701L12.586 16.062 11.957 14.173 10.06 14.805 10.836 17.133zM33.196 14.375L21.76 18.284 21.128 16.387 32.563 12.478zM10.157 21.627c.556-.614.848-1.33 1-1.913-1.358-1.176-3.35-1.022-4.462-.667-.526.169-.815.732-.646 1.258s.731.817 1.258.646C7.396 20.923 9.33 20.327 10.157 21.627z"/><path fill="#546E7A" d="M14.281 16.497H22.28V24.497H14.281z" transform="rotate(-18.432 18.28 20.496)"/><g><path fill="#37474F" d="M21.128 16.387l-4.744 1.581c-.524.175-.808.741-.633 1.265.176.525.74.807 1.265.632l4.744-1.58L21.128 16.387zM22.393 20.182l-4.744 1.581c-.524.174-.808.739-.632 1.265.174.524.739.807 1.264.633l4.744-1.581L22.393 20.182z"/></g><path fill="#5D4037" d="M16.065,39.155l-0.316-0.948c-2.528-7.591-1.58-7.907-1.58-7.907l1.897-0.632c0,0-0.316-0.949-0.632-1.897c-0.316-0.949-0.632-1.897-2.53-1.265c-1.896,0.631-2.846-2.215-2.846-2.215l-0.632-1.897L8.478,22.71c0,0-1.897,0.633-1.266,2.529c0.633,1.897,0.633,1.897,0.633,1.897s-4.744,4.744-1.583,14.23l0.317,0.949c0.174,0.524,0.739,0.807,1.264,0.633l7.59-2.529C15.958,40.245,16.239,39.68,16.065,39.155z M11,30c-0.553,0-1-0.447-1-1s0.447-1,1-1s1,0.447,1,1S11.553,30,11,30z"/><path fill="#795548" d="M12.009,30.718C11.711,30.893,11.37,31,11,31c-1.086,0-1.966-0.867-1.995-1.947l-0.108-0.045c-0.89,1.252-2.946,5.1-0.737,11.727l5.691-1.896C12.526,34.858,11.925,32.325,12.009,30.718z"/></svg>