<svg xmlns="http://www.w3.org/2000/svg" xmlns:xlink="http://www.w3.org/1999/xlink" viewBox="0 0 128 128"><path fill="#fff" d="M64 9.5A55 55 0 1 0 64 119.5A55 55 0 1 0 64 9.5Z" transform="rotate(-65.001 64.012 64.529)"/><path fill="#444b54" d="M89,2C73.8,2,61.5,14.3,61,29.9c-0.4,14.5,13.5,33.6,21.8,43.6c1.5,1.8,3.8,2.9,6.2,2.9s4.6-1.1,6.2-2.9c8.3-10.1,22.3-29.1,21.8-43.6C116.5,14.3,104.2,2,89,2z"/><path fill="#fff" d="M89 20A10 10 0 1 0 89 40A10 10 0 1 0 89 20Z"/><path fill="#71c2ff" d="M27.7,105.7C27.7,105.7,27.7,105.7,27.7,105.7c3.9,3.4,9.5,3.9,13.9,1.4c1.8-1,3.7-2.2,5.8-3.6c1.4-1,2.6-2.3,3.5-3.8c1-1.8,2.2-3.7,2.8-5.9c3.9-15-9.1-15.6-9.5-18.9c-0.4-3.7,4.4-6.5,7.3-9.4c2.9-2.9,3.8-7.4,2.3-10c-4.8-8.6-16.2-4.1-17.3,5.1c-0.6,5.5-3.9,11.1-6.7,14c-2.8,2.8-8.3,1.3-9.8-2.8c-1.7-4.6,4.2-6.3,3.3-12.2c-0.2-1.6-1.9-2.4-4-2.7l-9.9,0.4C9.2,59.6,9,62,9,64.4c0,12.3,4,23.6,10.9,32.8C19.9,97.2,27.7,104.7,27.7,105.7z"/><path fill="#444b54" d="M64,122.5c-8.4,0-16.7-1.8-24.5-5.5c-14-6.5-24.7-18.2-30-32.7S4.9,54.1,11.5,40c7.8-16.7,22.6-28.5,40.7-32.2c1.6-0.3,3.2,0.7,3.6,2.3c0.3,1.6-0.7,3.2-2.3,3.6c-16.2,3.4-29.5,13.9-36.5,28.9c-5.9,12.6-6.5,26.7-1.7,39.7c4.7,13,14.3,23.5,26.9,29.3c12.6,5.9,26.7,6.5,39.7,1.7c13-4.7,23.5-14.3,29.3-26.9c2.5-5.4,4.1-11.1,4.6-16.9c0.2-1.6,1.7-2.9,3.3-2.7c1.6,0.2,2.9,1.6,2.7,3.3c-0.6,6.5-2.4,12.9-5.2,18.8c-6.5,14-18.2,24.7-32.7,30C77.4,121.4,70.7,122.5,64,122.5z"/></svg>