<svg xmlns="http://www.w3.org/2000/svg" xmlns:xlink="http://www.w3.org/1999/xlink" viewBox="0 0 48.45 56.08"><defs><style>.cls-1{opacity:0.4;}.cls-2,.cls-3,.cls-4,.cls-5{fill-rule:evenodd;}.cls-2{fill:url(#linear-gradient);}.cls-3{fill:url(#linear-gradient-2);}.cls-4{fill:url(#linear-gradient-3);}.cls-5{fill:url(#linear-gradient-4);}</style><linearGradient id="linear-gradient" x1="-248.36" y1="300.61" x2="136.74" y2="-84.49" gradientUnits="userSpaceOnUse"><stop offset="0" stop-color="#18202b"/><stop offset="0.59" stop-color="#314057"/><stop offset="1" stop-color="#5a76a1"/></linearGradient><linearGradient id="linear-gradient-2" x1="-248.36" y1="300.62" x2="136.74" y2="-84.49" xlink:href="#linear-gradient"/><linearGradient id="linear-gradient-3" x1="-248.33" y1="300.61" x2="136.75" y2="-84.47" xlink:href="#linear-gradient"/><linearGradient id="linear-gradient-4" x1="-248.32" y1="300.63" x2="136.77" y2="-84.45" xlink:href="#linear-gradient"/></defs><g id="Layer_2" data-name="Layer 2"><g id="Layer_1-2" data-name="Layer 1" class="cls-1"><path class="cls-2" d="M24.08,56.08a9.77,9.77,0,0,0-.78-1c-2.83-2.84-5.68-5.66-8.49-8.52a4.17,4.17,0,0,0-2-1.15C8.9,44.39,5,43.33,1.09,42.29L0,42c.09-.39.17-.74.26-1.09,1.08-4,2.15-8.08,3.25-12.11a2.73,2.73,0,0,0,0-1.5c-1.09-4-2.15-8-3.22-12C.19,14.9.11,14.54,0,14.1c.43-.13.82-.26,1.2-.36L13,10.59a3.42,3.42,0,0,0,1.65-1c2.86-2.9,5.76-5.77,8.64-8.66.26-.27.47-.59.77-1,.4.38.67.62.93.88,2.94,2.93,5.87,5.85,8.79,8.8a3.28,3.28,0,0,0,1.57.9c3.94,1,7.88,2.1,11.81,3.15.4.1.78.23,1.24.36-.1.42-.17.78-.27,1.14q-1.6,6-3.24,12.1a2.6,2.6,0,0,0,0,1.41q1.63,6,3.25,12.1c.08.33.17.66.28,1.11-.37.12-.71.24-1.06.33-4,1.08-8,2.16-12,3.21a3.26,3.26,0,0,0-1.57.9c-2.9,2.92-5.81,5.82-8.72,8.73C24.83,55.38,24.55,55.63,24.08,56.08Zm0-54.76c-.32.4-.54.72-.8,1C20.6,5,17.88,7.73,15.18,10.46a3.56,3.56,0,0,1-1.65,1c-3.81,1-7.61,2-11.41,3.05l-1,.3c.1.42.16.72.24,1,1,3.68,2,7.35,3,11a4.4,4.4,0,0,1,0,2.49c-1,3.63-2,7.28-2.95,10.92-.09.35-.16.7-.25,1.08l1.19.36c3.78,1,7.54,2,11.32,3a3,3,0,0,1,1.39.81c2.78,2.8,5.57,5.58,8.36,8.37.25.25.53.49.81.75l.68-.63c2.76-2.77,5.54-5.52,8.28-8.3a4,4,0,0,1,1.91-1.1q5.57-1.45,11.12-3c.35-.09.69-.22,1.06-.34-.09-.41-.15-.7-.24-1-1-3.7-2-7.41-3-11.11a4.18,4.18,0,0,1,0-2.3c1-3.66,2-7.34,3-11,.09-.35.16-.71.25-1.1l-1-.29c-3.8-1-7.61-2.05-11.42-3.05a3.3,3.3,0,0,1-1.56-.91C30.59,7.76,27.84,5,25.1,2.29,24.84,2,24.57,1.77,24.11,1.32Z"/><path class="cls-3" d="M7.09,37.87c.1-.42.17-.75.26-1.07.7-2.62,1.38-5.23,2.11-7.84a3.24,3.24,0,0,0,0-1.8c-.74-2.64-1.43-5.3-2.13-7.94-.09-.32-.15-.65-.24-1l2.54-.71c2.12-.57,4.23-1.15,6.35-1.69a3.26,3.26,0,0,0,1.66-.94c1.9-1.93,3.82-3.83,5.73-5.75.24-.24.42-.54.71-.9.37.35.62.56.85.79,2,2,4,4,6,6a2.89,2.89,0,0,0,1.39.79l7.84,2.09,1.18.34c-.06.32-.09.61-.17.89-.72,2.71-1.43,5.43-2.18,8.14a3.07,3.07,0,0,0,0,1.7c.73,2.64,1.42,5.29,2.13,7.94.09.32.15.65.24,1l-3.23.89c-1.91.51-3.83,1-5.75,1.52a3.27,3.27,0,0,0-1.56.92C28.92,43.12,27,45,25.14,46.9c-.26.27-.46.6-.76,1-.42-.38-.7-.62-1-.88-1.92-1.91-3.84-3.81-5.73-5.74a3.56,3.56,0,0,0-1.74-1c-2.62-.67-5.23-1.39-7.84-2.09Zm33.08-.64c-.1-.43-.16-.76-.24-1.08-.65-2.45-1.3-4.91-2-7.35a2.77,2.77,0,0,1,0-1.51c.69-2.47,1.34-5,2-7.45.08-.31.12-.64.19-1l-1-.29c-2.41-.65-4.82-1.32-7.25-1.94a3.38,3.38,0,0,1-1.64-1c-1.76-1.79-3.53-3.55-5.31-5.32-.23-.23-.48-.44-.91-.82a7.27,7.27,0,0,1-.74,1c-1.71,1.74-3.44,3.44-5.15,5.18a3.42,3.42,0,0,1-1.65.94c-2.46.63-4.9,1.31-7.35,2-.29.08-.56.2-.88.31L8.53,20c.65,2.41,1.28,4.84,1.94,7.25a2.81,2.81,0,0,1,0,1.6c-.68,2.44-1.32,4.9-2,7.35-.08.32-.14.64-.22,1,.46.14.81.26,1.17.35,2.38.64,4.76,1.29,7.15,1.91a3,3,0,0,1,1.48.85c1.8,1.83,3.63,3.64,5.45,5.46.21.21.45.4.71.63.29-.27.54-.5.78-.74,1.72-1.72,3.46-3.42,5.15-5.17a4,4,0,0,1,1.91-1.1C34.73,38.72,37.37,38,40.17,37.23Z"/><path class="cls-4" d="M13.56,34.11c.49-1.83.94-3.55,1.42-5.26a2.94,2.94,0,0,0,0-1.61c-.49-1.71-.94-3.43-1.41-5.23a6.4,6.4,0,0,1,.75-.29c1.52-.42,3-.84,4.56-1.22a2.82,2.82,0,0,0,1.4-.8c1-1.06,2.08-2.09,3.12-3.13.24-.24.49-.47.78-.74.24.2.46.36.65.54,1.09,1.09,2.19,2.17,3.26,3.28a2.92,2.92,0,0,0,1.48.85c1.53.39,3.05.81,4.57,1.23.22.06.43.16.72.26-.44,1.66-.84,3.29-1.32,4.89a3.84,3.84,0,0,0,0,2.3c.48,1.6.88,3.23,1.33,4.92-.38.13-.69.24-1,.33-1.46.39-2.91.79-4.37,1.16a2.66,2.66,0,0,0-1.31.75c-1.26,1.3-2.56,2.58-3.89,3.92-.24-.2-.46-.34-.64-.52-1.12-1.11-2.24-2.22-3.34-3.35a2.74,2.74,0,0,0-1.39-.81c-1.43-.36-2.85-.75-4.27-1.14C14.32,34.36,14,34.25,13.56,34.11Zm10.68-17A26.18,26.18,0,0,0,22.34,19a7.83,7.83,0,0,1-5.1,2.93,25.08,25.08,0,0,0-2.52.68c.4,1.51.74,2.94,1.16,4.34a3.56,3.56,0,0,1,0,2.19c-.42,1.4-.76,2.83-1.15,4.28.3.11.51.21.74.27,1.28.35,2.57.71,3.86,1a2.88,2.88,0,0,1,1.48.85c.92,1,1.88,1.9,2.83,2.83.19.18.41.33.69.55,1.08-1.1,2.13-2.14,3.13-3.21a3.42,3.42,0,0,1,1.81-1.06c1.27-.3,2.52-.66,3.77-1a4.48,4.48,0,0,0,.66-.28c-.14-.55-.27-1-.4-1.54a15.15,15.15,0,0,1-.92-3.77,16.49,16.49,0,0,1,.92-3.87c.14-.51.26-1,.4-1.62-1.61-.43-3.12-.87-4.65-1.25a2.77,2.77,0,0,1-1.39-.79C26.57,19.41,25.46,18.3,24.24,17.07Z"/><path class="cls-5" d="M24.29,23.22a5.35,5.35,0,0,0,4.08,2.38,12.22,12.22,0,0,0-.51,2.47,10.78,10.78,0,0,0,.53,2.4,5.44,5.44,0,0,0-4.11,2.36,12.34,12.34,0,0,0-1.91-1.73,10.69,10.69,0,0,0-2.3-.71,10.53,10.53,0,0,0,.52-2.34,11.3,11.3,0,0,0-.51-2.35,12.35,12.35,0,0,0,2.34-.77A11.85,11.85,0,0,0,24.29,23.22Zm2.95,3.07a4.45,4.45,0,0,1-3.07-1.72,4.27,4.27,0,0,1-3,1.77,4.58,4.58,0,0,1,.08,3.37,8,8,0,0,1,1.67.55,9.22,9.22,0,0,1,1.36,1.22,4.47,4.47,0,0,1,3-1.79A4.32,4.32,0,0,1,27.24,26.29Z"/></g></g></svg>