<?xml version="1.0" encoding="utf-8"?>
<!-- Generator: Adobe Illustrator 24.1.1, SVG Export Plug-In . SVG Version: 6.00 Build 0)  -->
<svg version="1.1" id="Layer_1" opacity="0.4" xmlns="http://www.w3.org/2000/svg" xmlns:xlink="http://www.w3.org/1999/xlink"
	 x="0px" y="0px" viewBox="0 0 288 288" style="enable-background:new 0 0 288 288;" xml:space="preserve">
<style type="text/css">
	.st0{fill-rule:evenodd;clip-rule:evenodd;fill:url(#SVGID_1_);}
	.st1{fill-rule:evenodd;clip-rule:evenodd;fill:url(#SVGID_2_);}
	.st2{fill-rule:evenodd;clip-rule:evenodd;fill:url(#SVGID_3_);}
	.st3{fill-rule:evenodd;clip-rule:evenodd;fill:url(#SVGID_4_);}
</style>
<g>
	<g>
		<linearGradient id="SVGID_1_" gradientUnits="userSpaceOnUse" x1="-110.8901" y1="386.4896" x2="274.2121" y2="1.3874">
			<stop  offset="0" style="stop-color:#18202B"/>
			<stop  offset="0.586" style="stop-color:#314057"/>
			<stop  offset="1" style="stop-color:#5A76A1"/>
		</linearGradient>
		<path class="st0" d="M161.6,142c-0.3-0.4-0.5-0.7-0.8-1c-2.8-2.8-5.7-5.7-8.5-8.5c-0.6-0.6-1.2-0.9-2-1.1c-3.9-1-7.8-2.1-11.7-3.1
			c-0.3-0.1-0.7-0.2-1.1-0.3c0.1-0.4,0.2-0.7,0.3-1.1c1.1-4,2.2-8.1,3.3-12.1c0.1-0.5,0.1-1,0-1.5c-1.1-4-2.2-8-3.2-12
			c-0.1-0.4-0.2-0.7-0.3-1.2c0.4-0.1,0.8-0.3,1.2-0.4c3.9-1.1,7.9-2.1,11.8-3.1c0.7-0.2,1.2-0.5,1.6-1c2.9-2.9,5.8-5.8,8.6-8.7
			c0.3-0.3,0.5-0.6,0.8-1c0.4,0.4,0.7,0.6,0.9,0.9c2.9,2.9,5.9,5.9,8.8,8.8c0.5,0.5,0.9,0.7,1.6,0.9c3.9,1,7.9,2.1,11.8,3.1
			c0.4,0.1,0.8,0.2,1.2,0.4c-0.1,0.4-0.2,0.8-0.3,1.1c-1.1,4-2.2,8.1-3.2,12.1c-0.1,0.5-0.1,0.9,0,1.4c1.1,4,2.2,8.1,3.2,12.1
			c0.1,0.3,0.2,0.7,0.3,1.1c-0.4,0.1-0.7,0.2-1.1,0.3c-4,1.1-8,2.2-12,3.2c-0.6,0.2-1.1,0.4-1.6,0.9c-2.9,2.9-5.8,5.8-8.7,8.7
			C162.3,141.3,162,141.5,161.6,142z M161.6,87.2c-0.3,0.4-0.5,0.7-0.8,1c-2.7,2.7-5.4,5.4-8.1,8.2c-0.5,0.5-1,0.8-1.6,1
			c-3.8,1-7.6,2-11.4,3.1c-0.3,0.1-0.6,0.2-1,0.3c0.1,0.4,0.2,0.7,0.2,1c1,3.7,2,7.3,3,11c0.2,0.9,0.2,1.6,0,2.5
			c-1,3.6-2,7.3-2.9,10.9c-0.1,0.3-0.2,0.7-0.3,1.1c0.5,0.1,0.8,0.3,1.2,0.4c3.8,1,7.5,2,11.3,3c0.6,0.1,1,0.4,1.4,0.8
			c2.8,2.8,5.6,5.6,8.4,8.4c0.3,0.3,0.5,0.5,0.8,0.8c0.3-0.3,0.5-0.4,0.7-0.6c2.8-2.8,5.5-5.5,8.3-8.3c0.6-0.6,1.2-0.9,1.9-1.1
			c3.7-1,7.4-2,11.1-3c0.3-0.1,0.7-0.2,1.1-0.3c-0.1-0.4-0.2-0.7-0.2-1c-1-3.7-2-7.4-3-11.1c-0.2-0.8-0.2-1.5,0-2.3
			c1-3.7,2-7.3,3-11c0.1-0.3,0.2-0.7,0.2-1.1c-0.4-0.1-0.7-0.2-1-0.3c-3.8-1-7.6-2.1-11.4-3.1c-0.6-0.2-1.1-0.4-1.6-0.9
			c-2.7-2.8-5.5-5.5-8.2-8.2C162.3,87.9,162,87.6,161.6,87.2z"/>
		<linearGradient id="SVGID_2_" gradientUnits="userSpaceOnUse" x1="-110.8943" y1="386.4939" x2="274.2131" y2="1.3865">
			<stop  offset="0" style="stop-color:#18202B"/>
			<stop  offset="0.586" style="stop-color:#314057"/>
			<stop  offset="1" style="stop-color:#5A76A1"/>
		</linearGradient>
		<path class="st1" d="M144.6,123.7c0.1-0.4,0.2-0.7,0.3-1.1c0.7-2.6,1.4-5.2,2.1-7.8c0.2-0.6,0.2-1.2,0-1.8
			c-0.7-2.6-1.4-5.3-2.1-7.9c-0.1-0.3-0.2-0.6-0.2-1c0.9-0.3,1.7-0.5,2.5-0.7c2.1-0.6,4.2-1.1,6.4-1.7c0.7-0.2,1.2-0.5,1.7-0.9
			c1.9-1.9,3.8-3.8,5.7-5.8c0.2-0.2,0.4-0.5,0.7-0.9c0.4,0.3,0.6,0.6,0.9,0.8c2,2,4,4,6,6c0.4,0.4,0.8,0.7,1.4,0.8
			c2.6,0.7,5.2,1.4,7.8,2.1c0.4,0.1,0.7,0.2,1.2,0.3c-0.1,0.3-0.1,0.6-0.2,0.9c-0.7,2.7-1.4,5.4-2.2,8.1c-0.2,0.6-0.2,1.1,0,1.7
			c0.7,2.6,1.4,5.3,2.1,7.9c0.1,0.3,0.2,0.6,0.2,1.1c-1.1,0.3-2.2,0.6-3.2,0.9c-1.9,0.5-3.8,1-5.8,1.5c-0.6,0.2-1.1,0.5-1.6,0.9
			c-1.9,1.9-3.8,3.8-5.7,5.7c-0.3,0.3-0.5,0.6-0.8,1c-0.4-0.4-0.7-0.6-1-0.9c-1.9-1.9-3.8-3.8-5.7-5.7c-0.5-0.5-1.1-0.8-1.7-1
			c-2.6-0.7-5.2-1.4-7.8-2.1C145.3,124,145,123.9,144.6,123.7z M177.6,123.1c-0.1-0.4-0.2-0.8-0.2-1.1c-0.6-2.5-1.3-4.9-2-7.3
			c-0.1-0.5-0.2-1,0-1.5c0.7-2.5,1.3-5,2-7.4c0.1-0.3,0.1-0.6,0.2-1c-0.4-0.1-0.7-0.2-1-0.3c-2.4-0.7-4.8-1.3-7.2-1.9
			c-0.7-0.2-1.2-0.5-1.6-1c-1.8-1.8-3.5-3.5-5.3-5.3c-0.2-0.2-0.5-0.4-0.9-0.8c-0.3,0.4-0.5,0.7-0.7,1c-1.7,1.7-3.4,3.4-5.2,5.2
			c-0.5,0.5-1,0.8-1.7,0.9c-2.5,0.6-4.9,1.3-7.3,2c-0.3,0.1-0.6,0.2-0.9,0.3c0.1,0.4,0.2,0.8,0.3,1.1c0.6,2.4,1.3,4.8,1.9,7.2
			c0.2,0.6,0.1,1.1,0,1.6c-0.7,2.4-1.3,4.9-2,7.3c-0.1,0.3-0.1,0.6-0.2,1c0.5,0.1,0.8,0.3,1.2,0.3c2.4,0.6,4.8,1.3,7.1,1.9
			c0.6,0.2,1.1,0.4,1.5,0.9c1.8,1.8,3.6,3.6,5.5,5.5c0.2,0.2,0.4,0.4,0.7,0.6c0.3-0.3,0.5-0.5,0.8-0.7c1.7-1.7,3.5-3.4,5.2-5.2
			c0.5-0.6,1.1-0.9,1.9-1.1C172.2,124.6,174.8,123.9,177.6,123.1z"/>
		<linearGradient id="SVGID_3_" gradientUnits="userSpaceOnUse" x1="-110.8654" y1="386.4889" x2="274.2182" y2="1.4053">
			<stop  offset="0" style="stop-color:#18202B"/>
			<stop  offset="0.586" style="stop-color:#314057"/>
			<stop  offset="1" style="stop-color:#5A76A1"/>
		</linearGradient>
		<path class="st2" d="M151,120c0.5-1.8,0.9-3.6,1.4-5.3c0.2-0.5,0.2-1.1,0-1.6c-0.5-1.7-0.9-3.4-1.4-5.2c0.3-0.1,0.5-0.2,0.8-0.3
			c1.5-0.4,3-0.8,4.6-1.2c0.6-0.1,1-0.4,1.4-0.8c1-1.1,2.1-2.1,3.1-3.1c0.2-0.2,0.5-0.5,0.8-0.7c0.2,0.2,0.5,0.4,0.6,0.5
			c1.1,1.1,2.2,2.2,3.3,3.3c0.4,0.4,0.9,0.7,1.5,0.9c1.5,0.4,3,0.8,4.6,1.2c0.2,0.1,0.4,0.2,0.7,0.3c-0.4,1.7-0.8,3.3-1.3,4.9
			c-0.2,0.8-0.2,1.5,0,2.3c0.5,1.6,0.9,3.2,1.3,4.9c-0.4,0.1-0.7,0.2-1,0.3c-1.5,0.4-2.9,0.8-4.4,1.2c-0.5,0.1-0.9,0.4-1.3,0.8
			c-1.3,1.3-2.6,2.6-3.9,3.9c-0.2-0.2-0.5-0.3-0.6-0.5c-1.1-1.1-2.2-2.2-3.3-3.3c-0.4-0.4-0.8-0.7-1.4-0.8c-1.4-0.4-2.8-0.8-4.3-1.1
			C151.8,120.2,151.5,120.1,151,120z M161.7,102.9c-0.7,0.7-1.4,1.3-1.9,1.9c-1.3,1.7-3,2.6-5.1,2.9c-0.8,0.1-1.6,0.4-2.5,0.7
			c0.4,1.5,0.7,2.9,1.2,4.3c0.2,0.8,0.2,1.4,0,2.2c-0.4,1.4-0.8,2.8-1.2,4.3c0.3,0.1,0.5,0.2,0.7,0.3c1.3,0.4,2.6,0.7,3.9,1
			c0.6,0.1,1.1,0.4,1.5,0.8c0.9,1,1.9,1.9,2.8,2.8c0.2,0.2,0.4,0.3,0.7,0.5c1.1-1.1,2.1-2.1,3.1-3.2c0.5-0.5,1.1-0.9,1.8-1.1
			c1.3-0.3,2.5-0.7,3.8-1c0.2-0.1,0.4-0.2,0.7-0.3c-0.1-0.6-0.3-1-0.4-1.5c-0.3-1.3-0.9-2.5-0.9-3.8c0-1.3,0.6-2.6,0.9-3.9
			c0.1-0.5,0.3-1,0.4-1.6c-1.6-0.4-3.1-0.9-4.6-1.3c-0.6-0.1-1-0.4-1.4-0.8C164,105.3,162.9,104.2,161.7,102.9z"/>
		<linearGradient id="SVGID_4_" gradientUnits="userSpaceOnUse" x1="-110.8496" y1="386.5106" x2="274.2384" y2="1.4227">
			<stop  offset="0" style="stop-color:#18202B"/>
			<stop  offset="0.586" style="stop-color:#314057"/>
			<stop  offset="1" style="stop-color:#5A76A1"/>
		</linearGradient>
		<path class="st3" d="M161.8,109.1c1,1.5,2.3,2.2,4.1,2.4c-0.2,0.9-0.5,1.7-0.5,2.5c0,0.8,0.3,1.5,0.5,2.4c-1.8,0.2-3.1,1-4.1,2.4
			c-0.7-0.7-1.2-1.3-1.9-1.7c-0.7-0.4-1.5-0.5-2.3-0.7c0.2-0.8,0.5-1.6,0.5-2.3c0-0.8-0.3-1.5-0.5-2.4c0.8-0.3,1.7-0.4,2.3-0.8
			C160.6,110.4,161,109.8,161.8,109.1z M164.7,112.2c-1.3-0.1-2.2-0.8-3.1-1.7c-0.7,1.1-1.8,1.5-3,1.8c0.5,1.2,0.4,2.3,0.1,3.4
			c0.6,0.2,1.2,0.3,1.7,0.5c0.5,0.3,0.9,0.8,1.4,1.2c0.7-1.1,1.8-1.5,3-1.8C164.2,114.4,164.3,113.3,164.7,112.2z"/>
	</g>
</g>
</svg>
