<svg xmlns="http://www.w3.org/2000/svg" viewBox="0 0 400 400" >
                <path
                  d="M333.33 0H66.67A66.67 66.67 0 000 66.67v266.66A66.67 66.67 0 0066.67 400h266.66A66.67 66.67 0 00400 333.33V66.67A66.67 66.67 0 00333.33 0zm28.57 325.24a36.66 36.66 0 01-36.66 36.66H74.76a36.66 36.66 0 01-36.66-36.66V161.9h323.8zm0-201.43H38.1v-49A36.66 36.66 0 0174.76 38.1h250.48a36.66 36.66 0 0136.66 36.66z"
                  fill="#4951f5"></path>
                <rect x="67.9" y="62.91" width="38.09" height="38.09" rx="2.38" fill="#4951f5"></rect>
                <rect x="125.9" y="62.91" width="38.09" height="38.09" rx="2.38" fill="#4951f5"></rect>
                <rect x="183.9" y="62.91" width="38.09" height="38.09" rx="2.38" fill="#4951f5"></rect>
                <rect x="200" y="295.24" width="114.29" height="38.1" rx="3.33" fill="#4951f5"></rect>
                <path
                  d="M108.91 331.08a3.33 3.33 0 004.71-.21l61.84-67.62a3.35 3.35 0 00.09-4.4l-58.17-69.17a3.32 3.32 0 00-4.69-.4l-20.07 16.88a3.34 3.34 0 00-.41 4.7l39.6 47.14a3.34 3.34 0 01-.09 4.4l-42.37 46.27a3.33 3.33 0 00.21 4.71z"
                  fill="#4951f5"></path>
              
                  </svg>